<svg width="357" height="193" viewBox="0 0 357 193" fill="none" xmlns="http://www.w3.org/2000/svg">
<title id="welcome-title">Birth Control Delivered</title>
<path d="M61.8582 144.479C70.5779 144.479 77.1064 146.468 81.4438 150.448C85.7813 154.383 87.95 160.129 87.95 167.686C87.95 172.56 86.8768 176.83 84.7304 180.497C82.6288 184.119 79.5658 186.936 75.5413 188.949C71.5616 190.961 66.7994 191.967 61.2546 191.967L57.096 191.9C54.5025 191.81 52.6244 191.766 51.4618 191.766C46.8561 191.766 43.4129 191.833 41.1324 191.967V190.625C42.608 190.536 43.6812 190.357 44.352 190.089C45.0674 189.82 45.5369 189.306 45.7605 188.546C46.0288 187.786 46.163 186.556 46.163 184.857V151.588C46.163 149.889 46.0288 148.659 45.7605 147.899C45.5369 147.139 45.0674 146.625 44.352 146.357C43.6812 146.088 42.608 145.909 41.1324 145.82V144.479C43.0105 144.613 45.7158 144.68 49.2484 144.68H51.3276L54.0106 144.613C57.6773 144.523 60.2932 144.479 61.8582 144.479ZM61.7912 145.686C60.405 145.686 59.3542 145.842 58.6387 146.155C57.968 146.468 57.4984 147.027 57.2301 147.832C56.9619 148.637 56.8277 149.844 56.8277 151.454V184.991C56.8277 186.601 56.9619 187.808 57.2301 188.613C57.4984 189.418 57.968 189.977 58.6387 190.29C59.3542 190.603 60.4273 190.759 61.8582 190.759C67.2689 190.759 71.1144 188.881 73.395 185.125C75.6755 181.324 76.8157 175.601 76.8157 167.954C76.8157 160.308 75.6308 154.696 73.2608 151.119C70.9356 147.497 67.1124 145.686 61.7912 145.686ZM109.572 187.406C113.239 187.406 116.19 185.617 118.426 182.04L119.634 182.442C118.739 185.349 117.129 187.831 114.804 189.888C112.524 191.9 109.662 192.906 106.219 192.906C101.479 192.906 97.7003 191.408 94.8832 188.412C92.1108 185.371 90.7247 180.9 90.7247 174.997C90.7247 168.96 92.2226 164.355 95.2186 161.18C98.2146 157.96 102.194 156.351 107.158 156.351C115.564 156.351 119.768 161.314 119.768 171.241H100.92C100.875 171.912 100.853 172.963 100.853 174.393C100.853 177.345 101.255 179.804 102.06 181.772C102.91 183.739 103.983 185.17 105.28 186.064C106.621 186.959 108.052 187.406 109.572 187.406ZM106.755 157.759C105.146 157.759 103.804 158.765 102.731 160.777C101.702 162.745 101.054 165.808 100.786 169.967H111.316C111.406 166.434 111.048 163.527 110.243 161.247C109.483 158.922 108.32 157.759 106.755 157.759ZM134.652 185.729C134.652 187.562 134.965 188.837 135.591 189.552C136.217 190.223 137.335 190.558 138.944 190.558V191.967C134.294 191.788 131.298 191.699 129.957 191.699C128.436 191.699 125.351 191.788 120.7 191.967V190.558C122.265 190.558 123.361 190.223 123.987 189.552C124.658 188.837 124.993 187.562 124.993 185.729V147.497C124.993 145.44 124.658 143.942 123.987 143.003C123.361 142.064 122.265 141.594 120.7 141.594V140.186C122.131 140.32 123.517 140.387 124.859 140.387C128.749 140.387 132.014 140.074 134.652 139.448V185.729ZM147.835 139.985C149.713 139.985 151.189 140.454 152.262 141.393C153.38 142.287 153.939 143.539 153.939 145.149C153.939 146.759 153.38 148.033 152.262 148.972C151.189 149.867 149.713 150.314 147.835 150.314C145.957 150.314 144.459 149.867 143.341 148.972C142.268 148.033 141.731 146.759 141.731 145.149C141.731 143.539 142.268 142.287 143.341 141.393C144.459 140.454 145.957 139.985 147.835 139.985ZM153.067 185.729C153.067 187.562 153.38 188.837 154.006 189.552C154.676 190.223 155.794 190.558 157.359 190.558V191.967C152.888 191.788 149.914 191.699 148.439 191.699C147.052 191.699 143.945 191.788 139.115 191.967V190.558C140.725 190.558 141.843 190.223 142.469 189.552C143.095 188.837 143.408 187.562 143.408 185.729V164.601C143.408 162.544 143.095 161.046 142.469 160.107C141.843 159.168 140.725 158.698 139.115 158.698V157.29C140.546 157.424 141.932 157.491 143.274 157.491C147.254 157.491 150.518 157.178 153.067 156.552V185.729ZM184.559 157.491C186.84 157.491 188.562 157.424 189.724 157.29V158.631C188.785 158.899 187.936 159.481 187.175 160.375C186.46 161.225 185.767 162.566 185.096 164.399L175.303 192.101C174.811 192.056 174.074 192.034 173.09 192.034C172.151 192.034 171.435 192.056 170.943 192.101L159.004 162.454C158.378 160.934 157.73 159.928 157.059 159.436C156.433 158.944 155.785 158.698 155.114 158.698V157.29C158.244 157.513 161.419 157.625 164.639 157.625C167.456 157.625 170.362 157.513 173.358 157.29V158.698C171.838 158.698 170.742 158.81 170.072 159.034C169.445 159.212 169.132 159.749 169.132 160.643C169.132 161.001 169.244 161.56 169.468 162.32L177.114 182.644L181.944 169.363C182.659 167.261 183.017 165.45 183.017 163.93C183.017 160.666 181.385 158.899 178.12 158.631V157.29C180.177 157.424 182.324 157.491 184.559 157.491ZM207.443 187.406C211.109 187.406 214.061 185.617 216.296 182.04L217.504 182.442C216.609 185.349 215 187.831 212.674 189.888C210.394 191.9 207.532 192.906 204.089 192.906C199.349 192.906 195.571 191.408 192.753 188.412C189.981 185.371 188.595 180.9 188.595 174.997C188.595 168.96 190.093 164.355 193.089 161.18C196.085 157.96 200.065 156.351 205.028 156.351C213.435 156.351 217.638 161.314 217.638 171.241H198.79C198.745 171.912 198.723 172.963 198.723 174.393C198.723 177.345 199.126 179.804 199.93 181.772C200.78 183.739 201.853 185.17 203.15 186.064C204.491 186.959 205.922 187.406 207.443 187.406ZM204.626 157.759C203.016 157.759 201.674 158.765 200.601 160.777C199.573 162.745 198.924 165.808 198.656 169.967H209.187C209.276 166.434 208.918 163.527 208.113 161.247C207.353 158.922 206.191 157.759 204.626 157.759ZM241.519 156.351C243.532 156.351 245.052 156.954 246.08 158.162C247.109 159.369 247.623 160.822 247.623 162.521C247.623 164.176 247.131 165.54 246.147 166.613C245.208 167.641 243.956 168.156 242.391 168.156C240.871 168.156 239.664 167.776 238.769 167.015C237.875 166.21 237.428 165.16 237.428 163.863C237.428 161.716 238.412 159.973 240.379 158.631C240.2 158.586 239.932 158.564 239.574 158.564C239.127 158.564 238.769 158.609 238.501 158.698C236.802 158.966 235.349 159.995 234.141 161.784C232.979 163.572 232.397 165.406 232.397 167.284V185.058C232.397 187.115 232.889 188.546 233.873 189.351C234.901 190.156 236.511 190.558 238.702 190.558V191.967C238.076 191.967 237.562 191.944 237.16 191.9C232.599 191.766 229.558 191.699 228.038 191.699C226.83 191.699 224.08 191.766 219.787 191.9C219.43 191.944 218.983 191.967 218.446 191.967V190.558C220.056 190.558 221.174 190.223 221.8 189.552C222.426 188.837 222.739 187.562 222.739 185.729V164.601C222.739 162.544 222.426 161.046 221.8 160.107C221.174 159.168 220.056 158.698 218.446 158.698V157.29C219.877 157.424 221.263 157.491 222.605 157.491C226.584 157.491 229.849 157.178 232.397 156.552V162.79C233.247 160.867 234.477 159.324 236.086 158.162C237.696 156.954 239.507 156.351 241.519 156.351ZM265.876 187.406C269.542 187.406 272.494 185.617 274.729 182.04L275.937 182.442C275.042 185.349 273.433 187.831 271.107 189.888C268.827 191.9 265.965 192.906 262.522 192.906C257.782 192.906 254.003 191.408 251.186 188.412C248.414 185.371 247.028 180.9 247.028 174.997C247.028 168.96 248.526 164.355 251.522 161.18C254.518 157.96 258.497 156.351 263.461 156.351C271.868 156.351 276.071 161.314 276.071 171.241H257.223C257.178 171.912 257.156 172.963 257.156 174.393C257.156 177.345 257.558 179.804 258.363 181.772C259.213 183.739 260.286 185.17 261.583 186.064C262.924 186.959 264.355 187.406 265.876 187.406ZM263.058 157.759C261.449 157.759 260.107 158.765 259.034 160.777C258.006 162.745 257.357 165.808 257.089 169.967H267.619C267.709 166.434 267.351 163.527 266.546 161.247C265.786 158.922 264.624 157.759 263.058 157.759ZM310.272 184.589C310.272 186.646 310.585 188.144 311.211 189.083C311.837 190.022 312.955 190.491 314.565 190.491V191.9C313.179 191.766 311.793 191.699 310.406 191.699C306.427 191.699 303.162 192.012 300.614 192.638V186.869C299.093 190.894 296.187 192.906 291.894 192.906C287.691 192.906 284.337 191.386 281.833 188.345C279.373 185.259 278.166 180.631 278.211 174.461C278.211 170.526 278.837 167.217 280.089 164.534C281.386 161.806 283.152 159.771 285.388 158.43C287.668 157.044 290.262 156.351 293.168 156.351C296.433 156.351 298.914 157.2 300.614 158.899V147.497C300.614 145.44 300.278 143.942 299.607 143.003C298.981 142.064 297.886 141.594 296.321 141.594V140.186C297.752 140.32 299.138 140.387 300.479 140.387C304.37 140.387 307.634 140.074 310.272 139.448V184.589ZM294.644 190.022C296.12 190.022 297.416 189.485 298.534 188.412C299.697 187.339 300.39 185.885 300.614 184.052V160.576C299.496 159.056 297.864 158.296 295.717 158.296C293.347 158.296 291.514 159.66 290.217 162.387C288.92 165.115 288.294 169.184 288.339 174.595C288.294 180.05 288.809 183.985 289.882 186.4C291 188.814 292.587 190.022 294.644 190.022Z" fill="#7D277C"/>
<path d="M40.3576 52.0066C44.8147 52.0066 48.6033 52.6381 51.7233 53.9009C54.8434 55.1638 57.8891 56.9467 60.8605 59.2495C61.6777 59.9181 62.3834 60.2524 62.9777 60.2524C64.4634 60.2524 65.4291 58.0238 65.8749 53.5666H68.4377C68.1406 58.6181 67.992 67.6067 67.992 80.5325H65.4291C64.7606 75.0353 63.8691 70.8382 62.7548 67.941C61.6405 65.0438 59.7462 62.5181 57.0719 60.3638C55.2148 58.581 53.0605 57.2438 50.6091 56.3524C48.1576 55.3866 45.5947 54.9038 42.9204 54.9038C35.4175 54.9038 29.8461 58.581 26.2061 65.9353C22.566 73.2153 20.746 82.3154 20.746 93.2354C20.746 104.081 22.6403 113.144 26.4289 120.424C30.2175 127.704 35.8633 131.344 43.3662 131.344C45.8919 131.344 48.3805 130.899 50.8319 130.007C53.3576 129.041 55.4748 127.667 57.1834 125.884C59.932 123.804 61.8263 121.204 62.8663 118.084C63.9806 114.964 64.8348 110.396 65.4291 104.378H67.992C67.992 117.824 68.1406 127.184 68.4377 132.459H65.8749C65.652 130.081 65.3177 128.41 64.872 127.444C64.5006 126.404 63.9434 125.884 63.2006 125.884C62.6063 125.884 61.8263 126.181 60.8605 126.776C57.5177 129.153 54.3234 130.973 51.2776 132.236C48.2319 133.424 44.5547 134.019 40.2461 134.019C32.3718 134.019 25.4632 132.421 19.5203 129.227C13.6517 126.033 9.0831 121.427 5.81451 115.41C2.54591 109.318 0.911619 102.075 0.911619 93.6812C0.911619 85.5097 2.58306 78.2668 5.92593 71.9525C9.26881 65.6381 13.9117 60.7353 19.8546 57.2438C25.8718 53.7524 32.7061 52.0066 40.3576 52.0066ZM100.538 73.2896C109.081 73.2896 115.767 75.7411 120.595 80.6439C125.424 85.4725 127.838 93.1612 127.838 103.71C127.838 114.258 125.424 121.947 120.595 126.776C115.767 131.604 109.081 134.019 100.538 134.019C92.0694 134.019 85.3837 131.604 80.4808 126.776C75.6522 121.947 73.2379 114.258 73.2379 103.71C73.2379 93.1612 75.6522 85.4725 80.4808 80.6439C85.3837 75.7411 92.0694 73.2896 100.538 73.2896ZM100.538 75.5182C97.3437 75.5182 94.7809 77.8582 92.8494 82.5382C90.9923 87.144 90.0637 94.2012 90.0637 103.71C90.0637 113.218 90.9923 120.276 92.8494 124.881C94.7809 129.487 97.3437 131.79 100.538 131.79C103.807 131.79 106.37 129.524 108.227 124.993C110.084 120.387 111.012 113.293 111.012 103.71C111.012 94.1269 110.047 87.0325 108.115 82.4268C106.258 77.8211 103.732 75.5182 100.538 75.5182ZM170.675 73.2896C176.321 73.2896 180.406 74.7382 182.932 77.6354C184.195 79.0468 185.086 80.8668 185.606 83.0954C186.126 85.324 186.386 88.3326 186.386 92.1211V122.096C186.386 125.141 186.906 127.258 187.946 128.447C189.061 129.561 190.918 130.119 193.518 130.119V132.459C186.089 132.161 181.186 132.013 178.809 132.013C176.581 132.013 171.752 132.161 164.323 132.459V130.119C166.552 130.119 168.112 129.561 169.003 128.447C169.895 127.258 170.341 125.141 170.341 122.096V87.4411C170.341 84.3954 169.821 82.0925 168.781 80.5325C167.815 78.9725 166.032 78.1925 163.432 78.1925C160.386 78.1925 157.786 79.4554 155.632 81.9811C153.478 84.4325 152.401 87.4783 152.401 91.1183V122.096C152.401 125.141 152.846 127.258 153.738 128.447C154.629 129.561 156.189 130.119 158.418 130.119V132.459C151.583 132.161 146.978 132.013 144.6 132.013C142.372 132.013 137.246 132.161 129.223 132.459V130.119C131.898 130.119 133.755 129.561 134.795 128.447C135.835 127.258 136.355 125.141 136.355 122.096V86.9954C136.355 83.5782 135.835 81.0897 134.795 79.5296C133.755 77.9696 131.898 77.1896 129.223 77.1896V74.8496C131.6 75.0725 133.903 75.1839 136.132 75.1839C142.743 75.1839 148.166 74.6639 152.401 73.6239V83.6525C155.743 76.7439 161.835 73.2896 170.675 73.2896ZM214.718 74.8496H227.867V77.0782H214.718V122.096C214.718 124.324 215.09 125.921 215.832 126.887C216.65 127.778 217.912 128.224 219.621 128.224C222.815 128.224 225.341 125.996 227.198 121.538L229.093 122.541C226.27 130.193 221.181 134.019 213.827 134.019C208.924 134.019 205.21 132.756 202.684 130.23C201.124 128.67 200.047 126.738 199.452 124.436C198.932 122.058 198.672 118.827 198.672 114.741V77.0782H189.312V74.8496H198.672V60.141C204.838 60.141 210.187 58.9524 214.718 56.5752V74.8496ZM264.033 73.2896C267.375 73.2896 269.901 74.2925 271.61 76.2982C273.318 78.3039 274.173 80.7182 274.173 83.5411C274.173 86.2897 273.355 88.5554 271.721 90.3383C270.161 92.0469 268.081 92.9012 265.481 92.9012C262.955 92.9012 260.95 92.2697 259.464 91.0069C257.978 89.6697 257.235 87.924 257.235 85.7697C257.235 82.2039 258.87 79.3068 262.138 77.0782C261.841 77.0039 261.395 76.9668 260.801 76.9668C260.058 76.9668 259.464 77.0411 259.018 77.1896C256.195 77.6354 253.781 79.3439 251.775 82.3154C249.844 85.2868 248.878 88.3326 248.878 91.4526V120.981C248.878 124.398 249.695 126.776 251.33 128.113C253.038 129.45 255.712 130.119 259.353 130.119V132.459C258.313 132.459 257.458 132.421 256.79 132.347C249.212 132.124 244.161 132.013 241.635 132.013C239.63 132.013 235.061 132.124 227.929 132.347C227.335 132.421 226.592 132.459 225.701 132.459V130.119C228.375 130.119 230.232 129.561 231.272 128.447C232.312 127.258 232.832 125.141 232.832 122.096V86.9954C232.832 83.5782 232.312 81.0897 231.272 79.5296C230.232 77.9696 228.375 77.1896 225.701 77.1896V74.8496C228.078 75.0725 230.381 75.1839 232.61 75.1839C239.221 75.1839 244.644 74.6639 248.878 73.6239V83.9868C250.29 80.7925 252.332 78.2296 255.007 76.2982C257.681 74.2925 260.69 73.2896 264.033 73.2896ZM299.37 73.2896C307.912 73.2896 314.598 75.7411 319.427 80.6439C324.255 85.4725 326.67 93.1612 326.67 103.71C326.67 114.258 324.255 121.947 319.427 126.776C314.598 131.604 307.912 134.019 299.37 134.019C290.901 134.019 284.215 131.604 279.312 126.776C274.484 121.947 272.069 114.258 272.069 103.71C272.069 93.1612 274.484 85.4725 279.312 80.6439C284.215 75.7411 290.901 73.2896 299.37 73.2896ZM299.37 75.5182C296.175 75.5182 293.612 77.8582 291.681 82.5382C289.824 87.144 288.895 94.2012 288.895 103.71C288.895 113.218 289.824 120.276 291.681 124.881C293.612 129.487 296.175 131.79 299.37 131.79C302.638 131.79 305.201 129.524 307.058 124.993C308.915 120.387 309.844 113.293 309.844 103.71C309.844 94.1269 308.878 87.0325 306.947 82.4268C305.09 77.8211 302.564 75.5182 299.37 75.5182ZM349.698 122.096C349.698 125.141 350.218 127.258 351.258 128.447C352.298 129.561 354.155 130.119 356.83 130.119V132.459C349.104 132.161 344.127 132.013 341.898 132.013C339.372 132.013 334.247 132.161 326.521 132.459V130.119C329.121 130.119 330.941 129.561 331.981 128.447C333.095 127.258 333.652 125.141 333.652 122.096V58.581C333.652 55.1638 333.095 52.6752 331.981 51.1152C330.941 49.5552 329.121 48.7752 326.521 48.7752V46.4352C328.898 46.658 331.201 46.7695 333.429 46.7695C339.892 46.7695 345.315 46.2495 349.698 45.2094V122.096Z" fill="#7D277C"/>
<path d="M126.926 27.0968C132.552 27.5295 136.685 28.8277 139.324 30.9914C141.964 33.1551 143.284 35.7082 143.284 38.6508C143.284 42.6753 141.704 45.7909 138.545 47.9979C135.386 50.1616 130.994 51.2434 125.369 51.2434C124.114 51.2434 123.053 51.2218 122.188 51.1785C119.332 51.092 116.541 51.0487 113.815 51.0487C109.357 51.0487 106.025 51.1136 103.818 51.2434V49.9452C105.246 49.8587 106.285 49.6856 106.934 49.4259C107.626 49.1663 108.081 48.6686 108.297 47.933C108.557 47.1973 108.687 46.0073 108.687 44.3629V12.1674C108.687 10.5231 108.557 9.33304 108.297 8.59739C108.081 7.86174 107.626 7.36409 106.934 7.10445C106.285 6.84481 105.246 6.67172 103.818 6.58517V5.28697C106.025 5.41679 109.314 5.4817 113.685 5.4817L120.89 5.41679C121.755 5.37351 122.751 5.35188 123.876 5.35188C129.068 5.35188 133.028 6.28226 135.754 8.14302C138.524 10.0038 139.908 12.4704 139.908 15.5428C139.908 18.0526 138.805 20.3894 136.598 22.5531C134.434 24.7168 131.21 26.1881 126.926 26.967V27.0968ZM123.032 6.58517C121.863 6.58517 120.998 6.73663 120.435 7.03954C119.916 7.34246 119.548 7.88338 119.332 8.6623C119.116 9.44122 119.007 10.6096 119.007 12.1674V26.8372H121.799C124.611 26.8372 126.58 25.8851 127.705 23.9811C128.83 22.0338 129.393 19.459 129.393 16.2568C129.393 13.0113 128.874 10.588 127.835 8.98685C126.84 7.38573 125.239 6.58517 123.032 6.58517ZM123.486 49.7505C129.501 49.7505 132.509 45.964 132.509 38.3912C132.509 34.9726 131.643 32.3762 129.912 30.602C128.181 28.8277 125.455 27.9406 121.734 27.9406H119.007V44.3629C119.007 45.9208 119.116 47.0675 119.332 47.8032C119.548 48.5388 119.959 49.0581 120.565 49.361C121.214 49.6207 122.188 49.7505 123.486 49.7505ZM153.794 0.937982C155.612 0.937982 157.04 1.39235 158.078 2.3011C159.16 3.16657 159.701 4.37822 159.701 5.93607C159.701 7.49391 159.16 8.72721 158.078 9.63595C157.04 10.5014 155.612 10.9342 153.794 10.9342C151.977 10.9342 150.527 10.5014 149.445 9.63595C148.407 8.72721 147.887 7.49391 147.887 5.93607C147.887 4.37822 148.407 3.16657 149.445 2.3011C150.527 1.39235 151.977 0.937982 153.794 0.937982ZM158.857 45.2068C158.857 46.981 159.16 48.2143 159.766 48.9066C160.415 49.5557 161.497 49.8803 163.011 49.8803V51.2434C158.684 51.0703 155.806 50.9838 154.378 50.9838C153.037 50.9838 150.029 51.0703 145.356 51.2434V49.8803C146.914 49.8803 147.996 49.5557 148.601 48.9066C149.207 48.2143 149.51 46.981 149.51 45.2068V24.76C149.51 22.7695 149.207 21.3198 148.601 20.411C147.996 19.5023 146.914 19.0479 145.356 19.0479V17.6848C146.741 17.8146 148.082 17.8796 149.38 17.8796C153.232 17.8796 156.391 17.5766 158.857 16.9708V45.2068ZM186.861 16.7761C188.809 16.7761 190.28 17.3603 191.275 18.5287C192.271 19.697 192.768 21.1034 192.768 22.7478C192.768 24.3489 192.292 25.6688 191.34 26.7073C190.431 27.7026 189.22 28.2003 187.705 28.2003C186.234 28.2003 185.066 27.8325 184.2 27.0968C183.335 26.3179 182.902 25.301 182.902 24.046C182.902 21.9689 183.854 20.2812 185.758 18.983C185.585 18.9398 185.325 18.9181 184.979 18.9181C184.546 18.9181 184.2 18.9614 183.94 19.0479C182.296 19.3076 180.89 20.3029 179.721 22.0338C178.596 23.7647 178.034 25.539 178.034 27.3564V44.5577C178.034 46.5482 178.51 47.933 179.462 48.7119C180.457 49.4908 182.015 49.8803 184.135 49.8803V51.2434C183.529 51.2434 183.032 51.2218 182.642 51.1785C178.228 51.0487 175.286 50.9838 173.814 50.9838C172.646 50.9838 169.985 51.0487 165.83 51.1785C165.484 51.2218 165.052 51.2434 164.532 51.2434V49.8803C166.09 49.8803 167.172 49.5557 167.778 48.9066C168.384 48.2143 168.687 46.981 168.687 45.2068V24.76C168.687 22.7695 168.384 21.3198 167.778 20.411C167.172 19.5023 166.09 19.0479 164.532 19.0479V17.6848C165.917 17.8146 167.258 17.8796 168.557 17.8796C172.408 17.8796 175.567 17.5766 178.034 16.9708V23.0075C178.856 21.1467 180.046 19.6538 181.604 18.5287C183.161 17.3603 184.914 16.7761 186.861 16.7761ZM206.711 17.6848H214.37V18.983H206.711V45.2068C206.711 46.505 206.927 47.4353 207.36 47.9979C207.836 48.5172 208.571 48.7768 209.567 48.7768C211.428 48.7768 212.899 47.4786 213.981 44.8822L215.084 45.4664C213.44 49.9236 210.476 52.1522 206.191 52.1522C203.335 52.1522 201.172 51.4165 199.7 49.9452C198.792 49.0365 198.164 47.9113 197.818 46.5699C197.515 45.1851 197.364 43.3027 197.364 40.9227V18.983H191.911V17.6848H197.364V9.11667C200.955 9.11667 204.071 8.42429 206.711 7.03954V17.6848ZM228.233 22.8127C230.18 18.7883 233.707 16.7761 238.813 16.7761C242.188 16.7761 244.568 17.6199 245.953 19.3076C246.689 20.1298 247.208 21.2116 247.511 22.5531C247.857 23.8513 248.03 25.5822 248.03 27.7459V45.2068C248.03 46.981 248.333 48.2143 248.939 48.9066C249.545 49.5557 250.627 49.8803 252.184 49.8803V51.2434C247.684 51.0703 244.828 50.9838 243.616 50.9838C242.145 50.9838 239.332 51.0703 235.178 51.2434V49.8803C236.476 49.8803 237.385 49.5557 237.904 48.9066C238.423 48.2143 238.683 46.981 238.683 45.2068V25.0197C238.683 23.2455 238.38 21.904 237.774 20.9952C237.212 20.0865 236.173 19.6321 234.659 19.6321C232.841 19.6321 231.305 20.3461 230.05 21.7742C228.838 23.1589 228.233 24.9331 228.233 27.0968V45.2068C228.233 46.981 228.492 48.2143 229.011 48.9066C229.531 49.5557 230.439 49.8803 231.738 49.8803V51.2434C227.583 51.0703 224.9 50.9838 223.689 50.9838C222.218 50.9838 219.232 51.0703 214.731 51.2434V49.8803C216.246 49.8803 217.306 49.5557 217.912 48.9066C218.561 48.2143 218.885 46.981 218.885 45.2068V8.27284C218.885 6.28226 218.561 4.8326 217.912 3.92385C217.306 3.01511 216.246 2.56074 214.731 2.56074V1.19762C216.116 1.32744 217.457 1.39236 218.756 1.39236C222.52 1.39236 225.679 1.08944 228.233 0.483608V22.8127Z" fill="#7D277C"/>
</svg>
