<svg width="164" height="42" viewBox="0 0 164 42" fill="none" xmlns="http://www.w3.org/2000/svg">
<path d="M19.5395 6.89605C19.2453 7.36186 18.8776 7.45992 18.4853 7.55799C16.2543 8.21993 14.0724 8.85735 11.8659 9.54381C9.73298 10.2303 7.62458 11.0148 5.54069 11.9954C5.14843 12.1916 4.73165 12.4122 4.33939 12.6574C4.06971 12.829 3.94713 12.9516 3.8981 13.0987C3.87358 13.2213 3.8981 13.3438 3.94713 13.5155C4.04519 14.0548 4.16778 14.2264 4.56004 14.2264C4.68262 14.2264 4.85423 14.2264 5.05036 14.1774C5.17295 14.1529 5.27101 14.1284 5.41811 14.0793C7.30587 13.5645 9.24266 13.0251 11.1549 12.4858C11.2285 12.4613 11.3511 12.4122 11.4491 12.3632C11.4982 11.8974 11.8414 11.3335 11.1549 11.1619C13.484 10.2793 15.764 9.56833 18.0931 8.95542C18.0685 9.12703 18.0685 9.24961 18.044 9.34768C18.0195 9.47026 17.946 9.56833 17.7989 9.83801C15.6905 13.4174 13.6556 17.0458 11.7924 20.6987C11.5472 21.1646 11.302 21.3852 10.8117 21.4833C9.04653 21.8755 7.25683 22.4149 5.51617 23.1013C5.29553 23.1749 5.05036 23.273 4.82972 23.3955C4.63359 23.4936 4.51101 23.5917 4.48649 23.7388C4.46197 23.8123 4.48649 23.9104 4.53552 24.033C4.63359 24.2291 4.75617 24.4252 4.87875 24.5968C4.97682 24.7439 5.17295 24.8175 5.36908 24.8175C5.58972 24.8175 5.81037 24.7439 6.0065 24.5968C6.20263 24.4743 6.39876 24.3272 6.57038 24.2536C7.77168 23.8859 8.94846 23.5426 10.1252 23.1749C10.1743 23.1504 10.2478 23.1504 10.2969 23.1504H10.5175C10.4194 23.371 10.3704 23.5426 10.2723 23.7143C9.7575 24.842 9.21814 25.9452 8.75233 27.073C8.18845 28.3724 7.69813 29.6962 7.28135 30.9956L7.2078 31.2162C7.01167 32.0498 7.28135 32.4421 8.09039 32.7363C8.21297 32.7853 8.31104 32.8098 8.36007 32.8098C8.50717 32.8098 8.58072 32.7117 8.77685 32.4421C8.72781 32.4421 8.62975 32.4421 8.62975 32.4175C8.62975 32.295 8.65427 32.1234 8.60523 32.0498C8.43362 31.8782 8.4091 31.6575 8.45813 31.4614C8.50717 31.2653 8.60523 31.0937 8.67878 30.9221C9.65943 28.2498 10.8607 25.651 12.1601 23.0523C12.2827 22.7826 12.4543 22.6355 12.724 22.5865C13.2633 22.4884 13.8272 22.3659 14.3666 22.2678C16.0582 21.9736 17.7498 21.6304 19.3924 21.6304C19.466 21.6304 19.564 21.5568 19.6866 21.4833C19.6131 21.3607 19.5395 21.2626 19.515 21.14C19.515 21.091 19.515 21.042 19.5395 20.9684C19.5395 20.9439 19.564 20.8949 19.5885 20.8458C19.6621 20.7233 19.7111 20.6252 19.7356 20.5516C19.7847 20.331 19.6866 20.1839 19.3924 20.1349C19.2698 20.1104 19.1227 20.0858 19.0002 20.0858C18.8776 20.0858 18.7795 20.1104 18.706 20.1104C17.333 20.3065 15.9846 20.5026 14.6362 20.6987C14.195 20.7478 13.7537 20.8458 13.2879 20.9194C13.3369 20.7968 13.3614 20.6987 13.3859 20.6497C15.4453 16.6781 17.7008 12.78 19.9808 8.90639C20.2505 8.46509 20.5692 8.29348 21.0105 8.19541C24.0015 7.50896 26.968 6.9696 29.9344 6.55282C31.1112 6.40572 32.288 6.28314 33.4403 6.28314H33.9551C34.3964 6.30765 34.7642 6.35669 34.6906 6.92056C34.6661 6.9696 34.7151 7.01863 34.7396 7.04315C34.8132 7.11669 34.8867 7.21476 34.9848 7.21476H35.0093C35.1074 7.21476 35.3035 7.09218 35.328 6.99411C35.4016 6.79798 35.4506 6.62637 35.4996 6.45475C35.6713 5.81733 35.5732 5.30249 34.7887 5.10636C34.5925 5.05732 34.3719 5.00829 34.1512 5.00829C33.3667 5.00829 32.6067 5.00829 31.8222 5.08184C28.3654 5.40055 24.8841 6.03798 21.3537 6.84701C20.9615 6.94508 20.5692 7.09218 20.1769 7.09218C19.9563 7.09218 19.7356 7.04315 19.5395 6.89605ZM31.6769 21.9981C31.775 21.6058 31.6279 21.4587 31.3582 21.3362C31.2601 21.2871 31.1375 21.2626 31.0395 21.2626C30.7943 21.2626 30.5492 21.3607 30.304 21.4587C29.5195 21.7529 28.7349 21.9 27.9995 21.9246H27.4356C27.2395 21.9246 27.0433 21.9246 26.8717 21.9491C25.9891 21.9736 25.2291 22.3413 24.6162 23.1994C24.3465 23.5672 24.1014 23.9594 23.8562 24.3272C23.7826 24.4007 23.7091 24.4988 23.6355 24.5968C23.611 24.4497 23.611 24.3026 23.6601 24.1801C23.6601 24.1065 23.6846 24.0575 23.7091 23.9839C24.0523 22.9788 24.4201 21.9491 24.7633 20.9439C25.082 20.1104 25.4007 19.2768 25.6704 18.4678L25.7194 18.3207C25.7685 18.1245 25.7685 17.9529 25.744 17.8303C25.6704 17.6342 25.4498 17.4871 25.3027 17.34C25.2536 17.291 25.1801 17.2665 25.131 17.2665C24.9594 17.2665 24.7388 17.389 24.5672 17.389H24.4936C24.2975 17.8548 24.1259 18.2961 23.9788 18.7129C23.611 19.6445 23.2433 20.5516 22.9246 21.4833C22.5813 22.4149 22.3117 23.322 22.0175 24.2536C21.7478 25.1852 21.4781 26.1169 21.1839 27.073L21.0613 27.5143C20.8652 28.2498 20.7671 28.9853 20.62 29.7208C20.571 29.9414 20.522 30.2111 20.522 30.4317C20.4975 30.7014 20.4975 30.9711 20.4975 31.2653C20.571 31.3388 20.6936 31.4369 20.8407 31.5104C20.9633 31.6085 21.1349 31.6575 21.282 31.6575C21.6742 31.6575 22.091 31.3879 22.3117 30.9221C22.4342 30.6279 22.5078 30.3582 22.6549 30.064C23.2188 28.7891 23.7581 27.4898 24.4201 26.2149C24.9104 25.2833 25.5233 24.4007 26.1362 23.5181C26.4794 22.9788 26.9453 22.7336 27.5336 22.7336H27.9259C28.3672 22.7336 28.8575 22.6846 29.3479 22.6355C30.1079 22.562 30.9169 22.3659 31.6769 21.9981ZM34.0256 24.842C34.1727 24.891 34.2462 24.891 34.2953 24.9401C34.7366 25.2097 35.0307 25.3568 35.3004 25.3568C35.6191 25.3568 35.8888 25.1117 36.3301 24.6459C37.3843 23.5917 38.1688 22.3659 38.7572 21.042C38.8308 20.8949 38.8798 20.7478 38.9043 20.6007C39.0514 20.0613 38.9534 19.571 38.6101 19.1052C38.3405 18.7374 37.9727 18.5168 37.5559 18.5168C37.3843 18.5168 37.1882 18.5413 36.9921 18.6394C36.5508 18.8355 36.183 19.1052 35.8153 19.3994C35.1288 20.0123 34.5895 20.7723 34.1236 21.5813C33.143 23.2484 32.481 25.0136 32.0152 26.8523C31.8927 27.3672 31.7456 27.9065 31.6965 28.4214C31.6475 28.9117 31.6965 29.4511 32.0888 29.7453C32.6527 30.162 33.143 30.4317 33.6823 30.4317C34.0501 30.4317 34.4669 30.3091 34.9327 30.0395C35.6191 29.6472 36.2811 29.2304 36.894 28.7401C38.7817 27.2936 40.4734 25.5775 42.0915 23.8123C42.1405 23.7633 42.214 23.7143 42.2631 23.6407C42.2876 23.5917 42.3121 23.5426 42.3366 23.4936C42.3611 23.4201 42.3121 23.322 42.2385 23.2484C42.165 23.1994 42.0915 23.1504 42.0424 23.0768C41.8953 22.8807 41.6992 22.7581 41.4785 22.7581C41.3069 22.7581 41.1598 22.8071 41.0127 22.9297C40.8166 23.0768 40.6695 23.2484 40.4979 23.4201C39.1495 24.891 37.7766 26.2885 36.2075 27.5143C35.472 28.0782 34.712 28.593 33.9275 29.0833C33.7069 29.2549 33.4372 29.3285 33.1185 29.4511C32.9959 28.6175 33.094 27.8575 33.2901 27.0975C33.4862 26.3375 33.7559 25.5775 34.0256 24.842ZM35.0062 23.7388H34.614C34.9327 22.4639 36.6979 20.2329 37.703 19.9142C37.6785 20.0123 37.6785 20.0858 37.654 20.1839L37.6295 20.2329C37.0901 21.4342 36.2811 22.513 35.4475 23.5426C35.3004 23.7143 35.1533 23.7388 35.0062 23.7388ZM42.8498 24.842C42.9969 24.891 43.0705 24.891 43.1195 24.9401C43.5608 25.2097 43.855 25.3568 44.1247 25.3568C44.4434 25.3568 44.7131 25.1117 45.1543 24.6459C46.2086 23.5917 46.9931 22.3659 47.5815 21.042C47.655 20.8949 47.704 20.7478 47.7286 20.6007C47.8757 20.0613 47.7776 19.571 47.4344 19.1052C47.1647 18.7374 46.7969 18.5168 46.3802 18.5168C46.2086 18.5168 46.0124 18.5413 45.8163 18.6394C45.375 18.8355 45.0073 19.1052 44.6395 19.3994C43.953 20.0123 43.4137 20.7723 42.9479 21.5813C41.9672 23.2484 41.3053 25.0136 40.8395 26.8523C40.7169 27.3672 40.5698 27.9065 40.5208 28.4214C40.4717 28.9117 40.5208 29.4511 40.913 29.7453C41.4769 30.162 41.9672 30.4317 42.5066 30.4317C42.8743 30.4317 43.2911 30.3091 43.7569 30.0395C44.4434 29.6472 45.1053 29.2304 45.7182 28.7401C47.606 27.2936 49.2976 25.5775 50.9157 23.8123C50.9647 23.7633 51.0383 23.7143 51.0873 23.6407C51.1118 23.5917 51.1363 23.5426 51.1609 23.4936C51.1854 23.4201 51.1363 23.322 51.0628 23.2484C50.9892 23.1994 50.9157 23.1504 50.8667 23.0768C50.7196 22.8807 50.5234 22.7581 50.3028 22.7581C50.1312 22.7581 49.9841 22.8071 49.837 22.9297C49.6408 23.0768 49.4937 23.2484 49.3221 23.4201C47.9737 24.891 46.6008 26.2885 45.0318 27.5143C44.2963 28.0782 43.5363 28.593 42.7517 29.0833C42.5311 29.2549 42.2614 29.3285 41.9427 29.4511C41.8201 28.6175 41.9182 27.8575 42.1143 27.0975C42.3105 26.3375 42.5801 25.5775 42.8498 24.842ZM43.8305 23.7388H43.4382C43.7569 22.4639 45.5221 20.2329 46.5273 19.9142C46.5027 20.0123 46.5027 20.0858 46.4782 20.1839L46.4537 20.2329C45.9144 21.4342 45.1053 22.513 44.2718 23.5426C44.1247 23.7143 43.9776 23.7388 43.8305 23.7388ZM73.9518 10.598C73.7312 10.9167 73.5841 11.1129 73.437 11.309C71.5247 14.2264 69.8821 17.2174 68.5827 20.3065C68.3866 20.7968 68.0679 21.14 67.5776 21.4342C65.1259 22.9542 62.7479 24.6459 60.5659 26.5827C59.5852 27.4407 58.6781 28.3478 57.8936 29.353C57.3788 29.9904 56.9375 30.6769 56.6923 31.4124C56.6188 31.5595 56.5697 31.7311 56.5452 31.8782C56.3491 32.5892 56.4472 33.2266 56.913 33.7169C57.3052 34.0847 57.771 34.4279 58.2614 34.6731C58.8743 34.9672 59.5607 35.0898 60.2717 35.0898C60.8356 35.0898 61.4485 35.0163 62.0369 34.9182C63.9982 34.575 65.9105 33.864 67.7982 32.9324C71.4021 31.1672 74.6383 28.7891 77.6783 26.0678C80.0074 23.9594 82.1893 21.6794 83.93 19.1297C85.0577 17.5361 85.9893 15.8445 86.4306 14.0793L86.5532 13.6135C87.1171 10.7206 86.4551 8.48961 84.1996 7.06766C82.8758 6.23411 81.3067 5.79281 79.5906 5.69475C79.1983 5.67023 78.7815 5.67023 78.3893 5.67023C74.7609 5.67023 71.157 6.55282 67.5285 8.29348C65.7388 9.15155 64.0717 10.2303 62.5762 11.6277C61.7672 12.3632 61.0807 13.1722 60.5659 14.1284C60.3453 14.5697 60.1736 14.9864 60.0756 15.4032C59.8304 16.3103 59.953 17.1684 60.4678 17.9039C60.8111 18.3942 61.3014 18.811 61.7917 19.1787C62.2575 19.5465 62.7969 19.6936 63.3853 19.6936C64.0717 19.6936 64.8072 19.4974 65.5427 19.2278C65.6163 19.2032 65.6408 19.1542 65.7143 19.0807C65.6408 18.7865 65.5672 18.4923 65.4937 18.2226C65.224 18.1981 64.9788 18.149 64.7337 18.149H64.6111C64.3169 18.1736 63.9982 18.3207 63.6795 18.3697C63.3853 18.4187 63.0666 18.4678 62.7724 18.4678C61.7182 18.4678 60.9827 17.5852 61.1053 16.58C61.1298 16.4329 61.1543 16.2858 61.2033 16.1387C61.3259 15.5993 61.5956 15.0845 61.9143 14.5942C62.4291 13.7606 63.0911 13.0496 63.8511 12.4122C65.1014 11.2845 66.4989 10.3774 67.9453 9.64188C71.5492 7.85218 75.1531 6.92056 78.7325 6.92056C79.0022 6.92056 79.2719 6.94508 79.5415 6.94508C81.2332 7.01863 82.7532 7.38637 84.1016 8.1709C85.1803 8.80832 85.7197 9.81349 85.7442 11.1619C85.7442 11.7748 85.6706 12.3877 85.499 13.0251C85.45 13.1967 85.4255 13.3438 85.3764 13.5155C84.8126 15.2806 83.8319 16.9232 82.6796 18.5168C80.0809 22.0471 76.8938 25.0872 73.3879 27.7594C71.0589 29.5491 68.5827 31.1427 65.9595 32.295C64.2188 33.0795 62.4782 33.6679 60.6885 33.8885C60.3207 33.9376 59.953 33.9866 59.5852 33.9866C59.1685 33.9866 58.7517 33.9376 58.3839 33.7659C57.7956 33.5208 57.5749 33.2511 57.722 32.6627C57.7465 32.5646 57.771 32.4666 57.8201 32.3685C57.9917 31.8537 58.2614 31.3633 58.5556 30.8975C59.193 29.8924 60.0265 29.0343 60.8846 28.2253C62.7724 26.4356 64.8563 24.9156 66.9647 23.4936C67.0872 23.4201 67.1853 23.371 67.406 23.2484C67.3079 23.5426 67.2343 23.7388 67.1853 23.9349C66.9892 24.5723 66.793 25.2097 66.6214 25.8227C66.4989 26.3375 66.4008 26.8278 66.3272 27.3182C66.2292 28.2007 66.646 28.7156 67.2589 29.1078H67.2834C67.3569 29.1078 67.455 29.0833 67.5776 29.0343C67.5776 28.8136 67.6511 28.5685 67.5776 28.4459C67.4305 28.2253 67.4305 27.9801 67.4795 27.7104C67.5531 27.3427 67.6266 26.9504 67.7247 26.5827C68.0924 25.1362 68.6073 23.7388 69.1711 22.3168C69.2692 22.0717 69.4408 21.9246 69.6615 21.802C72.775 19.9633 75.9131 18.3207 79.1738 16.9968C80.7183 16.3594 82.2383 15.8445 83.8074 15.7464C83.8809 15.7464 83.979 15.6729 84.1016 15.6239C83.979 15.3051 83.8809 15.011 83.8074 14.7658C83.4887 14.6677 83.17 14.6187 82.8512 14.6187C82.2874 14.6187 81.7235 14.7413 81.1351 14.9129C80.1299 15.2071 79.1493 15.5258 78.1931 15.9181C75.7415 16.8987 73.3634 18.1245 71.0099 19.4239C70.8137 19.522 70.6176 19.62 70.2989 19.7916C70.446 19.522 70.495 19.3994 70.544 19.2768L74.5402 12.3632C74.6383 12.2161 74.7118 12.069 74.7854 11.9219L74.8099 11.7993C74.8834 11.5542 74.8344 11.2109 74.6628 11.1864C74.4667 11.1619 74.3196 11.1374 74.3441 10.8677C74.3686 10.7696 74.1234 10.7206 73.9518 10.598ZM86.1536 24.842C86.3007 24.891 86.3742 24.891 86.4232 24.9401C86.8645 25.2097 87.1587 25.3568 87.4284 25.3568C87.7471 25.3568 88.0168 25.1117 88.4581 24.6459C89.5123 23.5917 90.2968 22.3659 90.8852 21.042C90.9588 20.8949 91.0078 20.7478 91.0323 20.6007C91.1794 20.0613 91.0813 19.571 90.7381 19.1052C90.4684 18.7374 90.1007 18.5168 89.6839 18.5168C89.5123 18.5168 89.3162 18.5413 89.12 18.6394C88.6787 18.8355 88.311 19.1052 87.9433 19.3994C87.2568 20.0123 86.7174 20.7723 86.2516 21.5813C85.271 23.2484 84.609 25.0136 84.1432 26.8523C84.0206 27.3672 83.8735 27.9065 83.8245 28.4214C83.7755 28.9117 83.8245 29.4511 84.2168 29.7453C84.7806 30.162 85.271 30.4317 85.8103 30.4317C86.1781 30.4317 86.5949 30.3091 87.0607 30.0395C87.7471 29.6472 88.4091 29.2304 89.022 28.7401C90.9097 27.2936 92.6014 25.5775 94.2194 23.8123C94.2685 23.7633 94.342 23.7143 94.391 23.6407C94.4156 23.5917 94.4401 23.5426 94.4646 23.4936C94.4891 23.4201 94.4401 23.322 94.3665 23.2484C94.293 23.1994 94.2194 23.1504 94.1704 23.0768C94.0233 22.8807 93.8272 22.7581 93.6065 22.7581C93.4349 22.7581 93.2878 22.8071 93.1407 22.9297C92.9446 23.0768 92.7975 23.2484 92.6259 23.4201C91.2775 24.891 89.9046 26.2885 88.3355 27.5143C87.6 28.0782 86.84 28.593 86.0555 29.0833C85.8348 29.2549 85.5652 29.3285 85.2465 29.4511C85.1239 28.6175 85.2219 27.8575 85.4181 27.0975C85.6142 26.3375 85.8839 25.5775 86.1536 24.842ZM87.1342 23.7388H86.742C87.0607 22.4639 88.8258 20.2329 89.831 19.9142C89.8065 20.0123 89.8065 20.0858 89.782 20.1839L89.7575 20.2329C89.2181 21.4342 88.4091 22.513 87.5755 23.5426C87.4284 23.7143 87.2813 23.7388 87.1342 23.7388ZM94.6591 30.113C94.5855 29.7698 94.463 29.4756 94.512 29.1569C94.5365 28.3233 94.5855 27.4898 94.7572 26.6562C94.8307 26.3375 94.9043 26.0188 94.9778 25.7001C95.5172 23.5672 96.3017 21.4833 97.1843 19.3994C98.5817 16.1632 100.249 12.9761 102.039 9.83801C102.431 9.15155 102.799 8.46509 103.166 7.77863C103.215 7.65605 103.264 7.55799 103.289 7.45992C103.362 7.14121 103.313 6.87153 103.166 6.62637C102.995 6.3812 102.774 6.23411 102.553 6.23411C102.308 6.23411 102.014 6.40572 101.72 6.72443C100.911 7.63154 100.273 8.61219 99.734 9.61736C99.6849 9.69091 99.6604 9.78897 99.6359 9.86252C99.5869 10.1077 99.6359 10.3528 99.734 10.4999C99.8566 10.6225 99.8566 10.7451 99.832 10.8677C99.8075 10.9412 99.7585 11.0393 99.7095 11.1374C97.9933 14.2509 96.4733 17.389 95.223 20.6007C94.5365 22.2923 93.8746 23.9594 93.4578 25.7001L93.3842 25.9452C93.1391 27.073 92.8939 28.2007 93.041 29.2795C93.1881 30.3582 94.0217 30.9956 95.0759 30.9956C95.5172 30.9956 96.0075 30.873 96.4978 30.6279C97.0372 30.3582 97.5765 29.9904 98.0914 29.6227C100.396 27.9311 102.504 26.0433 104.466 24.0084C104.637 23.8368 104.735 23.6652 104.882 23.4691C104.809 23.3955 104.784 23.3465 104.735 23.2975C104.515 23.0523 104.269 22.9297 104.024 22.9297C103.73 22.9297 103.387 23.1259 103.044 23.4691C101.744 24.8665 100.347 26.1414 98.8759 27.3427C97.9443 28.1027 96.9881 28.7891 96.032 29.5001C95.6397 29.7698 95.223 30.0149 94.6591 30.113ZM93.2617 27.3427L93.3597 26.9994H93.3842L93.3107 27.3182C93.3107 27.3427 93.2862 27.3427 93.2862 27.3672L93.2617 27.3427ZM105.09 28.1762C105.237 27.7349 105.286 27.3917 105.433 27.073C105.923 25.9452 106.463 24.793 106.977 23.6652C107.321 22.9542 107.688 22.2678 108.056 21.5813C108.081 21.5078 108.105 21.4097 108.13 21.3362C108.228 20.9929 108.105 20.6987 107.934 20.4536C107.787 20.2329 107.59 20.1104 107.37 20.1104C107.149 20.1104 106.879 20.2574 106.61 20.5271C105.776 21.4097 104.992 22.3659 104.33 23.3955C104.183 23.6407 104.036 23.9349 103.888 24.2046L103.864 24.2536C103.815 24.4252 103.864 24.5968 104.011 24.5968H104.158C104.281 24.5968 104.232 24.6949 104.256 24.7685C104.281 24.8665 104.33 25.0136 104.379 25.0381C104.648 25.0626 104.673 25.2097 104.624 25.3568C104.599 25.4549 104.575 25.5285 104.526 25.6265C104.379 26.0678 104.207 26.5091 104.06 26.9749C104.011 27.073 103.986 27.1711 103.962 27.2691C103.79 28.0046 103.888 28.6175 104.428 29.0833C104.796 29.3775 105.016 29.5246 105.286 29.5246C105.506 29.5246 105.776 29.4266 106.193 29.2304C106.61 29.0098 107.002 28.7401 107.37 28.4459C109.233 26.9749 110.9 25.2588 112.42 23.4201C112.518 23.273 112.665 23.0768 112.763 22.9052C112.788 22.8317 112.812 22.7826 112.837 22.7336C112.91 22.4639 112.763 22.2678 112.592 22.0962C112.518 22.0226 112.42 21.9246 112.322 21.9246C112.224 21.9246 112.15 21.9736 112.028 22.0962C111.979 21.9736 111.93 21.8755 111.832 21.7284C111.538 22.1207 111.268 22.4884 110.998 22.8071C109.772 24.2536 108.473 25.5775 107.027 26.8033C106.634 27.1711 106.168 27.4898 105.727 27.8085C105.58 27.9311 105.384 28.0291 105.09 28.1762ZM104.33 27.4407L104.452 26.9749L104.354 27.4407H104.33ZM109.11 15.0355C108.963 15.2316 108.792 15.4032 108.694 15.6239C108.301 16.4084 107.958 17.2174 107.566 18.0265C107.492 18.149 107.468 18.2471 107.443 18.3452C107.37 18.5903 107.492 18.6884 107.787 18.6884H107.885C108.081 18.9336 108.277 19.1297 108.497 19.3503C109.012 18.3697 109.478 17.4626 109.968 16.58C110.042 16.4574 110.091 16.3348 110.116 16.2368C110.165 15.9916 110.14 15.771 110.018 15.5748C109.87 15.3787 109.821 15.3297 109.11 15.0355ZM118.478 25.2833C118.92 25.4059 119.287 25.553 119.68 25.651C119.851 25.6756 120.023 25.7001 120.194 25.7001C121.322 25.7001 122.474 25.0136 123.185 24.2536C123.283 24.1555 123.332 24.082 123.357 23.9839C123.381 23.8859 123.332 23.7878 123.234 23.7143C123.087 23.6407 123.038 23.4201 122.842 23.4201C122.793 23.4201 122.744 23.4201 122.646 23.4691C122.597 23.4691 122.548 23.4446 122.523 23.4201C122.45 23.371 122.352 23.273 122.278 23.273H122.254C122.107 23.322 121.984 23.4446 121.837 23.5426C121.445 23.8368 121.028 24.1801 120.611 24.4252C120.243 24.6214 119.876 24.7194 119.508 24.7194H119.287C118.944 24.6704 118.846 24.5968 118.92 24.3517C118.92 24.2781 118.944 24.2046 118.993 24.131C119.14 23.7388 119.312 23.3465 119.434 22.9542C119.704 21.9736 119.974 20.9929 120.219 20.0123C120.341 19.522 120.17 19.1787 119.827 18.9091C119.606 18.7374 119.385 18.6394 119.189 18.6394C118.846 18.6394 118.503 18.8845 118.209 19.3503C117.792 20.0613 117.473 20.7723 117.277 21.4833C117.13 22.1207 117.081 22.7581 117.179 23.3955C117.228 23.7143 117.228 24.0084 117.154 24.3026C117.081 24.5723 116.958 24.842 116.811 25.1117C116.566 25.5039 116.37 25.9207 116.1 26.2885C115.61 26.9504 115.095 27.5878 114.556 28.2007C114.286 28.5195 113.918 28.7891 113.428 28.9853C113.354 28.6175 113.232 28.2988 113.232 27.9801C113.281 26.9749 113.33 25.9943 113.428 24.9891C113.452 24.5723 113.501 24.1555 113.599 23.7388C113.648 23.5672 113.698 23.3955 113.771 23.2484C113.894 22.9297 113.992 22.6355 114.065 22.3413C114.139 22.0471 114.188 21.7529 114.237 21.4587C114.261 21.2136 114.286 20.9684 114.237 20.7723C114.163 20.6007 113.967 20.3555 113.869 20.3555H113.845C113.796 20.38 113.747 20.38 113.698 20.38C113.501 20.38 113.452 20.1839 113.305 20.1839H113.281C113.183 20.2084 113.036 20.3065 112.938 20.4045C112.888 20.4291 112.864 20.5026 112.864 20.5516L112.594 21.6058C112.202 23.1259 111.932 24.6459 111.81 26.1169C111.761 26.8523 111.81 27.5633 111.883 28.2498C111.908 28.7891 112.153 29.2549 112.643 29.5001C112.987 29.6472 113.33 29.7698 113.698 29.8924C113.82 29.9414 113.943 29.9659 114.065 29.9659C114.384 29.9659 114.703 29.8433 114.997 29.6227C115.438 29.304 115.904 28.9362 116.296 28.5195C117.081 27.7104 117.669 26.7543 118.184 25.7981C118.282 25.6265 118.38 25.4549 118.478 25.2833ZM123.773 24.842C123.92 24.891 123.994 24.891 124.043 24.9401C124.484 25.2097 124.778 25.3568 125.048 25.3568C125.366 25.3568 125.636 25.1117 126.077 24.6459C127.132 23.5917 127.916 22.3659 128.505 21.042C128.578 20.8949 128.627 20.7478 128.652 20.6007C128.799 20.0613 128.701 19.571 128.357 19.1052C128.088 18.7374 127.72 18.5168 127.303 18.5168C127.132 18.5168 126.935 18.5413 126.739 18.6394C126.298 18.8355 125.93 19.1052 125.563 19.3994C124.876 20.0123 124.337 20.7723 123.871 21.5813C122.89 23.2484 122.228 25.0136 121.763 26.8523C121.64 27.3672 121.493 27.9065 121.444 28.4214C121.395 28.9117 121.444 29.4511 121.836 29.7453C122.4 30.162 122.89 30.4317 123.43 30.4317C123.797 30.4317 124.214 30.3091 124.68 30.0395C125.366 29.6472 126.028 29.2304 126.641 28.7401C128.529 27.2936 130.221 25.5775 131.839 23.8123C131.888 23.7633 131.961 23.7143 132.01 23.6407C132.035 23.5917 132.059 23.5426 132.084 23.4936C132.108 23.4201 132.059 23.322 131.986 23.2484C131.912 23.1994 131.839 23.1504 131.79 23.0768C131.643 22.8807 131.446 22.7581 131.226 22.7581C131.054 22.7581 130.907 22.8071 130.76 22.9297C130.564 23.0768 130.417 23.2484 130.245 23.4201C128.897 24.891 127.524 26.2885 125.955 27.5143C125.219 28.0782 124.459 28.593 123.675 29.0833C123.454 29.2549 123.184 29.3285 122.866 29.4511C122.743 28.6175 122.841 27.8575 123.037 27.0975C123.234 26.3375 123.503 25.5775 123.773 24.842ZM124.754 23.7388H124.361C124.68 22.4639 126.445 20.2329 127.45 19.9142C127.426 20.0123 127.426 20.0858 127.401 20.1839L127.377 20.2329C126.837 21.4342 126.028 22.513 125.195 23.5426C125.048 23.7143 124.901 23.7388 124.754 23.7388ZM141.251 21.9981C141.349 21.6058 141.202 21.4587 140.933 21.3362C140.835 21.2871 140.712 21.2626 140.614 21.2626C140.369 21.2626 140.124 21.3607 139.878 21.4587C139.094 21.7529 138.309 21.9 137.574 21.9246H137.01C136.814 21.9246 136.618 21.9246 136.446 21.9491C135.564 21.9736 134.804 22.3413 134.191 23.1994C133.921 23.5672 133.676 23.9594 133.431 24.3272C133.357 24.4007 133.284 24.4988 133.21 24.5968C133.185 24.4497 133.185 24.3026 133.235 24.1801C133.235 24.1065 133.259 24.0575 133.284 23.9839C133.627 22.9788 133.995 21.9491 134.338 20.9439C134.656 20.1104 134.975 19.2768 135.245 18.4678L135.294 18.3207C135.343 18.1245 135.343 17.9529 135.318 17.8303C135.245 17.6342 135.024 17.4871 134.877 17.34C134.828 17.291 134.755 17.2665 134.706 17.2665C134.534 17.2665 134.313 17.389 134.142 17.389H134.068C133.872 17.8548 133.7 18.2961 133.553 18.7129C133.185 19.6445 132.818 20.5516 132.499 21.4833C132.156 22.4149 131.886 23.322 131.592 24.2536C131.322 25.1852 131.053 26.1169 130.758 27.073L130.636 27.5143C130.44 28.2498 130.342 28.9853 130.195 29.7208C130.145 29.9414 130.096 30.2111 130.096 30.4317C130.072 30.7014 130.072 30.9711 130.072 31.2653C130.145 31.3388 130.268 31.4369 130.415 31.5104C130.538 31.6085 130.709 31.6575 130.856 31.6575C131.249 31.6575 131.665 31.3879 131.886 30.9221C132.009 30.6279 132.082 30.3582 132.229 30.064C132.793 28.7891 133.333 27.4898 133.995 26.2149C134.485 25.2833 135.098 24.4007 135.711 23.5181C136.054 22.9788 136.52 22.7336 137.108 22.7336H137.5C137.942 22.7336 138.432 22.6846 138.922 22.6355C139.682 22.562 140.491 22.3659 141.251 21.9981ZM144.728 23.1749C144.801 23.1013 144.899 23.0278 144.924 22.9542L145.218 21.7529C145.316 21.3362 145.414 20.9439 145.488 20.5516C145.586 20.1104 145.341 19.7916 144.973 19.62C144.826 19.5465 144.703 19.522 144.581 19.522C144.286 19.522 144.041 19.7181 143.87 20.1104C143.649 20.5762 143.453 21.0665 143.281 21.5568C143.208 21.802 143.134 22.0471 143.061 22.2923C142.84 23.2239 142.717 24.131 142.717 25.0381C142.766 25.4059 142.816 25.7736 143.11 26.0188C143.379 26.2149 143.698 26.411 143.968 26.6072C144.115 26.7052 144.262 26.7298 144.409 26.7298C144.581 26.7298 144.777 26.6807 144.948 26.5581C145.365 26.2885 145.757 26.0433 146.076 25.7001C146.763 24.9646 147.449 24.2046 148.087 23.4201C148.748 22.5865 149.337 21.6794 149.974 20.8213C150.416 20.2574 150.881 19.6936 151.323 19.1542C151.396 19.0561 151.543 18.9826 151.69 18.86C151.69 19.1052 151.69 19.3013 151.666 19.4729C151.617 20.0858 151.494 20.6742 151.347 21.2871C151.102 22.2678 150.759 23.273 150.391 24.2536C150.244 24.6459 150.048 24.9156 149.68 25.1607C146.468 27.3672 143.698 30.0395 141.295 33.104C140.535 34.1337 139.825 35.1879 139.285 36.3156C139.015 36.806 138.819 37.2963 138.697 37.8111C138.648 38.0073 138.599 38.2279 138.574 38.4486C138.501 39.0615 138.599 39.6254 139.138 39.895C139.677 40.1402 140.217 40.2628 140.781 40.2628C141.59 40.2628 142.423 39.9931 143.33 39.3802C144.213 38.7918 144.948 38.0318 145.635 37.1982C146.591 36.0214 147.376 34.7466 148.062 33.4472C149.312 31.0937 150.318 28.7156 151.2 26.2885C151.347 25.8717 151.568 25.602 151.96 25.3814C152.696 24.9891 153.431 24.5478 154.167 24.1555C154.632 23.9349 155.098 23.7388 155.589 23.7388H155.687L155.736 23.4936C155.76 23.4201 155.76 23.371 155.76 23.322C155.662 22.9297 155.417 22.6846 155 22.611C154.927 22.611 154.829 22.5865 154.755 22.5865C154.265 22.5865 153.823 22.7826 153.333 23.0033C152.965 23.1749 152.622 23.3465 152.156 23.5672L152.328 22.9297C152.426 22.562 152.524 22.2188 152.622 21.851C152.818 21.091 152.965 20.3065 152.99 19.5465C153.014 18.9581 152.965 18.3942 152.671 17.9284C152.401 17.5607 152.058 17.389 151.69 17.389C151.274 17.389 150.808 17.6097 150.367 18.051C149.827 18.6394 149.337 19.2768 148.871 19.9142C148.209 20.7968 147.596 21.7039 146.934 22.562C146.272 23.371 145.561 24.131 144.85 24.891C144.654 25.1117 144.36 25.2588 144.115 25.4549C144.017 24.9891 144.09 24.0575 144.237 23.5181C144.286 23.322 144.336 23.1994 144.385 23.1259C144.507 23.1504 144.63 23.1504 144.728 23.1749ZM149.165 27.3672C148.945 27.9065 148.724 28.3969 148.552 28.8627C147.694 30.7995 146.787 32.7363 145.635 34.5995C145.022 35.5802 144.36 36.5608 143.551 37.4189C142.889 38.1299 142.203 38.7673 141.32 39.2086C141.001 39.3802 140.732 39.4783 140.535 39.4783C140.217 39.4783 140.119 39.2086 140.143 38.6447C140.168 38.4241 140.192 38.2279 140.241 38.0073C140.339 37.615 140.511 37.2228 140.707 36.855C141.246 35.8989 141.81 34.9427 142.448 34.0356C144.139 31.6575 146.223 29.5737 148.552 27.7104C148.675 27.6123 148.797 27.5143 148.92 27.4407C148.945 27.4162 148.994 27.4162 149.165 27.3672ZM152.034 20.0613L151.936 20.4291L152.034 20.0613ZM155.322 29.9659L155.396 29.7208C155.641 28.7646 155.812 27.8085 156.058 26.8278C156.107 26.6072 156.18 26.362 156.229 26.1169C157.161 22.8807 158.117 19.6445 159.147 16.4084C159.809 14.2509 160.642 12.0935 161.598 9.98511C162.089 8.95542 162.579 7.92573 163.094 6.89605C163.118 6.8225 163.143 6.74895 163.167 6.6754C163.241 6.43024 163.192 6.20959 163.045 6.03798C162.947 5.89088 162.824 5.79281 162.702 5.67023C162.579 5.54765 162.456 5.4741 162.334 5.4741C162.162 5.4741 162.015 5.57217 161.868 5.81733C161.451 6.43024 161.059 7.06766 160.716 7.70509C160.691 7.75412 160.667 7.80315 160.642 7.85218C160.618 7.97477 160.618 8.07283 160.642 8.12186C160.765 8.21993 160.765 8.31799 160.74 8.41606C160.716 8.48961 160.691 8.58767 160.642 8.66122C159.662 10.7696 158.853 12.9025 158.117 15.0355C156.916 18.6639 155.812 22.2923 154.881 25.9207L154.734 26.5091C154.538 27.3427 154.366 28.1517 154.194 28.9607C154.096 29.304 154.292 29.6227 154.587 29.6962C154.636 29.6962 154.709 29.6227 154.783 29.5737C154.807 29.7943 154.881 29.9904 155.175 29.9904C155.224 29.9904 155.273 29.9659 155.322 29.9659ZM155.175 31.2408C155.052 31.2898 154.954 31.3388 154.856 31.3388C154.734 31.3388 154.636 31.2653 154.611 31.0446C154.636 31.0201 154.513 30.9711 154.415 30.9711C154.366 30.9711 154.342 30.9711 154.342 30.9956C154.047 31.2408 153.778 31.5104 153.557 31.8046C153.459 31.8782 153.41 31.9763 153.385 32.0743C153.361 32.1724 153.385 32.2705 153.483 32.344C153.827 32.5646 154.17 32.7853 154.538 32.9324C154.611 32.9569 154.685 32.9814 154.734 32.9814C154.905 32.9814 155.052 32.8588 155.151 32.6137C155.224 32.4421 155.298 32.2705 155.347 32.0988C155.42 31.8292 155.396 31.5104 155.175 31.2408Z" fill="black"/>
<g clip-path="url(#clip0)">
<path d="M2.01354 40.1496C8.57308 40.1496 14.6953 40.1496 20.8613 40.1496C32.5227 40.0189 44.0529 39.8621 55.452 39.6791C64.6791 39.5353 73.8624 39.2478 83.0895 39.1302C92.3166 39.0126 100.582 39.0126 109.022 39.0126C118.336 39.0126 127.651 39.0126 136.965 39.1302C143.7 39.2217 150.434 39.4831 157.125 39.6922C157.65 39.6922 158.612 39.9927 158.524 40.0712C158.131 40.424 157.519 40.999 156.819 41.0121C153.907 41.0766 150.984 41.0766 148.073 41.0121C147.767 41.0121 147.373 40.8945 147.154 40.803C146.814 40.6451 146.363 40.511 145.834 40.4098C145.304 40.3086 144.708 40.2428 144.085 40.2167C143.462 40.1907 142.828 40.2051 142.226 40.2589C141.624 40.3127 141.067 40.4047 140.595 40.5285C139.713 40.6887 138.697 40.7703 137.665 40.7638C133.773 40.7638 129.837 40.7638 125.858 40.8683L129.575 40.999V41.1297L125.202 41.2996V41.4172C126.288 41.3981 127.368 41.3588 128.438 41.2996C132.211 41.0125 136.165 41.0125 139.939 41.2996C144.14 41.4743 148.39 41.5181 152.621 41.4303C153.364 41.4303 154.107 41.4303 154.851 41.4303C157.125 41.4303 157.65 41.6002 157.081 42.2536C155.9 43.6519 155.9 43.6911 151.09 43.678C148.644 43.7961 146.136 43.6674 143.962 43.3121C142.91 43.168 141.74 43.1181 140.595 43.1684C123.103 43.1684 106.048 43.0246 88.7307 43.4036C75.6116 43.6911 62.4925 43.6519 49.3735 43.7826C41.6332 43.861 33.9367 43.9786 26.1964 44.0701C19.4619 44.1616 12.6837 44.2661 5.90553 44.3314C2.45084 44.3314 2.01356 44.2138 2.10102 43.1684C2.18848 42.1229 1.96981 41.0774 2.01354 40.1496Z" fill="black"/>
</g>
<defs>
<clipPath id="clip0">
<rect width="156.729" height="5.2535" fill="white" transform="translate(1.7511 36.3204)"/>
</clipPath>
</defs>
</svg>
