<svg width="127" height="34" viewBox="0 0 127 34" fill="none" xmlns="http://www.w3.org/2000/svg">
<path d="M2.38 27.68C2.62 27.92 2.82 28.14 3.02 28.38C3.1 28.48 3.22 28.52 3.36 28.52C3.44 28.52 3.52 28.5 3.62 28.48C3.98 28.4 4.34 28.32 4.68 28.18C7.26 27.26 9.76 26.1 12.22 24.78C13 24.36 13.76 23.88 14.5 23.38C14.88 23.14 15.24 22.84 15.56 22.52C15.84 22.24 16.02 21.98 16.08 21.7C16.16 21.42 16.12 21.14 15.98 20.84C15.76 20.36 15.32 20.14 14.82 19.98C14.12 19.74 13.34 19.66 12.54 19.62C10.66 19.52 8.78 19.44 6.92 19.32C5.92 19.26 4.94 19.08 4.04 18.72C3.64 18.56 3.28 18.32 2.96 18.06C2.66 17.84 2.62 17.48 2.72 17.06C2.84 16.56 3.08 16.08 3.44 15.66C3.94 15 4.46 14.36 5.04 13.78C8.42 10.46 12.28 7.92 16.52 6.16C17.46 5.76 18.38 5.48 19.34 5.34C19.66 5.3 19.96 5.26 20.24 5.26C20.66 5.26 21.04 5.32 21.42 5.46C21.74 5.6 21.88 5.84 21.78 6.22C21.7 6.54 21.62 6.9 21.48 7.22C21.16 7.92 20.72 8.58 20.24 9.2C20 9.52 19.74 9.84 19.48 10.16C19.4 10.24 19.36 10.32 19.34 10.4C19.32 10.48 19.34 10.54 19.38 10.62C19.58 10.86 19.76 11.12 19.96 11.38C20.06 11.3 20.14 11.26 20.18 11.2C20.68 10.48 21.22 9.76 21.68 9.02C21.98 8.54 22.24 8.02 22.42 7.5C22.46 7.4 22.48 7.3 22.52 7.2C22.8 6.02 22.4 5 21.42 4.48C20.96 4.22 20.44 4.12 19.88 4.12C19.7 4.12 19.52 4.12 19.34 4.14C18.14 4.28 16.98 4.66 15.82 5.14C12.92 6.34 10.22 7.98 7.66 9.92C6.1 11.08 4.62 12.36 3.36 13.84C2.94 14.34 2.56 14.86 2.26 15.38C2.06 15.7 1.94 16.02 1.86 16.32C1.7 17 1.82 17.62 2.22 18.18C2.76 18.94 3.5 19.46 4.42 19.78C5.8 20.24 7.32 20.42 8.86 20.5C10.36 20.58 11.86 20.62 13.34 20.7C13.98 20.72 14.6 20.8 15.2 21.02C15 21.42 14.92 21.56 14.5 21.86C13.8 22.38 13.08 22.9 12.32 23.34C10.2 24.58 8 25.6 5.76 26.52C4.7 26.98 3.66 27.44 2.56 27.56C2.54 27.56 2.52 27.6 2.38 27.68ZM20.3758 20.08C20.4958 20.12 20.5558 20.12 20.5958 20.16C20.9558 20.38 21.1958 20.5 21.4158 20.5C21.6758 20.5 21.8958 20.3 22.2558 19.92C23.1158 19.06 23.7558 18.06 24.2358 16.98C24.2958 16.86 24.3358 16.74 24.3558 16.62C24.4758 16.18 24.3958 15.78 24.1158 15.4C23.8958 15.1 23.5958 14.92 23.2558 14.92C23.1158 14.92 22.9558 14.94 22.7958 15.02C22.4358 15.18 22.1358 15.4 21.8358 15.64C21.2758 16.14 20.8358 16.76 20.4558 17.42C19.6558 18.78 19.1158 20.22 18.7358 21.72C18.6358 22.14 18.5158 22.58 18.4758 23C18.4358 23.4 18.4758 23.84 18.7958 24.08C19.2558 24.42 19.6558 24.64 20.0958 24.64C20.3958 24.64 20.7358 24.54 21.1158 24.32C21.6758 24 22.2158 23.66 22.7158 23.26C24.2558 22.08 25.6358 20.68 26.9558 19.24C26.9958 19.2 27.0558 19.16 27.0958 19.1C27.1158 19.06 27.1358 19.02 27.1558 18.98C27.1758 18.92 27.1358 18.84 27.0758 18.78C27.0158 18.74 26.9558 18.7 26.9158 18.64C26.7958 18.48 26.6358 18.38 26.4558 18.38C26.3158 18.38 26.1958 18.42 26.0758 18.52C25.9158 18.64 25.7958 18.78 25.6558 18.92C24.5558 20.12 23.4358 21.26 22.1558 22.26C21.5558 22.72 20.9358 23.14 20.2958 23.54C20.1158 23.68 19.8958 23.74 19.6358 23.84C19.5358 23.16 19.6158 22.54 19.7758 21.92C19.9358 21.3 20.1558 20.68 20.3758 20.08ZM21.1758 19.18H20.8558C21.1158 18.14 22.5558 16.32 23.3758 16.06C23.3558 16.14 23.3558 16.2 23.3358 16.28L23.3158 16.32C22.8758 17.3 22.2158 18.18 21.5358 19.02C21.4158 19.16 21.2958 19.18 21.1758 19.18ZM27.6002 24.38C27.5402 24.1 27.4402 23.86 27.4802 23.6C27.5002 22.92 27.5402 22.24 27.6802 21.56C27.7402 21.3 27.8002 21.04 27.8602 20.78C28.3002 19.04 28.9402 17.34 29.6602 15.64C30.8002 13 32.1602 10.4 33.6202 7.84C33.9402 7.28 34.2402 6.72 34.5402 6.16C34.5802 6.06 34.6202 5.98 34.6402 5.9C34.7002 5.64 34.6602 5.42 34.5402 5.22C34.4002 5.02 34.2202 4.9 34.0402 4.9C33.8402 4.9 33.6002 5.04 33.3602 5.3C32.7002 6.04 32.1802 6.84 31.7402 7.66C31.7002 7.72 31.6802 7.8 31.6602 7.86C31.6202 8.06 31.6602 8.26 31.7402 8.38C31.8402 8.48 31.8402 8.58 31.8202 8.68C31.8002 8.74 31.7602 8.82 31.7202 8.9C30.3202 11.44 29.0802 14 28.0602 16.62C27.5002 18 26.9602 19.36 26.6202 20.78L26.5602 20.98C26.3602 21.9 26.1602 22.82 26.2802 23.7C26.4002 24.58 27.0802 25.1 27.9402 25.1C28.3002 25.1 28.7002 25 29.1002 24.8C29.5402 24.58 29.9802 24.28 30.4002 23.98C32.2802 22.6 34.0002 21.06 35.6002 19.4C35.7402 19.26 35.8202 19.12 35.9402 18.96C35.8802 18.9 35.8602 18.86 35.8202 18.82C35.6402 18.62 35.4402 18.52 35.2402 18.52C35.0002 18.52 34.7202 18.68 34.4402 18.96C33.3802 20.1 32.2402 21.14 31.0402 22.12C30.2802 22.74 29.5002 23.3 28.7202 23.88C28.4002 24.1 28.0602 24.3 27.6002 24.38ZM26.4602 22.12L26.5402 21.84H26.5602L26.5002 22.1C26.5002 22.12 26.4802 22.12 26.4802 22.14L26.4602 22.12ZM36.575 20.08C36.695 20.12 36.755 20.12 36.795 20.16C37.155 20.38 37.395 20.5 37.615 20.5C37.875 20.5 38.095 20.3 38.455 19.92C39.315 19.06 39.955 18.06 40.435 16.98C40.495 16.86 40.535 16.74 40.555 16.62C40.675 16.18 40.595 15.78 40.315 15.4C40.095 15.1 39.795 14.92 39.455 14.92C39.315 14.92 39.155 14.94 38.995 15.02C38.635 15.18 38.335 15.4 38.035 15.64C37.475 16.14 37.035 16.76 36.655 17.42C35.855 18.78 35.315 20.22 34.935 21.72C34.835 22.14 34.715 22.58 34.675 23C34.635 23.4 34.675 23.84 34.995 24.08C35.455 24.42 35.855 24.64 36.295 24.64C36.595 24.64 36.935 24.54 37.315 24.32C37.875 24 38.415 23.66 38.915 23.26C40.455 22.08 41.835 20.68 43.155 19.24C43.195 19.2 43.255 19.16 43.295 19.1C43.315 19.06 43.335 19.02 43.355 18.98C43.375 18.92 43.335 18.84 43.275 18.78C43.215 18.74 43.155 18.7 43.115 18.64C42.995 18.48 42.835 18.38 42.655 18.38C42.515 18.38 42.395 18.42 42.275 18.52C42.115 18.64 41.995 18.78 41.855 18.92C40.755 20.12 39.635 21.26 38.355 22.26C37.755 22.72 37.135 23.14 36.495 23.54C36.315 23.68 36.095 23.74 35.835 23.84C35.735 23.16 35.815 22.54 35.975 21.92C36.135 21.3 36.355 20.68 36.575 20.08ZM37.375 19.18H37.055C37.315 18.14 38.755 16.32 39.575 16.06C39.555 16.14 39.555 16.2 39.535 16.28L39.515 16.32C39.075 17.3 38.415 18.18 37.735 19.02C37.615 19.16 37.495 19.18 37.375 19.18ZM47.4794 19.5C47.5394 19.34 47.5994 19.26 47.6194 19.18C47.7394 18.34 47.8794 17.5 47.9994 16.64C48.0594 16.3 48.0594 15.94 47.9194 15.62C47.7594 15.3 47.4394 14.98 47.0394 14.98C46.8194 14.98 46.5794 15.08 46.3194 15.3C46.0794 15.52 45.8394 15.74 45.6194 15.98C44.1394 17.56 43.0594 19.32 42.3394 21.28C42.2194 21.6 42.1194 21.92 42.0394 22.24C41.9194 22.74 41.8394 23.24 41.8394 23.76C41.8394 24.24 41.8594 24.74 42.2394 25.02C42.6794 25.34 43.1594 25.6 43.6994 25.6C43.9594 25.6 44.2394 25.54 44.5194 25.42C45.1194 25.16 45.7194 24.86 46.2794 24.5C48.3994 23.12 50.2194 21.4 51.8194 19.46C51.8794 19.38 51.9794 19.3 51.9994 19.22C51.9994 19.04 51.9794 18.88 51.9794 18.7C51.9394 18.7 51.8994 18.72 51.8794 18.72C51.6994 18.72 51.6794 18.5 51.5794 18.42C51.5194 18.4 51.4594 18.4 51.4194 18.4C51.1994 18.4 51.0394 18.52 50.8794 18.72C50.0594 19.76 49.1394 20.7 48.1794 21.58C47.0794 22.56 45.9594 23.48 44.6794 24.2C44.3394 24.4 43.9394 24.58 43.5394 24.74C43.3994 24.8 43.2794 24.82 43.1994 24.82C43.0394 24.82 42.9794 24.7 42.9394 24.4C42.8194 23.92 42.8994 23.4 43.0194 22.9C43.6394 20.58 44.8594 18.54 46.5194 16.72C46.6394 16.6 46.7594 16.5 46.9394 16.34C46.8794 16.72 46.8594 17.02 46.7994 17.3C46.7394 17.76 46.6594 18.22 46.5994 18.68C46.5594 19 46.6994 19.16 46.9594 19.16C47.0594 19.16 47.1594 19.14 47.2994 19.08C47.3394 19.2 47.3994 19.3 47.4794 19.5ZM54.7552 11.12C54.6752 11.36 54.5952 11.54 54.5552 11.72L54.4952 11.92C54.4552 12.08 54.4152 12.26 54.4752 12.34C54.5752 12.44 54.5752 12.56 54.5352 12.68C54.5152 12.78 54.4552 12.9 54.4352 13C53.7952 14.56 53.1352 16.12 52.5352 17.7C51.8152 19.64 51.1752 21.6 50.6952 23.54C50.5752 24.02 50.4552 24.52 50.3552 25C50.2152 25.72 50.1352 26.44 50.0552 27.16C49.9952 27.62 50.3152 27.88 50.7552 27.88C50.9552 27.88 51.1552 27.82 51.3752 27.72C51.1552 27.2 51.2352 26.56 51.3552 25.92C51.4752 25.2 51.6152 24.46 51.8152 23.7C51.8552 23.48 51.9152 23.26 51.9952 23.04C53.0552 19.14 54.4352 15.22 56.3352 11.32C56.4152 11.12 56.5152 10.94 56.6352 10.74C59.0352 10.3 61.4352 9.78 63.7552 9.68C63.8552 9.56 63.9352 9.46 63.9752 9.36C64.0352 9.26 64.0952 9.14 64.1152 9.04C64.1952 8.68 64.0352 8.42 63.6552 8.42H63.5352C63.2352 8.46 62.9752 8.42 62.6752 8.48C61.2752 8.68 59.8352 8.9 58.4152 9.12C58.0552 9.18 57.7352 9.24 57.3352 9.3C57.4152 9.16 57.4352 9.06 57.4952 8.98C57.9552 8.06 58.3952 7.16 58.9152 6.26C58.9752 6.14 59.0152 6.04 59.0352 5.94C59.0952 5.7 59.0552 5.52 58.9152 5.36C58.7952 5.22 58.5552 5.2 58.3952 5.12C58.3152 5.16 58.2752 5.18 58.2552 5.2C57.2152 6.66 56.3152 8.16 55.4352 9.68C55.2552 9.72 55.0752 9.76 54.8952 9.8C53.3752 10.16 51.8552 10.52 50.3352 10.9C50.0552 10.96 49.8152 11.06 49.5352 11.18C49.3952 11.24 49.2952 11.34 49.2552 11.48V11.54C49.1952 11.94 49.3552 12.2 49.5552 12.44C49.5952 12.48 49.6352 12.5 49.6952 12.5C49.7752 12.5 49.8552 12.46 49.9552 12.38C50.0952 12.26 50.2552 12.16 50.4152 12.12C51.8352 11.68 53.2552 11.42 54.7552 11.12ZM65.8397 20.8C65.7797 20.98 65.7397 21.14 65.6797 21.32C65.5397 21.7 65.4197 22.08 65.3397 22.46C65.1797 23.06 65.0797 23.66 65.0597 24.24C64.9797 25.24 65.1997 26.08 65.8797 26.7C66.1997 26.98 66.5597 27.14 66.9997 27.14C67.2797 27.14 67.5997 27.06 67.9397 26.92C68.2597 26.78 68.5797 26.62 68.8797 26.42C69.7197 25.92 70.4597 25.26 71.1397 24.58C74.3397 21.42 76.9397 17.9 79.0197 14.1C79.8597 12.56 80.5597 11 80.9597 9.38C80.9997 9.16 81.0597 8.92 81.0997 8.7C81.2997 7.78 81.3397 6.88 81.1197 6.04C80.7597 4.6 80.0797 3.44 78.5997 2.94C78.0797 2.76 77.5197 2.66 76.9397 2.66C76.4397 2.66 75.9197 2.74 75.3997 2.86C73.8997 3.2 72.5197 3.94 71.1797 4.9C68.1797 7.04 65.8997 9.74 64.1597 12.86C63.6397 13.8 63.2597 14.76 62.9997 15.76L62.9597 15.94C62.4397 18.28 63.4797 20.14 65.6197 20.7C65.6797 20.72 65.7597 20.76 65.8397 20.8ZM67.1197 20.78C68.1997 20.58 69.2397 20.18 70.3197 19.58C70.1397 19.5 69.9997 19.46 69.8597 19.4L69.9597 19C69.8997 18.88 69.7597 18.82 69.5797 18.82C69.4797 18.82 69.3397 18.84 69.2197 18.9C68.8397 19.06 68.4597 19.24 68.0797 19.42C67.9797 19.46 67.9197 19.48 67.8397 19.5V19.44C68.0597 18.56 70.0397 15.96 70.9397 15.36C71.0397 16.02 71.1197 16.7 71.9597 16.78C72.0197 16.42 71.8997 15.5 71.7797 15.16C71.6997 14.98 71.6397 14.8 71.5397 14.62C71.4197 14.32 71.1597 14.18 70.8597 14.18C70.6197 14.18 70.3397 14.28 70.0797 14.48C69.7397 14.78 69.4197 15.1 69.1197 15.44C68.0197 16.68 67.1597 18.04 66.4597 19.46C66.3797 19.6 66.2997 19.76 66.2397 19.88C66.1197 19.9 65.9997 19.9 65.8797 19.9C65.0197 19.9 64.2597 19.42 64.0197 18.66C63.7797 17.92 63.8197 17.12 64.0197 16.28C64.0597 16.14 64.0997 16 64.1397 15.86C64.5597 14.6 65.1597 13.42 65.9197 12.26C67.5797 9.66 69.6197 7.4 72.2197 5.6C73.5197 4.68 74.8797 4 76.3397 3.68C76.7197 3.6 77.0997 3.54 77.4797 3.54C77.7197 3.54 77.9797 3.58 78.2197 3.62C78.9597 3.76 79.4597 4.12 79.7997 4.72C80.1397 5.38 80.2197 6.12 80.1997 6.9C80.1597 7.54 80.0597 8.16 79.8997 8.8C79.6597 9.76 79.2997 10.72 78.8597 11.66C77.5997 14.48 75.8797 17.1 73.8997 19.62C72.5597 21.36 71.1397 23.02 69.4597 24.5C68.9797 24.92 68.4597 25.3 67.9397 25.66C67.6197 25.88 67.2397 26.04 66.8997 26.14C66.7597 26.2 66.6197 26.22 66.5197 26.22C66.2397 26.22 66.1197 26.04 66.0597 25.7C66.0197 25.32 66.0197 24.94 66.0397 24.54C66.0797 24.06 66.1597 23.56 66.2797 23.06C66.4797 22.3 66.7597 21.52 67.1197 20.78ZM80.0409 20.54H79.9409L80.0409 20.08C80.3209 19.18 80.5809 18.28 80.8209 17.36C80.8609 17.26 80.8809 17.16 80.9209 17.06C80.9609 16.86 80.9609 16.66 80.7209 16.48C80.5009 16.32 80.4009 16.2 80.2409 16.2C80.1409 16.2 80.0209 16.24 79.8209 16.32C79.5609 17 79.2809 17.68 79.0409 18.36C79.0209 18.42 78.9809 18.48 78.9609 18.56C78.9609 18.62 78.9409 18.68 78.9609 18.72C79.1009 18.86 79.0809 19.04 79.0209 19.2L78.9809 19.4C78.7409 20.24 78.5409 21.08 78.3009 21.92C78.2409 22.2 78.2009 22.48 78.1409 22.76C78.0209 23.24 78.2609 23.48 78.6409 23.6C78.6609 23.62 78.7209 23.62 78.7609 23.62H78.9009C78.9409 23.62 79.0009 23.62 79.0409 23.64C79.1009 23.66 79.1409 23.68 79.2009 23.68C79.3609 23.68 79.4609 23.54 79.5809 23.38C79.8009 23.08 80.0009 22.76 80.2009 22.44C81.0609 21.12 82.0009 19.84 83.0809 18.64C83.2209 18.48 83.3609 18.36 83.5409 18.16C83.5809 18.4 83.6009 18.58 83.6409 18.74C83.7409 19.36 83.8409 19.98 83.9609 20.56C84.2209 21.6 85.1809 22 86.0609 22C86.2809 22 86.4809 21.98 86.6809 21.94C88.2609 21.58 89.5009 20.6 90.5209 19.28C90.5809 19.22 90.6209 19.16 90.6409 19.1C90.6609 19.04 90.6409 18.98 90.5809 18.92C90.5009 18.94 90.4209 18.94 90.3409 18.96C90.3409 18.68 90.2009 18.52 89.9809 18.52C89.8809 18.52 89.7809 18.54 89.6609 18.6C89.5209 18.66 89.3809 18.8 89.2809 18.92C88.6009 19.76 87.7809 20.42 86.8209 20.9C86.5009 21.04 86.1809 21.16 85.8609 21.24C85.7809 21.26 85.7209 21.26 85.6609 21.26C85.4409 21.26 85.2809 21.16 85.2209 20.94C85.1209 20.64 85.0209 20.34 84.9609 20C84.8609 19.4 84.8009 18.78 84.7009 18.16C84.6609 17.82 84.5009 17.54 84.2609 17.3C84.0609 17.1 83.8009 17 83.5409 17C83.2409 17 82.9009 17.14 82.6009 17.44C82.1609 17.9 81.7009 18.4 81.3009 18.92C80.8409 19.44 80.4409 20 80.0409 20.54ZM79.4409 21.22L79.9009 19.4H79.9209L79.4809 21.22H79.4409ZM91.4617 20.08C91.5817 20.12 91.6417 20.12 91.6817 20.16C92.0417 20.38 92.2817 20.5 92.5017 20.5C92.7617 20.5 92.9817 20.3 93.3417 19.92C94.2017 19.06 94.8417 18.06 95.3217 16.98C95.3817 16.86 95.4217 16.74 95.4417 16.62C95.5617 16.18 95.4817 15.78 95.2017 15.4C94.9817 15.1 94.6817 14.92 94.3417 14.92C94.2017 14.92 94.0417 14.94 93.8817 15.02C93.5217 15.18 93.2217 15.4 92.9217 15.64C92.3617 16.14 91.9217 16.76 91.5417 17.42C90.7417 18.78 90.2017 20.22 89.8217 21.72C89.7217 22.14 89.6017 22.58 89.5617 23C89.5217 23.4 89.5617 23.84 89.8817 24.08C90.3417 24.42 90.7417 24.64 91.1817 24.64C91.4817 24.64 91.8217 24.54 92.2017 24.32C92.7617 24 93.3017 23.66 93.8017 23.26C95.3417 22.08 96.7217 20.68 98.0417 19.24C98.0817 19.2 98.1417 19.16 98.1817 19.1C98.2017 19.06 98.2217 19.02 98.2417 18.98C98.2617 18.92 98.2217 18.84 98.1617 18.78C98.1017 18.74 98.0417 18.7 98.0017 18.64C97.8817 18.48 97.7217 18.38 97.5417 18.38C97.4017 18.38 97.2817 18.42 97.1617 18.52C97.0017 18.64 96.8817 18.78 96.7417 18.92C95.6417 20.12 94.5217 21.26 93.2417 22.26C92.6417 22.72 92.0217 23.14 91.3817 23.54C91.2017 23.68 90.9817 23.74 90.7217 23.84C90.6217 23.16 90.7017 22.54 90.8617 21.92C91.0217 21.3 91.2417 20.68 91.4617 20.08ZM92.2617 19.18H91.9417C92.2017 18.14 93.6417 16.32 94.4617 16.06C94.4417 16.14 94.4417 16.2 94.4217 16.28L94.4017 16.32C93.9617 17.3 93.3017 18.18 92.6217 19.02C92.5017 19.16 92.3817 19.18 92.2617 19.18Z" fill="black"/>
<path fill-rule="evenodd" clip-rule="evenodd" d="M118.852 1.70639C118.758 1.69194 118.659 1.70097 118.564 1.73735C118.482 1.76892 118.411 1.81772 118.354 1.87807C117.605 2.61074 114.762 4.95331 111.735 7.30613C110.218 8.48538 108.666 9.65853 107.325 10.6203C105.973 11.5904 104.87 12.3212 104.236 12.6381C103.956 12.7781 103.842 13.1184 103.982 13.3984C104.122 13.6783 104.463 13.7917 104.743 13.6518C105.469 13.2888 106.641 12.5057 107.986 11.5411C109.342 10.568 110.907 9.38541 112.431 8.20095C114.534 6.56619 116.581 4.91114 117.9 3.79235C117.221 7.1487 116.316 10.1982 114.542 13.1556C109.588 21.4111 102.682 29.4667 92.3667 29.4667C92.0538 29.4667 91.8 29.7204 91.8 30.0333C91.8 30.3463 92.0538 30.6 92.3667 30.6C103.344 30.6 110.543 22.0219 115.513 13.7387C117.318 10.7303 118.257 7.64674 118.941 4.35792C119.502 5.86175 120.263 7.86248 121.101 9.78774C121.743 11.2622 122.438 12.7116 123.131 13.8753C123.477 14.4569 123.83 14.9787 124.183 15.4003C124.53 15.8146 124.908 16.1692 125.312 16.3714C125.592 16.5113 125.932 16.3979 126.072 16.1179C126.212 15.838 126.099 15.4976 125.819 15.3577C125.618 15.2571 125.359 15.0388 125.052 14.6726C124.751 14.3137 124.433 13.8472 124.104 13.2953C123.447 12.1917 122.775 10.7923 122.141 9.33544C121.152 7.06354 120.275 4.69821 119.704 3.15612C119.546 2.73084 119.412 2.36817 119.305 2.08734C119.281 2.01523 119.242 1.94697 119.188 1.88734C119.147 1.84165 119.098 1.80245 119.043 1.77186C118.983 1.73827 118.919 1.71643 118.852 1.70639Z" fill="black"/>
</svg>
