<svg width="371" height="229" viewBox="0 0 371 229" fill="none" xmlns="http://www.w3.org/2000/svg">
<path d="M61.932 202.378H65.558V203.118H61.932V218.473C61.932 218.967 62.0183 219.312 62.191 219.509C62.3636 219.707 62.6473 219.805 63.042 219.805C63.338 219.805 63.671 219.719 64.041 219.546C64.411 219.374 64.744 219.102 65.04 218.732L65.595 219.176C64.4603 221.125 62.709 222.099 60.341 222.099C58.639 222.099 57.3686 221.68 56.53 220.841C56.012 220.323 55.6666 219.682 55.494 218.917C55.346 218.153 55.272 217.08 55.272 215.698V203.118H52.46V202.378H55.272V198.012C56.604 198.012 57.8003 197.889 58.861 197.642C59.9463 197.371 60.97 196.952 61.932 196.384V202.378Z" fill="white"/>
<path d="M75.9827 201.86C79.0167 201.86 81.36 202.662 83.0127 204.265C84.6654 205.844 85.4917 208.422 85.4917 211.998C85.4917 215.575 84.6654 218.153 83.0127 219.731C81.36 221.31 79.0167 222.099 75.9827 222.099C72.9487 222.099 70.6054 221.31 68.9527 219.731C67.3 218.153 66.4737 215.575 66.4737 211.998C66.4737 208.422 67.3 205.844 68.9527 204.265C70.6054 202.662 72.9487 201.86 75.9827 201.86ZM75.9827 202.6C75.1934 202.6 74.5644 203.377 74.0957 204.931C73.627 206.485 73.3927 208.841 73.3927 211.998C73.3927 215.156 73.627 217.511 74.0957 219.065C74.5644 220.595 75.1934 221.359 75.9827 221.359C76.772 221.359 77.401 220.595 77.8697 219.065C78.3384 217.511 78.5727 215.156 78.5727 211.998C78.5727 208.841 78.3384 206.485 77.8697 204.931C77.401 203.377 76.772 202.6 75.9827 202.6Z" fill="white"/>
<path d="M110.303 202.526C111.709 202.526 112.659 202.477 113.152 202.378V203.155C112.634 203.328 112.153 203.686 111.709 204.228C111.29 204.771 110.895 205.61 110.525 206.744L105.9 220.508L104.346 224.985C103.902 226.268 103.359 227.156 102.718 227.649C101.953 228.241 100.806 228.537 99.2771 228.537C98.0438 228.537 96.8968 228.241 95.8361 227.649C94.7754 227.082 94.2451 226.219 94.2451 225.059C94.2451 224.196 94.5781 223.505 95.2441 222.987C95.9101 222.469 96.7858 222.21 97.8711 222.21C98.9071 222.21 99.7211 222.445 100.313 222.913C100.905 223.382 101.201 224.06 101.201 224.948C101.201 225.54 100.991 226.095 100.572 226.613C100.177 227.156 99.5854 227.551 98.7961 227.797C99.0428 227.847 99.4621 227.871 100.054 227.871C101.756 227.871 102.928 226.885 103.569 224.911L103.754 224.282L95.1331 205.227C94.7631 204.389 94.3931 203.834 94.0231 203.562C93.6778 203.291 93.3324 203.155 92.9871 203.155V202.378C94.9604 202.526 96.9708 202.6 99.0181 202.6C100.621 202.6 102.41 202.526 104.383 202.378V203.155C103.668 203.155 103.113 203.205 102.718 203.303C102.348 203.402 102.163 203.624 102.163 203.969C102.163 204.167 102.212 204.364 102.311 204.561L106.862 215.402L108.416 210.666C108.885 209.236 109.119 207.978 109.119 206.892C109.119 205.733 108.872 204.833 108.379 204.191C107.886 203.55 107.232 203.205 106.418 203.155V202.378C107.331 202.477 108.626 202.526 110.303 202.526Z" fill="white"/>
<path d="M123.281 201.86C126.315 201.86 128.658 202.662 130.311 204.265C131.963 205.844 132.79 208.422 132.79 211.998C132.79 215.575 131.963 218.153 130.311 219.731C128.658 221.31 126.315 222.099 123.281 222.099C120.247 222.099 117.903 221.31 116.251 219.731C114.598 218.153 113.772 215.575 113.772 211.998C113.772 208.422 114.598 205.844 116.251 204.265C117.903 202.662 120.247 201.86 123.281 201.86ZM123.281 202.6C122.491 202.6 121.862 203.377 121.394 204.931C120.925 206.485 120.691 208.841 120.691 211.998C120.691 215.156 120.925 217.511 121.394 219.065C121.862 220.595 122.491 221.359 123.281 221.359C124.07 221.359 124.699 220.595 125.168 219.065C125.636 217.511 125.871 215.156 125.871 211.998C125.871 208.841 125.636 206.485 125.168 204.931C124.699 203.377 124.07 202.6 123.281 202.6Z" fill="white"/>
<path d="M154.219 217.548C154.219 218.683 154.367 219.509 154.663 220.027C154.984 220.545 155.526 220.804 156.291 220.804V221.581C155.526 221.507 154.762 221.47 153.997 221.47C151.432 221.47 149.286 221.643 147.559 221.988V219.324C146.449 221.174 144.488 222.099 141.676 222.099C139.703 222.099 138.309 221.606 137.495 220.619C137.125 220.175 136.854 219.583 136.681 218.843C136.508 218.079 136.422 217.08 136.422 215.846V206.411C136.422 205.277 136.262 204.45 135.941 203.932C135.645 203.414 135.115 203.155 134.35 203.155V202.378C135.115 202.452 135.879 202.489 136.644 202.489C139.209 202.489 141.355 202.317 143.082 201.971V217.844C143.082 218.634 143.218 219.226 143.489 219.62C143.785 219.99 144.254 220.175 144.895 220.175C145.61 220.175 146.227 219.929 146.745 219.435C147.288 218.917 147.559 218.276 147.559 217.511V206.411C147.559 205.277 147.399 204.45 147.078 203.932C146.782 203.414 146.252 203.155 145.487 203.155V202.378C146.252 202.452 147.016 202.489 147.781 202.489C150.346 202.489 152.492 202.317 154.219 201.971V217.548Z" fill="white"/>
<path d="M171.242 201.86C172.45 201.86 173.314 202.23 173.832 202.97C174.374 203.71 174.646 204.586 174.646 205.597C174.646 206.707 174.325 207.595 173.684 208.261C173.067 208.903 172.253 209.223 171.242 209.223C170.181 209.223 169.367 208.989 168.8 208.52C168.232 208.027 167.949 207.373 167.949 206.559C167.949 205.104 168.578 203.957 169.836 203.118C169.392 203.118 168.997 203.205 168.652 203.377C168.035 203.649 167.517 204.093 167.098 204.709C166.678 205.301 166.469 205.955 166.469 206.67V217.77C166.469 218.93 166.703 219.731 167.172 220.175C167.665 220.595 168.491 220.804 169.651 220.804V221.581C169.33 221.581 169.059 221.569 168.837 221.544C166.247 221.47 164.52 221.433 163.657 221.433C162.892 221.433 161.178 221.47 158.514 221.544C158.316 221.569 158.057 221.581 157.737 221.581V220.804C158.501 220.804 159.032 220.619 159.328 220.249C159.648 219.855 159.809 219.152 159.809 218.14V206.411C159.809 205.277 159.648 204.45 159.328 203.932C159.032 203.414 158.501 203.155 157.737 203.155V202.378C158.526 202.452 159.291 202.489 160.031 202.489C162.596 202.489 164.742 202.317 166.469 201.971V204.635C167.406 202.785 168.997 201.86 171.242 201.86Z" fill="white"/>
<path d="M213.629 218.14C213.629 219.152 213.777 219.855 214.073 220.249C214.394 220.619 214.937 220.804 215.701 220.804V221.581C213.037 221.483 211.311 221.433 210.521 221.433C209.732 221.433 208.104 221.483 205.637 221.581V220.804C206.131 220.804 206.476 220.619 206.673 220.249C206.871 219.879 206.969 219.176 206.969 218.14V206.115C206.969 205.326 206.821 204.746 206.525 204.376C206.254 203.982 205.798 203.784 205.156 203.784C204.515 203.784 203.923 204.056 203.38 204.598C202.862 205.141 202.542 205.782 202.418 206.522C202.468 207.114 202.492 207.645 202.492 208.113V218.14C202.492 219.176 202.616 219.879 202.862 220.249C203.109 220.619 203.553 220.804 204.194 220.804V221.581C201.728 221.483 200.124 221.433 199.384 221.433C198.595 221.433 196.967 221.483 194.5 221.581V220.804C194.994 220.804 195.339 220.619 195.536 220.249C195.734 219.855 195.832 219.152 195.832 218.14V206.115C195.832 205.326 195.721 204.746 195.499 204.376C195.277 203.982 194.907 203.784 194.389 203.784C193.674 203.784 193.045 204.043 192.502 204.561C191.984 205.055 191.725 205.684 191.725 206.448V218.14C191.725 219.176 191.824 219.879 192.021 220.249C192.219 220.619 192.564 220.804 193.057 220.804V221.581C190.788 221.483 189.283 221.433 188.543 221.433C187.705 221.433 185.855 221.483 182.993 221.581V220.804C183.758 220.804 184.288 220.619 184.584 220.249C184.905 219.855 185.065 219.152 185.065 218.14V206.411C185.065 205.277 184.905 204.45 184.584 203.932C184.288 203.414 183.758 203.155 182.993 203.155V202.378C183.783 202.452 184.547 202.489 185.287 202.489C187.853 202.489 189.999 202.317 191.725 201.971V204.635C192.761 202.785 194.599 201.86 197.238 201.86C199.212 201.86 200.605 202.354 201.419 203.34C201.789 203.784 202.061 204.364 202.233 205.079C202.85 203.895 203.664 203.069 204.675 202.6C205.711 202.107 206.945 201.86 208.375 201.86C210.349 201.86 211.742 202.354 212.556 203.34C212.926 203.784 213.198 204.389 213.37 205.153C213.543 205.893 213.629 206.88 213.629 208.113V218.14Z" fill="white"/>
<path d="M221.696 221.84C220.117 221.84 218.921 221.421 218.107 220.582C217.318 219.719 216.923 218.646 216.923 217.363C216.923 216.253 217.207 215.341 217.774 214.625C218.366 213.885 219.057 213.318 219.846 212.923C220.635 212.529 221.659 212.122 222.917 211.702C224.249 211.258 225.223 210.851 225.84 210.481C226.457 210.111 226.765 209.593 226.765 208.927V205.634C226.765 204.845 226.568 204.142 226.173 203.525C225.778 202.909 225.1 202.6 224.138 202.6C223.373 202.6 222.683 202.81 222.066 203.229C222.905 203.525 223.521 203.969 223.916 204.561C224.335 205.129 224.545 205.77 224.545 206.485C224.545 207.447 224.2 208.224 223.509 208.816C222.843 209.384 222.029 209.667 221.067 209.667C220.105 209.667 219.34 209.371 218.773 208.779C218.23 208.163 217.959 207.386 217.959 206.448C217.959 205.708 218.144 205.067 218.514 204.524C218.884 203.982 219.464 203.488 220.253 203.044C221.634 202.255 223.608 201.86 226.173 201.86C227.53 201.86 228.701 201.996 229.688 202.267C230.675 202.514 231.513 202.995 232.204 203.71C232.697 204.228 233.018 204.882 233.166 205.671C233.339 206.436 233.425 207.509 233.425 208.89V218.806C233.425 219.423 233.462 219.842 233.536 220.064C233.635 220.286 233.795 220.397 234.017 220.397C234.19 220.397 234.375 220.348 234.572 220.249C234.769 220.126 234.954 219.99 235.127 219.842L235.497 220.471C234.436 221.384 232.919 221.84 230.946 221.84C229.466 221.84 228.43 221.594 227.838 221.1C227.246 220.582 226.925 219.892 226.876 219.028C225.717 220.903 223.99 221.84 221.696 221.84ZM225.396 218.88C225.914 218.88 226.37 218.671 226.765 218.251V210.444C226.543 210.814 226.136 211.295 225.544 211.887C224.878 212.529 224.372 213.158 224.027 213.774C223.682 214.366 223.509 215.18 223.509 216.216C223.509 217.992 224.138 218.88 225.396 218.88Z" fill="white"/>
<path d="M241.722 192.647C243.005 192.647 243.992 192.919 244.682 193.461C245.398 194.004 245.755 194.793 245.755 195.829C245.755 196.865 245.398 197.655 244.682 198.197C243.992 198.74 243.005 199.011 241.722 199.011C240.415 199.011 239.416 198.74 238.725 198.197C238.035 197.655 237.689 196.865 237.689 195.829C237.689 194.793 238.035 194.004 238.725 193.461C239.416 192.919 240.415 192.647 241.722 192.647ZM245.274 218.14C245.274 219.152 245.422 219.855 245.718 220.249C246.039 220.619 246.582 220.804 247.346 220.804V221.581C244.682 221.483 242.931 221.433 242.092 221.433C241.254 221.433 239.404 221.483 236.542 221.581V220.804C237.307 220.804 237.837 220.619 238.133 220.249C238.454 219.855 238.614 219.152 238.614 218.14V206.411C238.614 205.277 238.454 204.45 238.133 203.932C237.837 203.414 237.307 203.155 236.542 203.155V202.378C237.332 202.452 238.096 202.489 238.836 202.489C241.402 202.489 243.548 202.317 245.274 201.971V218.14Z" fill="white"/>
<path d="M257.376 218.14C257.376 219.152 257.524 219.855 257.82 220.249C258.141 220.619 258.683 220.804 259.448 220.804V221.581C256.784 221.483 255.033 221.433 254.194 221.433C253.355 221.433 251.505 221.483 248.644 221.581V220.804C249.409 220.804 249.939 220.619 250.235 220.249C250.556 219.855 250.716 219.152 250.716 218.14V197.087C250.716 195.953 250.556 195.126 250.235 194.608C249.939 194.09 249.409 193.831 248.644 193.831V193.054C249.409 193.128 250.173 193.165 250.938 193.165C253.503 193.165 255.649 192.993 257.376 192.647V218.14Z" fill="white"/>
<path d="M274.734 201.86C276.658 201.86 278.212 202.65 279.396 204.228C280.58 205.807 281.172 208.113 281.172 211.147C281.172 215.069 280.382 217.881 278.804 219.583C277.225 221.261 275.141 222.099 272.551 222.099C271.761 222.099 271.095 222.075 270.553 222.025C270.035 221.976 269.554 221.853 269.11 221.655C268.197 221.285 267.247 221.1 266.261 221.1C265.521 221.1 264.83 221.199 264.189 221.396C263.547 221.594 263.054 221.853 262.709 222.173L262.191 221.803C262.363 221.285 262.45 220.607 262.45 219.768V197.087C262.45 195.953 262.289 195.126 261.969 194.608C261.673 194.09 261.142 193.831 260.378 193.831V193.054C261.142 193.128 261.907 193.165 262.672 193.165C265.237 193.165 267.383 192.993 269.11 192.647V204.635C270.244 202.785 272.119 201.86 274.734 201.86ZM270.849 221.359C273.118 221.359 274.253 218.239 274.253 211.998C274.253 208.964 274.031 206.843 273.587 205.634C273.143 204.401 272.538 203.784 271.774 203.784C271.058 203.784 270.429 204.043 269.887 204.561C269.369 205.055 269.11 205.684 269.11 206.448V220.915C269.677 221.211 270.257 221.359 270.849 221.359Z" fill="white"/>
<path d="M292.996 201.86C296.03 201.86 298.374 202.662 300.026 204.265C301.679 205.844 302.505 208.422 302.505 211.998C302.505 215.575 301.679 218.153 300.026 219.731C298.374 221.31 296.03 222.099 292.996 222.099C289.962 222.099 287.619 221.31 285.966 219.731C284.314 218.153 283.487 215.575 283.487 211.998C283.487 208.422 284.314 205.844 285.966 204.265C287.619 202.662 289.962 201.86 292.996 201.86ZM292.996 202.6C292.207 202.6 291.578 203.377 291.109 204.931C290.641 206.485 290.406 208.841 290.406 211.998C290.406 215.156 290.641 217.511 291.109 219.065C291.578 220.595 292.207 221.359 292.996 221.359C293.786 221.359 294.415 220.595 294.883 219.065C295.352 217.511 295.586 215.156 295.586 211.998C295.586 208.841 295.352 206.485 294.883 204.931C294.415 203.377 293.786 202.6 292.996 202.6Z" fill="white"/>
<path d="M321.512 218.954C321.931 219.522 322.264 219.953 322.511 220.249C322.782 220.545 323.09 220.73 323.436 220.804V221.581C320.969 221.483 319.354 221.433 318.589 221.433C317.849 221.433 316.147 221.483 313.483 221.581V220.804C313.828 220.804 314.1 220.743 314.297 220.619C314.494 220.496 314.593 220.336 314.593 220.138C314.593 219.916 314.531 219.719 314.408 219.546L310.782 214.07L310.449 214.477C309.536 215.637 309.08 216.784 309.08 217.918C309.08 218.732 309.314 219.411 309.783 219.953C310.276 220.471 310.917 220.767 311.707 220.841V221.581C310.202 221.507 308.192 221.47 305.676 221.47C304.689 221.47 303.863 221.507 303.197 221.581V220.841C303.813 220.545 304.381 220.163 304.899 219.694C305.441 219.201 306.033 218.572 306.675 217.807L310.412 213.515L304.751 205.005C304.356 204.389 304.023 203.945 303.752 203.673C303.48 203.402 303.172 203.229 302.827 203.155V202.378C305.688 202.477 307.55 202.526 308.414 202.526C309.055 202.526 310.51 202.477 312.78 202.378V203.155C312.434 203.155 312.163 203.217 311.966 203.34C311.768 203.464 311.67 203.624 311.67 203.821C311.67 204.019 311.732 204.216 311.855 204.413L315.074 209.26L315.703 208.52C316.615 207.386 317.072 206.337 317.072 205.375C317.072 204.734 316.862 204.216 316.443 203.821C316.048 203.402 315.481 203.168 314.741 203.118V202.378C316.246 202.452 317.886 202.489 319.662 202.489C320.648 202.489 321.475 202.452 322.141 202.378V203.118C321.13 203.562 319.97 204.574 318.663 206.152L315.481 209.852L321.512 218.954Z" fill="white"/>
<path d="M34.7911 84.6838V97.5598C34.7911 99.5331 34.9884 100.988 35.3831 101.926C35.8271 102.814 36.5671 103.406 37.6031 103.702C38.6884 103.998 40.3904 104.17 42.7091 104.22V105.848C36.6411 105.7 32.1271 105.626 29.1671 105.626C26.7004 105.626 23.5924 105.675 19.8431 105.774L17.4751 105.848V104.368C19.1031 104.269 20.2871 104.072 21.0271 103.776C21.8164 103.48 22.3344 102.912 22.5811 102.074C22.8771 101.235 23.0251 99.8784 23.0251 98.0038V61.2998C23.0251 59.4251 22.8771 58.0684 22.5811 57.2298C22.3344 56.3911 21.8164 55.8238 21.0271 55.5278C20.2871 55.2318 19.1031 55.0344 17.4751 54.9358V53.4558C19.9911 53.6038 23.7404 53.6778 28.7231 53.6778L36.9371 53.6038C37.9238 53.5544 39.0584 53.5298 40.3411 53.5298C47.0011 53.5298 52.0824 54.8618 55.5851 57.5258C59.0878 60.1404 60.8391 63.6678 60.8391 68.1078C60.8391 70.8211 60.1484 73.4358 58.7671 75.9518C57.3858 78.4184 55.0424 80.4904 51.7371 82.1678C48.4811 83.8451 44.1398 84.6838 38.7131 84.6838H34.7911ZM39.3791 54.9358C38.0471 54.9358 37.0604 55.1084 36.4191 55.4538C35.8271 55.7991 35.4078 56.4158 35.1611 57.3038C34.9144 58.1918 34.7911 59.5238 34.7911 61.2998V83.2038H37.9731C41.9691 83.2038 44.7318 81.9211 46.2611 79.3558C47.7904 76.7904 48.5551 73.3124 48.5551 68.9218C48.5551 64.1364 47.8398 60.6091 46.4091 58.3398C45.0278 56.0704 42.6844 54.9358 39.3791 54.9358Z" fill="white"/>
<path d="M86.5028 66.5538C88.7228 66.5538 90.4001 67.2198 91.5348 68.5518C92.6694 69.8838 93.2368 71.4871 93.2368 73.3618C93.2368 75.1871 92.6941 76.6918 91.6088 77.8758C90.5728 79.0104 89.1914 79.5778 87.4648 79.5778C85.7874 79.5778 84.4554 79.1584 83.4688 78.3198C82.4821 77.4318 81.9888 76.2724 81.9888 74.8418C81.9888 72.4738 83.0741 70.5498 85.2448 69.0698C85.0474 69.0204 84.7514 68.9958 84.3568 68.9958C83.8634 68.9958 83.4688 69.0451 83.1728 69.1438C81.2981 69.4398 79.6948 70.5744 78.3628 72.5478C77.0801 74.5211 76.4388 76.5438 76.4388 78.6158V98.2258C76.4388 100.495 76.9814 102.074 78.0668 102.962C79.2014 103.85 80.9774 104.294 83.3948 104.294V105.848C82.7041 105.848 82.1368 105.823 81.6928 105.774C76.6608 105.626 73.3061 105.552 71.6288 105.552C70.2968 105.552 67.2628 105.626 62.5268 105.774C62.1321 105.823 61.6388 105.848 61.0468 105.848V104.294C62.8228 104.294 64.0561 103.924 64.7468 103.184C65.4374 102.394 65.7828 100.988 65.7828 98.9658V75.6558C65.7828 73.3864 65.4374 71.7338 64.7468 70.6978C64.0561 69.6618 62.8228 69.1438 61.0468 69.1438V67.5898C62.6254 67.7378 64.1548 67.8118 65.6348 67.8118C70.0254 67.8118 73.6268 67.4664 76.4388 66.7758V73.6578C77.3761 71.5364 78.7328 69.8344 80.5088 68.5518C82.2848 67.2198 84.2828 66.5538 86.5028 66.5538Z" fill="white"/>
<path d="M113.239 100.816C117.285 100.816 120.541 98.8424 123.007 94.8958L124.339 95.3398C123.353 98.5464 121.577 101.284 119.011 103.554C116.495 105.774 113.338 106.884 109.539 106.884C104.31 106.884 100.141 105.231 97.0334 101.926C93.9747 98.5711 92.4454 93.6378 92.4454 87.1258C92.4454 80.4658 94.0981 75.3844 97.4034 71.8818C100.709 68.3298 105.099 66.5538 110.575 66.5538C119.85 66.5538 124.487 72.0298 124.487 82.9818H103.693C103.644 83.7218 103.619 84.8811 103.619 86.4598C103.619 89.7158 104.063 92.4291 104.951 94.5998C105.889 96.7704 107.073 98.3491 108.503 99.3358C109.983 100.322 111.562 100.816 113.239 100.816ZM110.131 68.1078C108.355 68.1078 106.875 69.2178 105.691 71.4378C104.557 73.6084 103.841 76.9878 103.545 81.5758H115.163C115.262 77.6784 114.867 74.4718 113.979 71.9558C113.141 69.3904 111.858 68.1078 110.131 68.1078Z" fill="white"/>
<path d="M140.33 66.5538C142.205 66.5538 143.931 66.8004 145.51 67.2938C147.089 67.7378 148.297 68.2558 149.136 68.8478C149.629 69.1931 150.073 69.3658 150.468 69.3658C150.912 69.3658 151.282 69.1438 151.578 68.6998C151.923 68.2064 152.145 67.5158 152.244 66.6278H153.798C153.601 69.1438 153.502 73.4851 153.502 79.6518H151.948C151.504 76.3958 150.517 73.6824 148.988 71.5118C147.508 69.2918 145.337 68.1818 142.476 68.1818C140.996 68.1818 139.763 68.6011 138.776 69.4398C137.839 70.2784 137.37 71.4378 137.37 72.9178C137.37 74.5951 137.937 76.0504 139.072 77.2838C140.207 78.4678 141.983 79.9231 144.4 81.6498L146.546 83.2038C149.555 85.4731 151.775 87.4958 153.206 89.2718C154.637 91.0478 155.352 93.2678 155.352 95.9318C155.352 98.1024 154.711 100.026 153.428 101.704C152.195 103.381 150.517 104.664 148.396 105.552C146.275 106.44 143.931 106.884 141.366 106.884C138.653 106.884 136.334 106.366 134.41 105.33C132.831 104.54 131.697 104.022 131.006 103.776C130.513 103.628 130.069 103.8 129.674 104.294C129.329 104.738 129.057 105.428 128.86 106.366H127.306C127.503 103.554 127.602 98.6204 127.602 91.5658H129.156C130.143 100.643 133.473 105.182 139.146 105.182C140.577 105.182 141.785 104.762 142.772 103.924C143.808 103.036 144.326 101.704 144.326 99.9278C144.326 98.5464 144.005 97.3131 143.364 96.2278C142.772 95.1424 142.007 94.1804 141.07 93.3418C140.133 92.5031 138.727 91.3438 136.852 89.8638C134.632 88.0878 132.93 86.6571 131.746 85.5718C130.611 84.4864 129.625 83.2038 128.786 81.7238C127.997 80.2438 127.602 78.5911 127.602 76.7658C127.602 73.6084 128.835 71.1171 131.302 69.2918C133.769 67.4664 136.778 66.5538 140.33 66.5538Z" fill="white"/>
<path d="M176.005 66.5538C177.83 66.5538 179.557 66.7511 181.185 67.1458C182.813 67.5404 184.17 68.0831 185.255 68.7738C186.538 69.5631 187.524 70.5744 188.215 71.8078C188.955 72.9918 189.325 74.2991 189.325 75.7298C189.325 77.4564 188.782 78.8871 187.697 80.0218C186.612 81.1071 185.206 81.6498 183.479 81.6498C181.752 81.6498 180.371 81.1564 179.335 80.1698C178.299 79.1831 177.781 77.8511 177.781 76.1738C177.781 74.6938 178.25 73.4111 179.187 72.3258C180.124 71.2404 181.284 70.5004 182.665 70.1058C182.27 69.5631 181.654 69.1438 180.815 68.8478C180.026 68.5024 179.162 68.3298 178.225 68.3298C175.265 68.3298 172.946 69.9578 171.269 73.2138C169.641 76.4204 168.827 80.6384 168.827 85.8678C168.827 91.1464 169.764 94.9451 171.639 97.2638C173.514 99.5824 175.857 100.742 178.669 100.742C180.346 100.742 182.024 100.298 183.701 99.4098C185.428 98.5218 186.982 96.9678 188.363 94.7478L189.621 95.1918C188.634 98.3984 186.908 101.161 184.441 103.48C181.974 105.749 178.792 106.884 174.895 106.884C169.814 106.884 165.67 105.206 162.463 101.852C159.256 98.4971 157.653 93.5144 157.653 86.9038C157.653 82.5624 158.442 78.8624 160.021 75.8038C161.6 72.7451 163.77 70.4511 166.533 68.9218C169.296 67.3431 172.453 66.5538 176.005 66.5538Z" fill="white"/>
<path d="M215.837 66.5538C218.057 66.5538 219.735 67.2198 220.869 68.5518C222.004 69.8838 222.571 71.4871 222.571 73.3618C222.571 75.1871 222.029 76.6918 220.943 77.8758C219.907 79.0104 218.526 79.5778 216.799 79.5778C215.122 79.5778 213.79 79.1584 212.803 78.3198C211.817 77.4318 211.323 76.2724 211.323 74.8418C211.323 72.4738 212.409 70.5498 214.579 69.0698C214.382 69.0204 214.086 68.9958 213.691 68.9958C213.198 68.9958 212.803 69.0451 212.507 69.1438C210.633 69.4398 209.029 70.5744 207.697 72.5478C206.415 74.5211 205.773 76.5438 205.773 78.6158V98.2258C205.773 100.495 206.316 102.074 207.401 102.962C208.536 103.85 210.312 104.294 212.729 104.294V105.848C212.039 105.848 211.471 105.823 211.027 105.774C205.995 105.626 202.641 105.552 200.963 105.552C199.631 105.552 196.597 105.626 191.861 105.774C191.467 105.823 190.973 105.848 190.381 105.848V104.294C192.157 104.294 193.391 103.924 194.081 103.184C194.772 102.394 195.117 100.988 195.117 98.9658V75.6558C195.117 73.3864 194.772 71.7338 194.081 70.6978C193.391 69.6618 192.157 69.1438 190.381 69.1438V67.5898C191.96 67.7378 193.489 67.8118 194.969 67.8118C199.36 67.8118 202.961 67.4664 205.773 66.7758V73.6578C206.711 71.5364 208.067 69.8344 209.843 68.5518C211.619 67.2198 213.617 66.5538 215.837 66.5538Z" fill="white"/>
<path d="M231.45 48.4978C233.522 48.4978 235.15 49.0158 236.334 50.0518C237.567 51.0384 238.184 52.4198 238.184 54.1958C238.184 55.9718 237.567 57.3778 236.334 58.4138C235.15 59.4004 233.522 59.8938 231.45 59.8938C229.378 59.8938 227.725 59.4004 226.492 58.4138C225.308 57.3778 224.716 55.9718 224.716 54.1958C224.716 52.4198 225.308 51.0384 226.492 50.0518C227.725 49.0158 229.378 48.4978 231.45 48.4978ZM237.222 98.9658C237.222 100.988 237.567 102.394 238.258 103.184C238.998 103.924 240.231 104.294 241.958 104.294V105.848C237.024 105.65 233.744 105.552 232.116 105.552C230.586 105.552 227.158 105.65 221.83 105.848V104.294C223.606 104.294 224.839 103.924 225.53 103.184C226.22 102.394 226.566 100.988 226.566 98.9658V75.6558C226.566 73.3864 226.22 71.7338 225.53 70.6978C224.839 69.6618 223.606 69.1438 221.83 69.1438V67.5898C223.408 67.7378 224.938 67.8118 226.418 67.8118C230.808 67.8118 234.41 67.4664 237.222 66.7758V98.9658Z" fill="white"/>
<path d="M267.459 66.5538C271.455 66.5538 274.686 68.2064 277.153 71.5118C279.62 74.7678 280.853 79.5038 280.853 85.7198C280.853 92.9718 279.274 98.3244 276.117 101.778C272.959 105.182 268.889 106.884 263.907 106.884C260.503 106.884 257.74 106.02 255.619 104.294C253.843 104.146 252.067 104.343 250.291 104.886C248.515 105.428 247.109 106.144 246.073 107.032L244.963 106.366C245.308 105.132 245.481 103.751 245.481 102.222V56.8598C245.481 54.5904 245.111 52.9378 244.371 51.9018C243.68 50.8658 242.471 50.3478 240.745 50.3478V48.7938C242.274 48.9418 243.803 49.0158 245.333 49.0158C249.625 49.0158 253.226 48.6704 256.137 47.9798V73.5838C257.173 71.3144 258.678 69.5878 260.651 68.4038C262.624 67.1704 264.893 66.5538 267.459 66.5538ZM261.613 105.33C264.326 105.33 266.349 103.8 267.681 100.742C269.013 97.6831 269.679 93.0211 269.679 86.7558C269.679 80.6878 269.111 76.3464 267.977 73.7318C266.842 71.0678 265.214 69.7358 263.093 69.7358C261.514 69.7358 260.059 70.3278 258.727 71.5118C257.444 72.6464 256.581 74.2004 256.137 76.1738V103.332C257.765 104.664 259.59 105.33 261.613 105.33Z" fill="white"/>
<path d="M304.098 100.816C308.143 100.816 311.399 98.8424 313.866 94.8958L315.198 95.3398C314.211 98.5464 312.435 101.284 309.87 103.554C307.354 105.774 304.196 106.884 300.398 106.884C295.168 106.884 291 105.231 287.892 101.926C284.833 98.5711 283.304 93.6378 283.304 87.1258C283.304 80.4658 284.956 75.3844 288.262 71.8818C291.567 68.3298 295.958 66.5538 301.434 66.5538C310.708 66.5538 315.346 72.0298 315.346 82.9818H294.552C294.502 83.7218 294.478 84.8811 294.478 86.4598C294.478 89.7158 294.922 92.4291 295.81 94.5998C296.747 96.7704 297.931 98.3491 299.362 99.3358C300.842 100.322 302.42 100.816 304.098 100.816ZM300.99 68.1078C299.214 68.1078 297.734 69.2178 296.55 71.4378C295.415 73.6084 294.7 76.9878 294.404 81.5758H306.022C306.12 77.6784 305.726 74.4718 304.838 71.9558C303.999 69.3904 302.716 68.1078 300.99 68.1078Z" fill="white"/>
<path d="M352.944 97.7078C352.944 99.9771 353.289 101.63 353.98 102.666C354.671 103.702 355.904 104.22 357.68 104.22V105.774C356.151 105.626 354.621 105.552 353.092 105.552C348.701 105.552 345.1 105.897 342.288 106.588V100.224C340.611 104.664 337.404 106.884 332.668 106.884C328.031 106.884 324.331 105.206 321.568 101.852C318.855 98.4478 317.523 93.3418 317.572 86.5338C317.572 82.1924 318.263 78.5418 319.644 75.5818C321.075 72.5724 323.023 70.3278 325.49 68.8478C328.006 67.3184 330.867 66.5538 334.074 66.5538C337.675 66.5538 340.413 67.4911 342.288 69.3658V56.7858C342.288 54.5164 341.918 52.8638 341.178 51.8278C340.487 50.7918 339.279 50.2738 337.552 50.2738V48.7198C339.131 48.8678 340.66 48.9418 342.14 48.9418C346.432 48.9418 350.033 48.5964 352.944 47.9058V97.7078ZM335.702 103.702C337.33 103.702 338.761 103.11 339.994 101.926C341.277 100.742 342.041 99.1384 342.288 97.1158V71.2158C341.055 69.5384 339.254 68.6998 336.886 68.6998C334.271 68.6998 332.249 70.2044 330.818 73.2138C329.387 76.2231 328.697 80.7124 328.746 86.6818C328.697 92.7004 329.264 97.0418 330.448 99.7058C331.681 102.37 333.433 103.702 335.702 103.702Z" fill="white"/>
<path d="M90.3684 124.694C99.9884 124.694 107.191 126.889 111.976 131.28C116.762 135.621 119.154 141.96 119.154 150.298C119.154 155.675 117.97 160.386 115.602 164.432C113.284 168.428 109.904 171.536 105.464 173.756C101.074 175.976 95.8198 177.086 89.7024 177.086L85.1144 177.012C82.2531 176.913 80.1811 176.864 78.8984 176.864C73.8171 176.864 70.0184 176.938 67.5024 177.086V175.606C69.1304 175.507 70.3144 175.31 71.0544 175.014C71.8438 174.718 72.3618 174.15 72.6084 173.312C72.9044 172.473 73.0524 171.116 73.0524 169.242V132.538C73.0524 130.663 72.9044 129.306 72.6084 128.468C72.3618 127.629 71.8438 127.062 71.0544 126.766C70.3144 126.47 69.1304 126.272 67.5024 126.174V124.694C69.5744 124.842 72.5591 124.916 76.4564 124.916H78.7504L81.7104 124.842C85.7558 124.743 88.6418 124.694 90.3684 124.694ZM90.2944 126.026C88.7651 126.026 87.6058 126.198 86.8164 126.544C86.0764 126.889 85.5584 127.506 85.2624 128.394C84.9664 129.282 84.8184 130.614 84.8184 132.39V169.39C84.8184 171.166 84.9664 172.498 85.2624 173.386C85.5584 174.274 86.0764 174.89 86.8164 175.236C87.6058 175.581 88.7898 175.754 90.3684 175.754C96.3378 175.754 100.58 173.682 103.096 169.538C105.612 165.344 106.87 159.03 106.87 150.594C106.87 142.158 105.563 135.966 102.948 132.02C100.383 128.024 96.1651 126.026 90.2944 126.026Z" fill="white"/>
<path d="M142.875 172.054C146.92 172.054 150.176 170.08 152.643 166.134L153.975 166.578C152.988 169.784 151.212 172.522 148.647 174.792C146.131 177.012 142.974 178.122 139.175 178.122C133.946 178.122 129.777 176.469 126.669 173.164C123.61 169.809 122.081 164.876 122.081 158.364C122.081 151.704 123.734 146.622 127.039 143.12C130.344 139.568 134.735 137.792 140.211 137.792C149.486 137.792 154.123 143.268 154.123 154.22H133.329C133.28 154.96 133.255 156.119 133.255 157.698C133.255 160.954 133.699 163.667 134.587 165.838C135.524 168.008 136.708 169.587 138.139 170.574C139.619 171.56 141.198 172.054 142.875 172.054ZM139.767 139.346C137.991 139.346 136.511 140.456 135.327 142.676C134.192 144.846 133.477 148.226 133.181 152.814H144.799C144.898 148.916 144.503 145.71 143.615 143.194C142.776 140.628 141.494 139.346 139.767 139.346Z" fill="white"/>
<path d="M170.409 170.204C170.409 172.226 170.755 173.632 171.445 174.422C172.136 175.162 173.369 175.532 175.145 175.532V177.086C170.015 176.888 166.709 176.79 165.229 176.79C163.552 176.79 160.148 176.888 155.017 177.086V175.532C156.744 175.532 157.953 175.162 158.643 174.422C159.383 173.632 159.753 172.226 159.753 170.204V128.024C159.753 125.754 159.383 124.102 158.643 123.066C157.953 122.03 156.744 121.512 155.017 121.512V119.958C156.596 120.106 158.125 120.18 159.605 120.18C163.897 120.18 167.499 119.834 170.409 119.144V170.204Z" fill="white"/>
<path d="M184.819 119.736C186.891 119.736 188.519 120.254 189.703 121.29C190.937 122.276 191.553 123.658 191.553 125.434C191.553 127.21 190.937 128.616 189.703 129.652C188.519 130.638 186.891 131.132 184.819 131.132C182.747 131.132 181.095 130.638 179.861 129.652C178.677 128.616 178.085 127.21 178.085 125.434C178.085 123.658 178.677 122.276 179.861 121.29C181.095 120.254 182.747 119.736 184.819 119.736ZM190.591 170.204C190.591 172.226 190.937 173.632 191.627 174.422C192.367 175.162 193.601 175.532 195.327 175.532V177.086C190.394 176.888 187.113 176.79 185.485 176.79C183.956 176.79 180.527 176.888 175.199 177.086V175.532C176.975 175.532 178.209 175.162 178.899 174.422C179.59 173.632 179.935 172.226 179.935 170.204V146.894C179.935 144.624 179.59 142.972 178.899 141.936C178.209 140.9 176.975 140.382 175.199 140.382V138.828C176.778 138.976 178.307 139.05 179.787 139.05C184.178 139.05 187.779 138.704 190.591 138.014V170.204Z" fill="white"/>
<path d="M225.202 139.05C227.718 139.05 229.617 138.976 230.9 138.828V140.308C229.864 140.604 228.926 141.245 228.087 142.232C227.298 143.169 226.534 144.649 225.794 146.672L214.99 177.234C214.447 177.184 213.633 177.16 212.548 177.16C211.512 177.16 210.722 177.184 210.18 177.234L197.008 144.526C196.317 142.848 195.602 141.738 194.862 141.196C194.171 140.653 193.456 140.382 192.716 140.382V138.828C196.169 139.074 199.671 139.198 203.223 139.198C206.331 139.198 209.538 139.074 212.844 138.828V140.382C211.166 140.382 209.958 140.505 209.217 140.752C208.527 140.949 208.182 141.541 208.182 142.528C208.182 142.922 208.305 143.539 208.551 144.378L216.988 166.8L222.316 152.148C223.105 149.829 223.499 147.831 223.499 146.154C223.499 142.552 221.699 140.604 218.098 140.308V138.828C220.367 138.976 222.735 139.05 225.202 139.05Z" fill="white"/>
<path d="M250.313 172.054C254.358 172.054 257.614 170.08 260.081 166.134L261.413 166.578C260.426 169.784 258.65 172.522 256.085 174.792C253.569 177.012 250.412 178.122 246.613 178.122C241.384 178.122 237.215 176.469 234.107 173.164C231.048 169.809 229.519 164.876 229.519 158.364C229.519 151.704 231.172 146.622 234.477 143.12C237.782 139.568 242.173 137.792 247.649 137.792C256.924 137.792 261.561 143.268 261.561 154.22H240.767C240.718 154.96 240.693 156.119 240.693 157.698C240.693 160.954 241.137 163.667 242.025 165.838C242.962 168.008 244.146 169.587 245.577 170.574C247.057 171.56 248.636 172.054 250.313 172.054ZM247.205 139.346C245.429 139.346 243.949 140.456 242.765 142.676C241.63 144.846 240.915 148.226 240.619 152.814H252.237C252.336 148.916 251.941 145.71 251.053 143.194C250.214 140.628 248.932 139.346 247.205 139.346Z" fill="white"/>
<path d="M287.774 137.792C289.994 137.792 291.671 138.458 292.806 139.79C293.941 141.122 294.508 142.725 294.508 144.6C294.508 146.425 293.965 147.93 292.88 149.114C291.844 150.248 290.463 150.816 288.736 150.816C287.059 150.816 285.727 150.396 284.74 149.558C283.753 148.67 283.26 147.51 283.26 146.08C283.26 143.712 284.345 141.788 286.516 140.308C286.319 140.258 286.023 140.234 285.628 140.234C285.135 140.234 284.74 140.283 284.444 140.382C282.569 140.678 280.966 141.812 279.634 143.786C278.351 145.759 277.71 147.782 277.71 149.854V169.464C277.71 171.733 278.253 173.312 279.338 174.2C280.473 175.088 282.249 175.532 284.666 175.532V177.086C283.975 177.086 283.408 177.061 282.964 177.012C277.932 176.864 274.577 176.79 272.9 176.79C271.568 176.79 268.534 176.864 263.798 177.012C263.403 177.061 262.91 177.086 262.318 177.086V175.532C264.094 175.532 265.327 175.162 266.018 174.422C266.709 173.632 267.054 172.226 267.054 170.204V146.894C267.054 144.624 266.709 142.972 266.018 141.936C265.327 140.9 264.094 140.382 262.318 140.382V138.828C263.897 138.976 265.426 139.05 266.906 139.05C271.297 139.05 274.898 138.704 277.71 138.014V144.896C278.647 142.774 280.004 141.072 281.78 139.79C283.556 138.458 285.554 137.792 287.774 137.792Z" fill="white"/>
<path d="M314.511 172.054C318.556 172.054 321.812 170.08 324.279 166.134L325.611 166.578C324.624 169.784 322.848 172.522 320.283 174.792C317.767 177.012 314.609 178.122 310.811 178.122C305.581 178.122 301.413 176.469 298.305 173.164C295.246 169.809 293.717 164.876 293.717 158.364C293.717 151.704 295.369 146.622 298.675 143.12C301.98 139.568 306.371 137.792 311.847 137.792C321.121 137.792 325.759 143.268 325.759 154.22H304.965C304.915 154.96 304.891 156.119 304.891 157.698C304.891 160.954 305.335 163.667 306.223 165.838C307.16 168.008 308.344 169.587 309.775 170.574C311.255 171.56 312.833 172.054 314.511 172.054ZM311.403 139.346C309.627 139.346 308.147 140.456 306.963 142.676C305.828 144.846 305.113 148.226 304.817 152.814H316.435C316.533 148.916 316.139 145.71 315.251 143.194C314.412 140.628 313.129 139.346 311.403 139.346Z" fill="white"/>
<path d="M363.357 168.946C363.357 171.215 363.702 172.868 364.393 173.904C365.084 174.94 366.317 175.458 368.093 175.458V177.012C366.564 176.864 365.034 176.79 363.505 176.79C359.114 176.79 355.513 177.135 352.701 177.826V171.462C351.024 175.902 347.817 178.122 343.081 178.122C338.444 178.122 334.744 176.444 331.981 173.09C329.268 169.686 327.936 164.58 327.985 157.772C327.985 153.43 328.676 149.78 330.057 146.82C331.488 143.81 333.436 141.566 335.903 140.086C338.419 138.556 341.28 137.792 344.487 137.792C348.088 137.792 350.826 138.729 352.701 140.604V128.024C352.701 125.754 352.331 124.102 351.591 123.066C350.9 122.03 349.692 121.512 347.965 121.512V119.958C349.544 120.106 351.073 120.18 352.553 120.18C356.845 120.18 360.446 119.834 363.357 119.144V168.946ZM346.115 174.94C347.743 174.94 349.174 174.348 350.407 173.164C351.69 171.98 352.454 170.376 352.701 168.354V142.454C351.468 140.776 349.667 139.938 347.299 139.938C344.684 139.938 342.662 141.442 341.231 144.452C339.8 147.461 339.11 151.95 339.159 157.92C339.11 163.938 339.677 168.28 340.861 170.944C342.094 173.608 343.846 174.94 346.115 174.94Z" fill="white"/>
<path d="M59.9758 135.485C59.9758 138.84 58.7972 141.469 56.4398 143.373C54.1278 145.232 50.7052 146.637 46.1718 147.589L44.9478 147.997C46.9878 148.904 48.5518 150.355 49.6398 152.349C50.7278 154.344 51.2718 156.656 51.2718 159.285C51.2718 162.459 50.2972 165.315 48.3478 167.853C46.3985 170.347 43.6332 172.319 40.0518 173.769C36.5158 175.22 32.4358 175.945 27.8118 175.945C22.8252 175.945 18.4278 175.265 14.6198 173.905C10.8572 172.545 7.93318 170.596 5.84784 168.057C3.80784 165.473 2.78784 162.459 2.78784 159.013C2.78784 155.931 3.60384 153.347 5.23584 151.261C6.86784 149.131 8.70384 147.521 10.7438 146.433C12.8292 145.345 14.7785 144.575 16.5918 144.121C11.4692 142.081 8.90784 139.225 8.90784 135.553C8.90784 132.788 10.2452 130.635 12.9198 129.093C15.5945 127.507 18.7678 126.713 22.4398 126.713C24.1172 126.713 25.4998 126.827 26.5878 127.053C27.6758 127.28 28.6505 127.643 29.5118 128.141C30.7358 128.731 31.7332 129.479 32.5038 130.385C33.2745 131.292 33.6598 132.38 33.6598 133.649C33.6598 134.964 33.1385 136.052 32.0958 136.913C31.0985 137.729 29.8745 138.137 28.4238 138.137C26.9732 138.137 25.7718 137.775 24.8198 137.049C23.9132 136.324 23.4598 135.281 23.4598 133.921C23.4598 132.788 23.8678 131.768 24.6838 130.861C25.4998 129.909 26.5425 129.32 27.8118 129.093C27.4038 128.731 26.7918 128.436 25.9758 128.209C25.1598 127.983 24.2758 127.869 23.3238 127.869C20.8305 127.869 18.7905 128.64 17.2038 130.181C15.6172 131.723 14.8238 133.921 14.8238 136.777C14.8238 139.407 15.7078 141.719 17.4758 143.713C19.1532 143.351 20.4225 143.169 21.2838 143.169C22.0998 143.169 22.7118 143.351 23.1198 143.713C23.5732 144.031 23.7998 144.461 23.7998 145.005C23.7998 145.459 23.6185 145.821 23.2558 146.093C22.8932 146.32 22.4398 146.433 21.8958 146.433C21.2158 146.433 20.5585 146.275 19.9238 145.957C19.2892 145.64 18.4958 145.209 17.5438 144.665C15.2318 145.844 13.4412 147.317 12.1718 149.085C10.9478 150.808 10.3358 153.007 10.3358 155.681C10.3358 160.079 12.0812 163.388 15.5718 165.609C19.1078 167.785 23.9812 168.873 30.1918 168.873C33.3198 168.873 36.3118 168.42 39.1678 167.513C42.0692 166.561 44.4038 165.201 46.1718 163.433C47.9852 161.62 48.8918 159.489 48.8918 157.041C48.8918 152.871 47.1692 149.992 43.7238 148.405L39.3718 149.629C36.8332 150.355 35.5638 150.717 35.5638 150.717C31.7558 151.579 28.9678 152.485 27.1998 153.437C25.4318 154.389 24.5478 155.681 24.5478 157.313C24.5478 158.945 25.2958 160.283 26.7918 161.325C28.3332 162.323 30.0332 162.821 31.8918 162.821C32.3905 162.821 32.9118 162.753 33.4558 162.617C34.0452 162.481 34.4305 162.323 34.6118 162.141C33.5238 161.779 32.6852 161.212 32.0958 160.441C31.5065 159.671 31.2118 158.741 31.2118 157.653C31.2118 156.248 31.7105 155.16 32.7078 154.389C33.7505 153.573 35.0652 153.165 36.6518 153.165C38.2838 153.165 39.5532 153.596 40.4598 154.457C41.4118 155.273 41.8878 156.384 41.8878 157.789C41.8878 159.829 40.9812 161.371 39.1678 162.413C37.3545 163.456 35.0425 163.977 32.2318 163.977C29.3305 163.977 26.9052 163.229 24.9558 161.733C23.0518 160.237 22.0998 158.084 22.0998 155.273C22.0998 151.873 23.3918 149.176 25.9758 147.181C28.5598 145.187 32.3452 143.713 37.3318 142.761L40.2558 142.013C43.2025 141.333 45.6052 140.676 47.4638 140.041C50.9545 139.18 53.5385 138.251 55.2158 137.253C56.8932 136.211 57.7318 134.896 57.7318 133.309C57.7318 131.541 56.9385 130.068 55.3518 128.889C53.8105 127.711 52.0425 127.121 50.0478 127.121C49.1865 127.121 48.5292 127.235 48.0758 127.461C49.1185 127.869 49.9345 128.481 50.5238 129.297C51.1132 130.068 51.4078 130.884 51.4078 131.745C51.4078 133.105 50.8865 134.171 49.8438 134.941C48.8465 135.712 47.5545 136.097 45.9678 136.097C44.3812 136.097 43.0892 135.712 42.0918 134.941C41.1398 134.125 40.6638 133.015 40.6638 131.609C40.6638 129.841 41.4345 128.459 42.9758 127.461C44.5172 126.419 46.5798 125.897 49.1638 125.897C52.4278 125.897 55.0345 126.759 56.9838 128.481C58.9785 130.159 59.9758 132.493 59.9758 135.485Z" fill="#009BD2"/>
<path d="M74.4228 34.8922C74.7435 35.6815 75.0888 36.2735 75.4588 36.6682C75.8535 37.0382 76.2358 37.2355 76.6058 37.2602V38.0002C74.8298 37.9262 72.5852 37.8892 69.8718 37.8892C67.0598 37.8892 64.9878 37.9262 63.6558 38.0002V37.2602C64.5932 37.2109 65.2592 37.0999 65.6538 36.9272C66.0485 36.7299 66.2458 36.3969 66.2458 35.9282C66.2458 35.4842 66.0978 34.8922 65.8018 34.1522L63.6188 28.0842H56.1448L55.5158 29.7492C54.7018 31.8459 54.2948 33.4492 54.2948 34.5592C54.2948 35.5705 54.5785 36.2612 55.1458 36.6312C55.7132 37.0012 56.5518 37.2109 57.6618 37.2602V38.0002C55.8118 37.9262 54.1962 37.8892 52.8148 37.8892C51.6555 37.8892 50.7058 37.9262 49.9658 38.0002V37.2602C50.5825 37.1615 51.1622 36.7792 51.7048 36.1132C52.2475 35.4472 52.8025 34.3865 53.3698 32.9312L61.5838 11.8042C62.3732 11.8535 63.0268 11.8782 63.5448 11.8782C64.0382 11.8782 64.6795 11.8535 65.4688 11.8042L74.4228 34.8922ZM63.3598 27.3442L59.9928 18.0942L56.4408 27.3442H63.3598Z" fill="white"/>
<path d="M86.98 18.2792C87.9913 18.2792 88.9163 18.3902 89.755 18.6122C90.6183 18.8095 91.3213 19.0685 91.864 19.3892C92.5547 19.7839 93.0973 20.3142 93.492 20.9802C93.8867 21.6462 94.084 22.3985 94.084 23.2372C94.084 24.2732 93.751 25.1365 93.085 25.8272C92.419 26.4932 91.568 26.8262 90.532 26.8262C89.4713 26.8262 88.6327 26.5302 88.016 25.9382C87.424 25.3215 87.128 24.5075 87.128 23.4962C87.128 22.6082 87.4117 21.8312 87.979 21.1652C88.571 20.4745 89.2987 20.0182 90.162 19.7962C89.792 19.5002 89.2987 19.3522 88.682 19.3522C87.1033 19.3522 85.9933 20.2032 85.352 21.9052C84.7107 23.5825 84.39 25.5805 84.39 27.8992C84.39 30.2672 84.834 31.9569 85.722 32.9682C86.61 33.9795 87.7076 34.4852 89.015 34.4852C90.8157 34.4852 92.308 33.6589 93.492 32.0062L94.121 32.2282C93.5783 33.9549 92.6533 35.4349 91.346 36.6682C90.0633 37.9015 88.4107 38.5182 86.388 38.5182C83.6993 38.5182 81.541 37.7165 79.913 36.1132C78.285 34.5099 77.471 31.9445 77.471 28.4172C77.471 25.0379 78.3343 22.5095 80.061 20.8322C81.8123 19.1302 84.1187 18.2792 86.98 18.2792Z" fill="white"/>
<path d="M110.361 18.2792C112.335 18.2792 113.728 18.7725 114.542 19.7592C114.912 20.2032 115.184 20.8075 115.356 21.5722C115.529 22.3122 115.615 23.2989 115.615 24.5322V34.5592C115.615 35.5705 115.763 36.2735 116.059 36.6682C116.38 37.0382 116.923 37.2232 117.687 37.2232V38.0002C115.023 37.9015 113.297 37.8522 112.507 37.8522C111.669 37.8522 109.917 37.9015 107.253 38.0002V37.2232C107.895 37.2232 108.339 37.0382 108.585 36.6682C108.832 36.2735 108.955 35.5705 108.955 34.5592V22.5342C108.955 21.7449 108.807 21.1652 108.511 20.7952C108.24 20.4005 107.784 20.2032 107.142 20.2032C106.427 20.2032 105.798 20.4622 105.255 20.9802C104.737 21.4735 104.478 22.1025 104.478 22.8672V34.5592C104.478 35.5705 104.602 36.2735 104.848 36.6682C105.095 37.0382 105.539 37.2232 106.18 37.2232V38.0002C103.714 37.9015 102.086 37.8522 101.296 37.8522C100.458 37.8522 98.6077 37.9015 95.7464 38.0002V37.2232C96.5111 37.2232 97.0414 37.0382 97.3374 36.6682C97.6581 36.2735 97.8184 35.5705 97.8184 34.5592V22.8302C97.8184 21.6955 97.6581 20.8692 97.3374 20.3512C97.0414 19.8332 96.5111 19.5742 95.7464 19.5742V18.7972C96.5357 18.8712 97.3004 18.9082 98.0404 18.9082C100.606 18.9082 102.752 18.7355 104.478 18.3902V21.0542C105.588 19.2042 107.549 18.2792 110.361 18.2792Z" fill="white"/>
<path d="M130.415 34.4852C132.216 34.4852 133.708 33.6589 134.892 32.0062L135.521 32.2282C134.979 33.9549 134.054 35.4349 132.746 36.6682C131.464 37.9015 129.811 38.5182 127.788 38.5182C125.198 38.5182 123.126 37.7165 121.572 36.1132C120.018 34.5099 119.241 31.9445 119.241 28.4172C119.241 25.0379 120.105 22.5095 121.831 20.8322C123.583 19.1302 125.889 18.2792 128.75 18.2792C133.412 18.2792 135.743 21.0419 135.743 26.5672H126.197C126.173 26.8632 126.16 27.3072 126.16 27.8992C126.16 30.2672 126.567 31.9569 127.381 32.9682C128.22 33.9795 129.231 34.4852 130.415 34.4852ZM128.491 19.1302C127.11 19.1302 126.296 21.3749 126.049 25.8642H130.341C130.366 23.8909 130.218 22.2752 129.897 21.0172C129.601 19.7592 129.133 19.1302 128.491 19.1302Z" fill="white"/>
<path d="M169.086 11.8042C168.913 14.5422 168.827 16.9842 168.827 19.1302C168.827 20.2649 168.864 21.1529 168.938 21.7942H168.087C167.273 18.5629 166.225 16.2319 164.942 14.8012C163.659 13.3705 162.278 12.6552 160.798 12.6552H160.761V33.8192C160.761 34.8552 160.86 35.6075 161.057 36.0762C161.279 36.5449 161.661 36.8655 162.204 37.0382C162.771 37.1862 163.659 37.2602 164.868 37.2602V38.0002C161.39 37.9262 158.689 37.8892 156.765 37.8892C155.014 37.8892 152.473 37.9262 149.143 38.0002V37.2602C150.352 37.2602 151.227 37.1862 151.77 37.0382C152.337 36.8655 152.72 36.5449 152.917 36.0762C153.139 35.6075 153.25 34.8552 153.25 33.8192V12.6552H153.213C151.708 12.6552 150.315 13.3705 149.032 14.8012C147.774 16.2072 146.738 18.5382 145.924 21.7942H145.073C145.147 21.1529 145.184 20.2649 145.184 19.1302C145.184 16.9842 145.098 14.5422 144.925 11.8042C147.268 11.8782 151.301 11.9152 157.024 11.9152C162.722 11.9152 166.743 11.8782 169.086 11.8042Z" fill="white"/>
<path d="M184.227 18.2792C185.436 18.2792 186.299 18.6492 186.817 19.3892C187.36 20.1292 187.631 21.0049 187.631 22.0162C187.631 23.1262 187.31 24.0142 186.669 24.6802C186.052 25.3215 185.238 25.6422 184.227 25.6422C183.166 25.6422 182.352 25.4079 181.785 24.9392C181.218 24.4459 180.934 23.7922 180.934 22.9782C180.934 21.5229 181.563 20.3759 182.821 19.5372C182.377 19.5372 181.982 19.6235 181.637 19.7962C181.02 20.0675 180.502 20.5115 180.083 21.1282C179.664 21.7202 179.454 22.3739 179.454 23.0892V34.1892C179.454 35.3485 179.688 36.1502 180.157 36.5942C180.65 37.0135 181.477 37.2232 182.636 37.2232V38.0002C182.315 38.0002 182.044 37.9879 181.822 37.9632C179.232 37.8892 177.505 37.8522 176.642 37.8522C175.877 37.8522 174.163 37.8892 171.499 37.9632C171.302 37.9879 171.043 38.0002 170.722 38.0002V37.2232C171.487 37.2232 172.017 37.0382 172.313 36.6682C172.634 36.2735 172.794 35.5705 172.794 34.5592V22.8302C172.794 21.6955 172.634 20.8692 172.313 20.3512C172.017 19.8332 171.487 19.5742 170.722 19.5742V18.7972C171.511 18.8712 172.276 18.9082 173.016 18.9082C175.581 18.9082 177.727 18.7355 179.454 18.3902V21.0542C180.391 19.2042 181.982 18.2792 184.227 18.2792Z" fill="white"/>
<path d="M199.718 34.4852C201.519 34.4852 203.011 33.6589 204.195 32.0062L204.824 32.2282C204.281 33.9549 203.356 35.4349 202.049 36.6682C200.766 37.9015 199.114 38.5182 197.091 38.5182C194.501 38.5182 192.429 37.7165 190.875 36.1132C189.321 34.5099 188.544 31.9445 188.544 28.4172C188.544 25.0379 189.407 22.5095 191.134 20.8322C192.885 19.1302 195.192 18.2792 198.053 18.2792C202.715 18.2792 205.046 21.0419 205.046 26.5672H195.5C195.475 26.8632 195.463 27.3072 195.463 27.8992C195.463 30.2672 195.87 31.9569 196.684 32.9682C197.523 33.9795 198.534 34.4852 199.718 34.4852ZM197.794 19.1302C196.413 19.1302 195.599 21.3749 195.352 25.8642H199.644C199.669 23.8909 199.521 22.2752 199.2 21.0172C198.904 19.7592 198.435 19.1302 197.794 19.1302Z" fill="white"/>
<path d="M211.593 38.2592C210.014 38.2592 208.818 37.8399 208.004 37.0012C207.214 36.1379 206.82 35.0649 206.82 33.7822C206.82 32.6722 207.103 31.7595 207.671 31.0442C208.262 30.3042 208.953 29.7369 209.743 29.3422C210.532 28.9475 211.556 28.5405 212.814 28.1212C214.146 27.6772 215.12 27.2702 215.737 26.9002C216.353 26.5302 216.662 26.0122 216.662 25.3462V22.0532C216.662 21.2639 216.464 20.5609 216.07 19.9442C215.675 19.3275 214.997 19.0192 214.035 19.0192C213.27 19.0192 212.579 19.2289 211.963 19.6482C212.801 19.9442 213.418 20.3882 213.813 20.9802C214.232 21.5475 214.442 22.1889 214.442 22.9042C214.442 23.8662 214.096 24.6432 213.406 25.2352C212.74 25.8025 211.926 26.0862 210.964 26.0862C210.001 26.0862 209.237 25.7902 208.67 25.1982C208.127 24.5815 207.856 23.8045 207.856 22.8672C207.856 22.1272 208.041 21.4859 208.411 20.9432C208.781 20.4005 209.36 19.9072 210.15 19.4632C211.531 18.6739 213.504 18.2792 216.07 18.2792C217.426 18.2792 218.598 18.4149 219.585 18.6862C220.571 18.9329 221.41 19.4139 222.101 20.1292C222.594 20.6472 222.915 21.3009 223.063 22.0902C223.235 22.8549 223.322 23.9279 223.322 25.3092V35.2252C223.322 35.8419 223.359 36.2612 223.433 36.4832C223.531 36.7052 223.692 36.8162 223.914 36.8162C224.086 36.8162 224.271 36.7669 224.469 36.6682C224.666 36.5449 224.851 36.4092 225.024 36.2612L225.394 36.8902C224.333 37.8029 222.816 38.2592 220.843 38.2592C219.363 38.2592 218.327 38.0125 217.735 37.5192C217.143 37.0012 216.822 36.3105 216.773 35.4472C215.613 37.3219 213.887 38.2592 211.593 38.2592ZM215.293 35.2992C215.811 35.2992 216.267 35.0895 216.662 34.6702V26.8632C216.44 27.2332 216.033 27.7142 215.441 28.3062C214.775 28.9475 214.269 29.5765 213.924 30.1932C213.578 30.7852 213.406 31.5992 213.406 32.6352C213.406 34.4112 214.035 35.2992 215.293 35.2992Z" fill="white"/>
<path d="M234.986 18.7972H238.612V19.5372H234.986V34.8922C234.986 35.3855 235.072 35.7309 235.245 35.9282C235.417 36.1255 235.701 36.2242 236.096 36.2242C236.392 36.2242 236.725 36.1379 237.095 35.9652C237.465 35.7925 237.798 35.5212 238.094 35.1512L238.649 35.5952C237.514 37.5439 235.763 38.5182 233.395 38.5182C231.693 38.5182 230.422 38.0989 229.584 37.2602C229.066 36.7422 228.72 36.1009 228.548 35.3362C228.4 34.5715 228.326 33.4985 228.326 32.1172V19.5372H225.514V18.7972H228.326V14.4312C229.658 14.4312 230.854 14.3079 231.915 14.0612C233 13.7899 234.024 13.3705 234.986 12.8032V18.7972Z" fill="white"/>
<path d="M270.01 34.5592C270.01 35.5705 270.158 36.2735 270.454 36.6682C270.775 37.0382 271.318 37.2232 272.082 37.2232V38.0002C269.418 37.9015 267.692 37.8522 266.902 37.8522C266.113 37.8522 264.485 37.9015 262.018 38.0002V37.2232C262.512 37.2232 262.857 37.0382 263.054 36.6682C263.252 36.2982 263.35 35.5952 263.35 34.5592V22.5342C263.35 21.7449 263.202 21.1652 262.906 20.7952C262.635 20.4005 262.179 20.2032 261.537 20.2032C260.896 20.2032 260.304 20.4745 259.761 21.0172C259.243 21.5599 258.923 22.2012 258.799 22.9412C258.849 23.5332 258.873 24.0635 258.873 24.5322V34.5592C258.873 35.5952 258.997 36.2982 259.243 36.6682C259.49 37.0382 259.934 37.2232 260.575 37.2232V38.0002C258.109 37.9015 256.505 37.8522 255.765 37.8522C254.976 37.8522 253.348 37.9015 250.881 38.0002V37.2232C251.375 37.2232 251.72 37.0382 251.917 36.6682C252.115 36.2735 252.213 35.5705 252.213 34.5592V22.5342C252.213 21.7449 252.102 21.1652 251.88 20.7952C251.658 20.4005 251.288 20.2032 250.77 20.2032C250.055 20.2032 249.426 20.4622 248.883 20.9802C248.365 21.4735 248.106 22.1025 248.106 22.8672V34.5592C248.106 35.5952 248.205 36.2982 248.402 36.6682C248.6 37.0382 248.945 37.2232 249.438 37.2232V38.0002C247.169 37.9015 245.664 37.8522 244.924 37.8522C244.086 37.8522 242.236 37.9015 239.374 38.0002V37.2232C240.139 37.2232 240.669 37.0382 240.965 36.6682C241.286 36.2735 241.446 35.5705 241.446 34.5592V22.8302C241.446 21.6955 241.286 20.8692 240.965 20.3512C240.669 19.8332 240.139 19.5742 239.374 19.5742V18.7972C240.164 18.8712 240.928 18.9082 241.668 18.9082C244.234 18.9082 246.38 18.7355 248.106 18.3902V21.0542C249.142 19.2042 250.98 18.2792 253.619 18.2792C255.593 18.2792 256.986 18.7725 257.8 19.7592C258.17 20.2032 258.442 20.7829 258.614 21.4982C259.231 20.3142 260.045 19.4879 261.056 19.0192C262.092 18.5259 263.326 18.2792 264.756 18.2792C266.73 18.2792 268.123 18.7725 268.937 19.7592C269.307 20.2032 269.579 20.8075 269.751 21.5722C269.924 22.3122 270.01 23.2989 270.01 24.5322V34.5592Z" fill="white"/>
<path d="M284.811 34.4852C286.612 34.4852 288.104 33.6589 289.288 32.0062L289.917 32.2282C289.374 33.9549 288.449 35.4349 287.142 36.6682C285.859 37.9015 284.207 38.5182 282.184 38.5182C279.594 38.5182 277.522 37.7165 275.968 36.1132C274.414 34.5099 273.637 31.9445 273.637 28.4172C273.637 25.0379 274.5 22.5095 276.227 20.8322C277.978 19.1302 280.285 18.2792 283.146 18.2792C287.808 18.2792 290.139 21.0419 290.139 26.5672H280.593C280.568 26.8632 280.556 27.3072 280.556 27.8992C280.556 30.2672 280.963 31.9569 281.777 32.9682C282.616 33.9795 283.627 34.4852 284.811 34.4852ZM282.887 19.1302C281.506 19.1302 280.692 21.3749 280.445 25.8642H284.737C284.762 23.8909 284.614 22.2752 284.293 21.0172C283.997 19.7592 283.528 19.1302 282.887 19.1302Z" fill="white"/>
<path d="M306.129 18.2792C308.102 18.2792 309.496 18.7725 310.31 19.7592C310.68 20.2032 310.951 20.8075 311.124 21.5722C311.297 22.3122 311.383 23.2989 311.383 24.5322V34.5592C311.383 35.5705 311.531 36.2735 311.827 36.6682C312.148 37.0382 312.69 37.2232 313.455 37.2232V38.0002C310.791 37.9015 309.064 37.8522 308.275 37.8522C307.436 37.8522 305.685 37.9015 303.021 38.0002V37.2232C303.662 37.2232 304.106 37.0382 304.353 36.6682C304.6 36.2735 304.723 35.5705 304.723 34.5592V22.5342C304.723 21.7449 304.575 21.1652 304.279 20.7952C304.008 20.4005 303.551 20.2032 302.91 20.2032C302.195 20.2032 301.566 20.4622 301.023 20.9802C300.505 21.4735 300.246 22.1025 300.246 22.8672V34.5592C300.246 35.5705 300.369 36.2735 300.616 36.6682C300.863 37.0382 301.307 37.2232 301.948 37.2232V38.0002C299.481 37.9015 297.853 37.8522 297.064 37.8522C296.225 37.8522 294.375 37.9015 291.514 38.0002V37.2232C292.279 37.2232 292.809 37.0382 293.105 36.6682C293.426 36.2735 293.586 35.5705 293.586 34.5592V22.8302C293.586 21.6955 293.426 20.8692 293.105 20.3512C292.809 19.8332 292.279 19.5742 291.514 19.5742V18.7972C292.303 18.8712 293.068 18.9082 293.808 18.9082C296.373 18.9082 298.519 18.7355 300.246 18.3902V21.0542C301.356 19.2042 303.317 18.2792 306.129 18.2792Z" fill="white"/>
<path d="M323.186 18.7972H326.812V19.5372H323.186V34.8922C323.186 35.3855 323.272 35.7309 323.445 35.9282C323.618 36.1255 323.901 36.2242 324.296 36.2242C324.592 36.2242 324.925 36.1379 325.295 35.9652C325.665 35.7925 325.998 35.5212 326.294 35.1512L326.849 35.5952C325.714 37.5439 323.963 38.5182 321.595 38.5182C319.893 38.5182 318.623 38.0989 317.784 37.2602C317.266 36.7422 316.921 36.1009 316.748 35.3362C316.6 34.5715 316.526 33.4985 316.526 32.1172V19.5372H313.714V18.7972H316.526V14.4312C317.858 14.4312 319.054 14.3079 320.115 14.0612C321.2 13.7899 322.224 13.3705 323.186 12.8032V18.7972Z" fill="white"/>
</svg>
