<svg width="238" height="141" viewBox="0 0 238 141" fill="none" xmlns="http://www.w3.org/2000/svg">
<path d="M39.0483 122.98H41.4003V123.461H39.0483V133.457C39.0483 133.778 39.1043 134.003 39.2163 134.131C39.3283 134.26 39.5123 134.324 39.7683 134.324C39.9603 134.324 40.1763 134.268 40.4163 134.155C40.6563 134.043 40.8723 133.866 41.0643 133.625L41.4243 133.914C40.6883 135.183 39.5523 135.817 38.0163 135.817C36.9123 135.817 36.0883 135.544 35.5443 134.998C35.2083 134.661 34.9843 134.244 34.8723 133.746C34.7763 133.248 34.7283 132.55 34.7283 131.65V123.461H32.9043V122.98H34.7283V120.138C35.5923 120.138 36.3683 120.057 37.0563 119.897C37.7603 119.72 38.4243 119.447 39.0483 119.078V122.98Z" fill="#65C8CA"/>
<path d="M48.1623 122.643C50.1303 122.643 51.6503 123.164 52.7223 124.208C53.7943 125.236 54.3303 126.914 54.3303 129.242C54.3303 131.57 53.7943 133.248 52.7223 134.276C51.6503 135.303 50.1303 135.817 48.1623 135.817C46.1943 135.817 44.6743 135.303 43.6023 134.276C42.5303 133.248 41.9943 131.57 41.9943 129.242C41.9943 126.914 42.5303 125.236 43.6023 124.208C44.6743 123.164 46.1943 122.643 48.1623 122.643ZM48.1623 123.124C47.6503 123.124 47.2423 123.63 46.9383 124.642C46.6343 125.653 46.4823 127.187 46.4823 129.242C46.4823 131.297 46.6343 132.831 46.9383 133.842C47.2423 134.838 47.6503 135.335 48.1623 135.335C48.6743 135.335 49.0823 134.838 49.3863 133.842C49.6903 132.831 49.8423 131.297 49.8423 129.242C49.8423 127.187 49.6903 125.653 49.3863 124.642C49.0823 123.63 48.6743 123.124 48.1623 123.124Z" fill="#65C8CA"/>
<path d="M70.4242 123.076C71.3362 123.076 71.9522 123.044 72.2722 122.98V123.485C71.9362 123.598 71.6242 123.831 71.3362 124.184C71.0642 124.537 70.8082 125.083 70.5682 125.822L67.5682 134.782L66.5602 137.696C66.2722 138.531 65.9202 139.109 65.5042 139.43C65.0082 139.815 64.2642 140.008 63.2722 140.008C62.4722 140.008 61.7282 139.815 61.0402 139.43C60.3522 139.061 60.0082 138.499 60.0082 137.744C60.0082 137.182 60.2242 136.732 60.6562 136.395C61.0882 136.058 61.6562 135.889 62.3602 135.889C63.0322 135.889 63.5602 136.042 63.9442 136.347C64.3282 136.652 64.5202 137.094 64.5202 137.672C64.5202 138.057 64.3842 138.418 64.1122 138.756C63.8562 139.109 63.4722 139.366 62.9602 139.526C63.1202 139.558 63.3922 139.574 63.7762 139.574C64.8802 139.574 65.6402 138.932 66.0562 137.648L66.1762 137.238L60.5842 124.834C60.3442 124.288 60.1042 123.927 59.8642 123.75C59.6402 123.574 59.4162 123.485 59.1922 123.485V122.98C60.4722 123.076 61.7762 123.124 63.1042 123.124C64.1442 123.124 65.3042 123.076 66.5842 122.98V123.485C66.1202 123.485 65.7602 123.518 65.5042 123.582C65.2642 123.646 65.1442 123.791 65.1442 124.015C65.1442 124.144 65.1762 124.272 65.2402 124.401L68.1922 131.458L69.2002 128.375C69.5042 127.444 69.6562 126.625 69.6562 125.918C69.6562 125.163 69.4962 124.577 69.1762 124.16C68.8562 123.742 68.4322 123.518 67.9042 123.485V122.98C68.4962 123.044 69.3362 123.076 70.4242 123.076Z" fill="#65C8CA"/>
<path d="M78.842 122.643C80.81 122.643 82.33 123.164 83.402 124.208C84.474 125.236 85.01 126.914 85.01 129.242C85.01 131.57 84.474 133.248 83.402 134.276C82.33 135.303 80.81 135.817 78.842 135.817C76.874 135.817 75.354 135.303 74.282 134.276C73.21 133.248 72.674 131.57 72.674 129.242C72.674 126.914 73.21 125.236 74.282 124.208C75.354 123.164 76.874 122.643 78.842 122.643ZM78.842 123.124C78.33 123.124 77.922 123.63 77.618 124.642C77.314 125.653 77.162 127.187 77.162 129.242C77.162 131.297 77.314 132.831 77.618 133.842C77.922 134.838 78.33 135.335 78.842 135.335C79.354 135.335 79.762 134.838 80.066 133.842C80.37 132.831 80.522 131.297 80.522 129.242C80.522 127.187 80.37 125.653 80.066 124.642C79.762 123.63 79.354 123.124 78.842 123.124Z" fill="#65C8CA"/>
<path d="M98.9101 132.855C98.9101 133.593 99.0061 134.131 99.1981 134.468C99.4061 134.806 99.7581 134.974 100.254 134.974V135.48C99.7581 135.432 99.2621 135.408 98.7661 135.408C97.1021 135.408 95.7101 135.52 94.5901 135.745V134.011C93.8701 135.215 92.5981 135.817 90.7741 135.817C89.4941 135.817 88.5901 135.496 88.0621 134.854C87.8221 134.565 87.6461 134.179 87.5341 133.698C87.4221 133.2 87.3661 132.55 87.3661 131.747V125.605C87.3661 124.866 87.2621 124.328 87.0541 123.991C86.8621 123.654 86.5181 123.485 86.0221 123.485V122.98C86.5181 123.028 87.0141 123.052 87.5101 123.052C89.1741 123.052 90.5661 122.94 91.6861 122.715V133.047C91.6861 133.561 91.7741 133.947 91.9501 134.203C92.1421 134.444 92.4461 134.565 92.8621 134.565C93.3261 134.565 93.7261 134.404 94.0621 134.083C94.4141 133.746 94.5901 133.328 94.5901 132.831V125.605C94.5901 124.866 94.4861 124.328 94.2781 123.991C94.0861 123.654 93.7421 123.485 93.2461 123.485V122.98C93.7421 123.028 94.2381 123.052 94.7341 123.052C96.3981 123.052 97.7901 122.94 98.9101 122.715V132.855Z" fill="#65C8CA"/>
<path d="M109.952 122.643C110.736 122.643 111.296 122.883 111.632 123.365C111.984 123.847 112.16 124.417 112.16 125.075C112.16 125.798 111.952 126.376 111.536 126.809C111.136 127.227 110.608 127.435 109.952 127.435C109.264 127.435 108.736 127.283 108.368 126.978C108 126.657 107.816 126.231 107.816 125.701C107.816 124.754 108.224 124.007 109.04 123.461C108.752 123.461 108.496 123.518 108.272 123.63C107.872 123.807 107.536 124.096 107.264 124.497C106.992 124.882 106.856 125.308 106.856 125.774V132.999C106.856 133.754 107.008 134.276 107.312 134.565C107.632 134.838 108.168 134.974 108.92 134.974V135.48C108.712 135.48 108.536 135.472 108.392 135.456C106.712 135.408 105.592 135.384 105.032 135.384C104.536 135.384 103.424 135.408 101.696 135.456C101.568 135.472 101.4 135.48 101.192 135.48V134.974C101.688 134.974 102.032 134.854 102.224 134.613C102.432 134.356 102.536 133.898 102.536 133.24V125.605C102.536 124.866 102.432 124.328 102.224 123.991C102.032 123.654 101.688 123.485 101.192 123.485V122.98C101.704 123.028 102.2 123.052 102.68 123.052C104.344 123.052 105.736 122.94 106.856 122.715V124.449C107.464 123.245 108.496 122.643 109.952 122.643Z" fill="#65C8CA"/>
<path d="M137.447 133.24C137.447 133.898 137.543 134.356 137.735 134.613C137.943 134.854 138.295 134.974 138.791 134.974V135.48C137.063 135.416 135.943 135.384 135.431 135.384C134.919 135.384 133.863 135.416 132.263 135.48V134.974C132.583 134.974 132.807 134.854 132.935 134.613C133.063 134.372 133.127 133.914 133.127 133.24V125.412C133.127 124.899 133.031 124.521 132.839 124.28C132.663 124.023 132.367 123.895 131.951 123.895C131.535 123.895 131.151 124.072 130.799 124.425C130.463 124.778 130.255 125.196 130.175 125.677C130.207 126.063 130.223 126.408 130.223 126.713V133.24C130.223 133.914 130.303 134.372 130.463 134.613C130.623 134.854 130.911 134.974 131.327 134.974V135.48C129.727 135.416 128.687 135.384 128.207 135.384C127.695 135.384 126.639 135.416 125.039 135.48V134.974C125.359 134.974 125.583 134.854 125.711 134.613C125.839 134.356 125.903 133.898 125.903 133.24V125.412C125.903 124.899 125.831 124.521 125.687 124.28C125.543 124.023 125.303 123.895 124.967 123.895C124.503 123.895 124.095 124.064 123.743 124.401C123.407 124.722 123.239 125.131 123.239 125.629V133.24C123.239 133.914 123.303 134.372 123.431 134.613C123.559 134.854 123.783 134.974 124.103 134.974V135.48C122.631 135.416 121.655 135.384 121.175 135.384C120.631 135.384 119.431 135.416 117.575 135.48V134.974C118.071 134.974 118.415 134.854 118.607 134.613C118.815 134.356 118.919 133.898 118.919 133.24V125.605C118.919 124.866 118.815 124.328 118.607 123.991C118.415 123.654 118.071 123.485 117.575 123.485V122.98C118.087 123.028 118.583 123.052 119.063 123.052C120.727 123.052 122.119 122.94 123.239 122.715V124.449C123.911 123.245 125.103 122.643 126.815 122.643C128.095 122.643 128.999 122.964 129.527 123.606C129.767 123.895 129.943 124.272 130.055 124.738C130.455 123.967 130.983 123.429 131.639 123.124C132.311 122.803 133.111 122.643 134.039 122.643C135.319 122.643 136.223 122.964 136.751 123.606C136.991 123.895 137.167 124.288 137.279 124.786C137.391 125.268 137.447 125.91 137.447 126.713V133.24Z" fill="#65C8CA"/>
<path d="M142.679 135.649C141.655 135.649 140.879 135.376 140.351 134.83C139.839 134.268 139.583 133.569 139.583 132.734C139.583 132.012 139.767 131.418 140.135 130.952C140.519 130.47 140.967 130.101 141.479 129.844C141.991 129.587 142.655 129.322 143.471 129.049C144.335 128.76 144.967 128.495 145.367 128.254C145.767 128.014 145.967 127.676 145.967 127.243V125.099C145.967 124.585 145.839 124.128 145.583 123.726C145.327 123.325 144.887 123.124 144.263 123.124C143.767 123.124 143.319 123.261 142.919 123.534C143.463 123.726 143.863 124.015 144.119 124.401C144.391 124.77 144.527 125.188 144.527 125.653C144.527 126.279 144.303 126.785 143.855 127.171C143.423 127.54 142.895 127.725 142.271 127.725C141.647 127.725 141.151 127.532 140.783 127.146C140.431 126.745 140.255 126.239 140.255 125.629C140.255 125.147 140.375 124.73 140.615 124.377C140.855 124.023 141.231 123.702 141.743 123.413C142.639 122.899 143.919 122.643 145.583 122.643C146.463 122.643 147.223 122.731 147.863 122.907C148.503 123.068 149.047 123.381 149.495 123.847C149.815 124.184 150.023 124.609 150.119 125.123C150.231 125.621 150.287 126.32 150.287 127.219V133.674C150.287 134.075 150.311 134.348 150.359 134.492C150.423 134.637 150.527 134.709 150.671 134.709C150.783 134.709 150.903 134.677 151.031 134.613C151.159 134.533 151.279 134.444 151.391 134.348L151.631 134.757C150.943 135.352 149.959 135.649 148.679 135.649C147.719 135.649 147.047 135.488 146.663 135.167C146.279 134.83 146.071 134.38 146.039 133.818C145.287 135.038 144.167 135.649 142.679 135.649ZM145.079 133.722C145.415 133.722 145.711 133.585 145.967 133.312V128.23C145.823 128.471 145.559 128.784 145.175 129.17C144.743 129.587 144.415 129.997 144.191 130.398C143.967 130.783 143.855 131.313 143.855 131.988C143.855 133.144 144.263 133.722 145.079 133.722Z" fill="#65C8CA"/>
<path d="M155.669 116.645C156.501 116.645 157.141 116.822 157.589 117.175C158.053 117.528 158.285 118.042 158.285 118.717C158.285 119.391 158.053 119.905 157.589 120.258C157.141 120.611 156.501 120.788 155.669 120.788C154.821 120.788 154.173 120.611 153.725 120.258C153.277 119.905 153.053 119.391 153.053 118.717C153.053 118.042 153.277 117.528 153.725 117.175C154.173 116.822 154.821 116.645 155.669 116.645ZM157.973 133.24C157.973 133.898 158.069 134.356 158.261 134.613C158.469 134.854 158.821 134.974 159.317 134.974V135.48C157.589 135.416 156.453 135.384 155.909 135.384C155.365 135.384 154.165 135.416 152.309 135.48V134.974C152.805 134.974 153.149 134.854 153.341 134.613C153.549 134.356 153.653 133.898 153.653 133.24V125.605C153.653 124.866 153.549 124.328 153.341 123.991C153.149 123.654 152.805 123.485 152.309 123.485V122.98C152.821 123.028 153.317 123.052 153.797 123.052C155.461 123.052 156.853 122.94 157.973 122.715V133.24Z" fill="#65C8CA"/>
<path d="M165.823 133.24C165.823 133.898 165.919 134.356 166.111 134.613C166.319 134.854 166.671 134.974 167.167 134.974V135.48C165.439 135.416 164.303 135.384 163.759 135.384C163.215 135.384 162.015 135.416 160.159 135.48V134.974C160.655 134.974 160.999 134.854 161.191 134.613C161.399 134.356 161.503 133.898 161.503 133.24V119.536C161.503 118.797 161.399 118.259 161.191 117.922C160.999 117.585 160.655 117.416 160.159 117.416V116.91C160.655 116.958 161.151 116.982 161.647 116.982C163.311 116.982 164.703 116.87 165.823 116.645V133.24Z" fill="#65C8CA"/>
<path d="M177.082 122.643C178.33 122.643 179.338 123.156 180.106 124.184C180.874 125.212 181.258 126.713 181.258 128.688C181.258 131.241 180.746 133.071 179.722 134.179C178.698 135.271 177.346 135.817 175.666 135.817C175.154 135.817 174.722 135.801 174.37 135.769C174.034 135.737 173.722 135.657 173.434 135.528C172.842 135.287 172.226 135.167 171.586 135.167C171.106 135.167 170.658 135.231 170.242 135.36C169.826 135.488 169.506 135.657 169.282 135.865L168.946 135.625C169.058 135.287 169.114 134.846 169.114 134.3V119.536C169.114 118.797 169.01 118.259 168.802 117.922C168.61 117.585 168.266 117.416 167.77 117.416V116.91C168.266 116.958 168.762 116.982 169.258 116.982C170.922 116.982 172.314 116.87 173.434 116.645V124.449C174.17 123.245 175.386 122.643 177.082 122.643ZM174.562 135.335C176.034 135.335 176.77 133.304 176.77 129.242C176.77 127.267 176.626 125.886 176.338 125.099C176.05 124.296 175.658 123.895 175.162 123.895C174.698 123.895 174.29 124.064 173.938 124.401C173.602 124.722 173.434 125.131 173.434 125.629V135.046C173.802 135.239 174.178 135.335 174.562 135.335Z" fill="#65C8CA"/>
<path d="M188.928 122.643C190.896 122.643 192.416 123.164 193.488 124.208C194.56 125.236 195.096 126.914 195.096 129.242C195.096 131.57 194.56 133.248 193.488 134.276C192.416 135.303 190.896 135.817 188.928 135.817C186.96 135.817 185.44 135.303 184.368 134.276C183.296 133.248 182.76 131.57 182.76 129.242C182.76 126.914 183.296 125.236 184.368 124.208C185.44 123.164 186.96 122.643 188.928 122.643ZM188.928 123.124C188.416 123.124 188.008 123.63 187.704 124.642C187.4 125.653 187.248 127.187 187.248 129.242C187.248 131.297 187.4 132.831 187.704 133.842C188.008 134.838 188.416 135.335 188.928 135.335C189.44 135.335 189.848 134.838 190.152 133.842C190.456 132.831 190.608 131.297 190.608 129.242C190.608 127.187 190.456 125.653 190.152 124.642C189.848 123.63 189.44 123.124 188.928 123.124Z" fill="#65C8CA"/>
<path d="M207.424 133.77C207.696 134.139 207.912 134.42 208.072 134.613C208.248 134.806 208.448 134.926 208.672 134.974V135.48C207.072 135.416 206.024 135.384 205.528 135.384C205.048 135.384 203.944 135.416 202.216 135.48V134.974C202.44 134.974 202.616 134.934 202.744 134.854C202.872 134.773 202.936 134.669 202.936 134.541C202.936 134.396 202.896 134.268 202.816 134.155L200.464 130.591L200.248 130.856C199.656 131.61 199.36 132.357 199.36 133.096C199.36 133.625 199.512 134.067 199.816 134.42C200.136 134.757 200.552 134.95 201.064 134.998V135.48C200.088 135.432 198.784 135.408 197.152 135.408C196.512 135.408 195.976 135.432 195.544 135.48V134.998C195.944 134.806 196.312 134.557 196.648 134.252C197 133.931 197.384 133.521 197.8 133.023L200.224 130.229L196.552 124.69C196.296 124.288 196.08 123.999 195.904 123.823C195.728 123.646 195.528 123.534 195.304 123.485V122.98C197.16 123.044 198.368 123.076 198.928 123.076C199.344 123.076 200.288 123.044 201.76 122.98V123.485C201.536 123.485 201.36 123.526 201.232 123.606C201.104 123.686 201.04 123.791 201.04 123.919C201.04 124.047 201.08 124.176 201.16 124.304L203.248 127.46L203.656 126.978C204.248 126.239 204.544 125.557 204.544 124.931C204.544 124.513 204.408 124.176 204.136 123.919C203.88 123.646 203.512 123.494 203.032 123.461V122.98C204.008 123.028 205.072 123.052 206.224 123.052C206.864 123.052 207.4 123.028 207.832 122.98V123.461C207.176 123.75 206.424 124.409 205.576 125.436L203.512 127.845L207.424 133.77Z" fill="#65C8CA"/>
<path d="M21.2549 46.6051V54.9868C21.2549 56.2714 21.3829 57.2187 21.639 57.8289C21.927 58.4069 22.407 58.7923 23.079 58.985C23.783 59.1777 24.887 59.2901 26.391 59.3222V60.3819C22.455 60.2856 19.5269 60.2374 17.6069 60.2374C16.0069 60.2374 13.9909 60.2695 11.5589 60.3338L10.0229 60.3819V59.4185C11.0789 59.3543 11.8469 59.2258 12.3269 59.0332C12.8389 58.8405 13.1749 58.4712 13.3349 57.9252C13.5269 57.3793 13.6229 56.4962 13.6229 55.2758V31.3832C13.6229 30.1629 13.5269 29.2797 13.3349 28.7338C13.1749 28.1879 12.8389 27.8186 12.3269 27.6259C11.8469 27.4332 11.0789 27.3047 10.0229 27.2405V26.2771C11.6549 26.3734 14.0869 26.4216 17.3189 26.4216L22.6469 26.3734C23.2869 26.3413 24.0229 26.3253 24.8549 26.3253C29.1749 26.3253 32.471 27.1924 34.743 28.9265C37.0149 30.6285 38.1509 32.9247 38.1509 35.8149C38.1509 37.5812 37.7029 39.2832 36.8069 40.921C35.9109 42.5267 34.3909 43.8755 32.247 44.9673C30.135 46.0592 27.319 46.6051 23.799 46.6051H21.2549ZM24.2309 27.2405C23.3669 27.2405 22.7269 27.3529 22.311 27.5777C21.927 27.8025 21.655 28.2039 21.4949 28.782C21.3349 29.36 21.2549 30.2271 21.2549 31.3832V45.6417H23.319C25.911 45.6417 27.7029 44.8068 28.695 43.1368C29.687 41.4669 30.183 39.2029 30.183 36.3448C30.183 33.2297 29.719 30.9336 28.791 29.4564C27.895 27.9791 26.375 27.2405 24.2309 27.2405Z" fill="#65C8CA"/>
<path d="M54.805 34.8033C56.2449 34.8033 57.333 35.2369 58.069 36.1039C58.805 36.971 59.173 38.0147 59.173 39.235C59.173 40.4232 58.821 41.4027 58.117 42.1734C57.445 42.912 56.549 43.2814 55.429 43.2814C54.341 43.2814 53.4769 43.0084 52.8369 42.4625C52.1969 41.8844 51.8769 41.1297 51.8769 40.1984C51.8769 38.657 52.5809 37.4045 53.9889 36.4411C53.8609 36.409 53.6689 36.3929 53.4129 36.3929C53.0929 36.3929 52.837 36.4251 52.645 36.4893C51.429 36.682 50.389 37.4206 49.525 38.7051C48.693 39.9897 48.277 41.3064 48.277 42.6551V55.4204C48.277 56.8976 48.629 57.9252 49.333 58.5033C50.069 59.0813 51.2209 59.3704 52.7889 59.3704V60.3819C52.341 60.3819 51.9729 60.3659 51.6849 60.3338C48.4209 60.2374 46.2449 60.1893 45.1569 60.1893C44.2929 60.1893 42.3249 60.2374 39.2529 60.3338C38.9969 60.3659 38.677 60.3819 38.2929 60.3819V59.3704C39.445 59.3704 40.245 59.1295 40.693 58.6478C41.141 58.134 41.3649 57.2187 41.3649 55.9021V40.7283C41.3649 39.2511 41.141 38.1753 40.693 37.5009C40.245 36.8265 39.445 36.4893 38.2929 36.4893V35.4777C39.3169 35.574 40.3089 35.6222 41.2689 35.6222C44.1169 35.6222 46.4529 35.3974 48.277 34.9478V39.4277C48.885 38.0468 49.7649 36.9389 50.917 36.1039C52.069 35.2369 53.365 34.8033 54.805 34.8033Z" fill="#65C8CA"/>
<path d="M72.1549 57.1063C74.7789 57.1063 76.891 55.8218 78.491 53.2527L79.3549 53.5417C78.715 55.6291 77.563 57.4114 75.899 58.8887C74.267 60.3338 72.2189 61.0563 69.7549 61.0563C66.3629 61.0563 63.6589 59.9805 61.6429 57.8289C59.6589 55.6452 58.667 52.4338 58.667 48.1948C58.667 43.8594 59.7389 40.5517 61.8829 38.2716C64.027 35.9594 66.8749 34.8033 70.4269 34.8033C76.4429 34.8033 79.4509 38.3679 79.4509 45.4972H65.9629C65.9309 45.9789 65.915 46.7336 65.915 47.7612C65.915 49.8807 66.2029 51.647 66.7789 53.06C67.3869 54.473 68.1549 55.5006 69.083 56.1429C70.0429 56.7852 71.0669 57.1063 72.1549 57.1063ZM70.139 35.8149C68.9869 35.8149 68.027 36.5375 67.2589 37.9826C66.5229 39.3956 66.059 41.5954 65.867 44.582H73.403C73.4669 42.045 73.211 39.9576 72.635 38.3198C72.091 36.6499 71.2589 35.8149 70.139 35.8149Z" fill="#65C8CA"/>
<path d="M89.7345 34.8033C90.9505 34.8033 92.0704 34.9639 93.0945 35.285C94.1185 35.574 94.9025 35.9112 95.4465 36.2966C95.7665 36.5214 96.0545 36.6338 96.3105 36.6338C96.5985 36.6338 96.8385 36.4893 97.0305 36.2003C97.2545 35.8791 97.3984 35.4295 97.4624 34.8515H98.4704C98.3424 36.4893 98.2784 39.3153 98.2784 43.3295H97.2704C96.9824 41.21 96.3424 39.4438 95.3504 38.0308C94.3904 36.5856 92.9825 35.8631 91.1264 35.8631C90.1665 35.8631 89.3665 36.136 88.7265 36.682C88.1185 37.2279 87.8145 37.9826 87.8145 38.946C87.8145 40.0379 88.1825 40.9852 88.9185 41.7881C89.6545 42.5588 90.8064 43.5061 92.3745 44.6301L93.7664 45.6417C95.7184 47.1189 97.1585 48.4356 98.0865 49.5917C99.0145 50.7478 99.4785 52.1929 99.4785 53.9271C99.4785 55.3401 99.0625 56.5925 98.2305 57.6844C97.4305 58.7763 96.3424 59.6112 94.9664 60.1893C93.5904 60.7673 92.0704 61.0563 90.4064 61.0563C88.6464 61.0563 87.1425 60.7191 85.8945 60.0447C84.8705 59.5309 84.1344 59.1937 83.6864 59.0332C83.3664 58.9368 83.0784 59.0492 82.8224 59.3704C82.5984 59.6594 82.4224 60.109 82.2944 60.7191H81.2865C81.4145 58.8886 81.4785 55.6773 81.4785 51.085H82.4865C83.1264 56.9939 85.2864 59.9484 88.9664 59.9484C89.8944 59.9484 90.6785 59.6754 91.3185 59.1295C91.9904 58.5515 92.3264 57.6844 92.3264 56.5283C92.3264 55.6291 92.1185 54.8263 91.7025 54.1198C91.3185 53.4132 90.8224 52.787 90.2144 52.2411C89.6064 51.6952 88.6945 50.9405 87.4785 49.9771C86.0385 48.821 84.9344 47.8897 84.1664 47.1832C83.4304 46.4767 82.7904 45.6417 82.2464 44.6783C81.7344 43.7149 81.4785 42.6391 81.4785 41.4509C81.4785 39.3956 82.2785 37.7738 83.8784 36.5856C85.4784 35.3974 87.4305 34.8033 89.7345 34.8033Z" fill="#65C8CA"/>
<path d="M112.882 34.8033C114.066 34.8033 115.186 34.9318 116.242 35.1887C117.298 35.4456 118.178 35.7988 118.882 36.2484C119.714 36.7623 120.354 37.4206 120.802 38.2234C121.282 38.9942 121.522 39.8452 121.522 40.7765C121.522 41.9005 121.17 42.8318 120.466 43.5704C119.762 44.2769 118.85 44.6301 117.73 44.6301C116.61 44.6301 115.714 44.309 115.042 43.6667C114.37 43.0244 114.034 42.1574 114.034 41.0655C114.034 40.1021 114.338 39.2671 114.946 38.5606C115.554 37.8541 116.306 37.3724 117.202 37.1155C116.946 36.7623 116.546 36.4893 116.002 36.2966C115.49 36.0718 114.93 35.9594 114.322 35.9594C112.402 35.9594 110.898 37.0192 109.81 39.1387C108.754 41.2261 108.226 43.9718 108.226 47.3759C108.226 50.812 108.834 53.2848 110.05 54.7941C111.266 56.3035 112.786 57.0582 114.61 57.0582C115.698 57.0582 116.786 56.7691 117.874 56.1911C118.994 55.613 120.002 54.6015 120.898 53.1563L121.714 53.4454C121.074 55.5328 119.954 57.3311 118.354 58.8405C116.754 60.3177 114.69 61.0563 112.162 61.0563C108.866 61.0563 106.178 59.9645 104.098 57.7807C102.018 55.597 100.978 52.3535 100.978 48.0502C100.978 45.2242 101.49 42.8157 102.514 40.8246C103.538 38.8336 104.946 37.3403 106.738 36.3448C108.53 35.3171 110.578 34.8033 112.882 34.8033Z" fill="#65C8CA"/>
<path d="M138.727 34.8033C140.167 34.8033 141.255 35.2369 141.991 36.1039C142.727 36.971 143.095 38.0147 143.095 39.235C143.095 40.4232 142.743 41.4027 142.039 42.1734C141.367 42.912 140.471 43.2814 139.351 43.2814C138.263 43.2814 137.399 43.0084 136.759 42.4625C136.119 41.8844 135.799 41.1297 135.799 40.1984C135.799 38.657 136.503 37.4045 137.911 36.4411C137.783 36.409 137.591 36.3929 137.335 36.3929C137.015 36.3929 136.759 36.4251 136.567 36.4893C135.351 36.682 134.311 37.4206 133.447 38.7051C132.615 39.9897 132.199 41.3064 132.199 42.6551V55.4204C132.199 56.8976 132.551 57.9252 133.255 58.5033C133.991 59.0813 135.143 59.3704 136.711 59.3704V60.3819C136.263 60.3819 135.895 60.3659 135.607 60.3338C132.343 60.2374 130.167 60.1893 129.079 60.1893C128.215 60.1893 126.247 60.2374 123.175 60.3338C122.919 60.3659 122.599 60.3819 122.215 60.3819V59.3704C123.367 59.3704 124.167 59.1295 124.615 58.6478C125.063 58.134 125.287 57.2187 125.287 55.9021V40.7283C125.287 39.2511 125.063 38.1753 124.615 37.5009C124.167 36.8265 123.367 36.4893 122.215 36.4893V35.4777C123.239 35.574 124.231 35.6222 125.191 35.6222C128.039 35.6222 130.375 35.3974 132.199 34.9478V39.4277C132.807 38.0468 133.687 36.9389 134.839 36.1039C135.991 35.2369 137.287 34.8033 138.727 34.8033Z" fill="#65C8CA"/>
<path d="M148.861 23.0497C150.205 23.0497 151.261 23.3869 152.029 24.0613C152.829 24.7035 153.229 25.6027 153.229 26.7588C153.229 27.9149 152.829 28.8302 152.029 29.5045C151.261 30.1468 150.205 30.468 148.861 30.468C147.517 30.468 146.445 30.1468 145.645 29.5045C144.877 28.8302 144.493 27.9149 144.493 26.7588C144.493 25.6027 144.877 24.7035 145.645 24.0613C146.445 23.3869 147.517 23.0497 148.861 23.0497ZM152.605 55.9021C152.605 57.2187 152.829 58.134 153.277 58.6478C153.757 59.1295 154.557 59.3704 155.677 59.3704V60.3819C152.477 60.2535 150.349 60.1893 149.293 60.1893C148.301 60.1893 146.077 60.2535 142.621 60.3819V59.3704C143.773 59.3704 144.573 59.1295 145.021 58.6478C145.469 58.134 145.693 57.2187 145.693 55.9021V40.7283C145.693 39.2511 145.469 38.1753 145.021 37.5009C144.573 36.8265 143.773 36.4893 142.621 36.4893V35.4777C143.645 35.574 144.637 35.6222 145.597 35.6222C148.445 35.6222 150.781 35.3974 152.605 34.9478V55.9021Z" fill="#65C8CA"/>
<path d="M172.226 34.8033C174.818 34.8033 176.914 35.8791 178.514 38.0308C180.114 40.1503 180.914 43.2332 180.914 47.2795C180.914 52.0002 179.89 55.4846 177.842 57.7326C175.794 59.9484 173.154 61.0563 169.922 61.0563C167.714 61.0563 165.922 60.4943 164.546 59.3704C163.394 59.274 162.242 59.4025 161.09 59.7557C159.938 60.109 159.026 60.5746 158.354 61.1527L157.634 60.7191C157.858 59.9163 157.97 59.0171 157.97 58.0216V28.493C157.97 27.0157 157.73 25.9399 157.25 25.2655C156.802 24.5911 156.018 24.2539 154.898 24.2539V23.2424C155.89 23.3387 156.882 23.3869 157.874 23.3869C160.658 23.3869 162.994 23.1621 164.882 22.7125V39.3795C165.554 37.9023 166.53 36.7783 167.81 36.0076C169.09 35.2047 170.562 34.8033 172.226 34.8033ZM168.434 60.0447C170.194 60.0447 171.506 59.0492 172.37 57.0582C173.234 55.0671 173.666 52.0324 173.666 47.9539C173.666 44.0039 173.298 41.1779 172.562 39.4759C171.826 37.7417 170.77 36.8747 169.394 36.8747C168.37 36.8747 167.426 37.26 166.562 38.0308C165.73 38.7694 165.17 39.781 164.882 41.0655V58.7441C165.938 59.6112 167.122 60.0447 168.434 60.0447Z" fill="#65C8CA"/>
<path d="M195.999 57.1063C198.623 57.1063 200.735 55.8218 202.335 53.2527L203.199 53.5417C202.559 55.6291 201.407 57.4114 199.743 58.8887C198.111 60.3338 196.063 61.0563 193.599 61.0563C190.207 61.0563 187.503 59.9805 185.487 57.8289C183.503 55.6452 182.511 52.4338 182.511 48.1948C182.511 43.8594 183.583 40.5517 185.727 38.2716C187.871 35.9594 190.719 34.8033 194.271 34.8033C200.287 34.8033 203.295 38.3679 203.295 45.4972H189.807C189.775 45.9789 189.759 46.7336 189.759 47.7612C189.759 49.8807 190.047 51.647 190.623 53.06C191.231 54.473 191.999 55.5006 192.927 56.1429C193.887 56.7852 194.911 57.1063 195.999 57.1063ZM193.983 35.8149C192.831 35.8149 191.871 36.5375 191.103 37.9826C190.367 39.3956 189.903 41.5954 189.711 44.582H197.247C197.311 42.045 197.055 39.9576 196.479 38.3198C195.935 36.6499 195.103 35.8149 193.983 35.8149Z" fill="#65C8CA"/>
<path d="M227.69 55.0832C227.69 56.5604 227.914 57.6362 228.362 58.3106C228.81 58.985 229.61 59.3222 230.762 59.3222V60.3338C229.77 60.2374 228.778 60.1893 227.786 60.1893C224.938 60.1893 222.602 60.4141 220.778 60.8636V56.721C219.69 59.6112 217.61 61.0563 214.538 61.0563C211.53 61.0563 209.13 59.9645 207.338 57.7807C205.578 55.5649 204.714 52.2411 204.746 47.8094C204.746 44.9834 205.194 42.607 206.09 40.6801C207.018 38.7212 208.282 37.26 209.882 36.2966C211.514 35.3011 213.37 34.8033 215.45 34.8033C217.786 34.8033 219.562 35.4135 220.778 36.6338V28.4448C220.778 26.9676 220.538 25.8917 220.058 25.2174C219.61 24.543 218.826 24.2058 217.706 24.2058V23.1942C218.73 23.2905 219.722 23.3387 220.682 23.3387C223.466 23.3387 225.802 23.1139 227.69 22.6643V55.0832ZM216.506 58.985C217.562 58.985 218.49 58.5996 219.29 57.8289C220.122 57.0582 220.618 56.0145 220.778 54.6978V37.8381C219.978 36.7462 218.81 36.2003 217.274 36.2003C215.578 36.2003 214.266 37.1797 213.338 39.1387C212.41 41.0976 211.962 44.02 211.994 47.9057C211.962 51.8236 212.33 54.6496 213.098 56.3838C213.898 58.1179 215.034 58.985 216.506 58.985Z" fill="#65C8CA"/>
<path d="M57.4643 72.4807C63.7043 72.4807 68.3763 73.9098 71.4803 76.7679C74.5843 79.5939 76.1363 83.7205 76.1363 89.1478C76.1363 92.6482 75.3683 95.715 73.8323 98.3484C72.3283 100.95 70.1363 102.973 67.2563 104.418C64.4083 105.863 61.0003 106.586 57.0323 106.586L54.0563 106.537C52.2003 106.473 50.8563 106.441 50.0243 106.441C46.7283 106.441 44.2643 106.489 42.6323 106.586V105.622C43.6883 105.558 44.4563 105.429 44.9363 105.237C45.4483 105.044 45.7843 104.675 45.9443 104.129C46.1363 103.583 46.2323 102.7 46.2323 101.479V77.5868C46.2323 76.3665 46.1363 75.4834 45.9443 74.9374C45.7843 74.3915 45.4483 74.0222 44.9363 73.8295C44.4563 73.6368 43.6883 73.5084 42.6323 73.4441V72.4807C43.9763 72.5771 45.9123 72.6252 48.4403 72.6252H49.9283L51.8483 72.5771C54.4723 72.5128 56.3443 72.4807 57.4643 72.4807ZM57.4163 73.3478C56.4243 73.3478 55.6723 73.4602 55.1603 73.685C54.6803 73.9098 54.3443 74.3112 54.1523 74.8893C53.9603 75.4673 53.8643 76.3344 53.8643 77.4905V101.576C53.8643 102.732 53.9603 103.599 54.1523 104.177C54.3443 104.755 54.6803 105.156 55.1603 105.381C55.6723 105.606 56.4403 105.718 57.4643 105.718C61.3363 105.718 64.0883 104.37 65.7203 101.672C67.3523 98.9425 68.1683 94.8319 68.1683 89.3405C68.1683 83.849 67.3203 79.8187 65.6243 77.2496C63.9603 74.6484 61.2243 73.3478 57.4163 73.3478Z" fill="#65C8CA"/>
<path d="M91.5299 103.31C94.1539 103.31 96.266 102.025 97.866 99.4563L98.7299 99.7453C98.09 101.833 96.938 103.615 95.274 105.092C93.642 106.537 91.5939 107.26 89.1299 107.26C85.7379 107.26 83.0339 106.184 81.0179 104.033C79.0339 101.849 78.042 98.6374 78.042 94.3984C78.042 90.063 79.1139 86.7553 81.2579 84.4752C83.402 82.163 86.2499 81.0069 89.8019 81.0069C95.8179 81.0069 98.826 84.5716 98.826 91.7008H85.3379C85.3059 92.1825 85.29 92.9372 85.29 93.9648C85.29 96.0843 85.5779 97.8506 86.1539 99.2636C86.7619 100.677 87.5299 101.704 88.458 102.347C89.4179 102.989 90.4419 103.31 91.5299 103.31ZM89.514 82.0185C88.3619 82.0185 87.402 82.7411 86.6339 84.1862C85.8979 85.5992 85.434 87.799 85.242 90.7856H92.778C92.8419 88.2486 92.5859 86.1612 92.0099 84.5234C91.466 82.8535 90.6339 82.0185 89.514 82.0185Z" fill="#65C8CA"/>
<path d="M109.397 102.106C109.397 103.422 109.621 104.338 110.069 104.851C110.517 105.333 111.317 105.574 112.469 105.574V106.586C109.141 106.457 106.997 106.393 106.037 106.393C104.949 106.393 102.741 106.457 99.4134 106.586V105.574C100.533 105.574 101.317 105.333 101.765 104.851C102.245 104.338 102.485 103.422 102.485 102.106V74.6484C102.485 73.1712 102.245 72.0954 101.765 71.421C101.317 70.7466 100.533 70.4094 99.4134 70.4094V69.3978C100.437 69.4941 101.429 69.5423 102.389 69.5423C105.173 69.5423 107.509 69.3175 109.397 68.8679V102.106Z" fill="#65C8CA"/>
<path d="M118.752 69.2533C120.096 69.2533 121.152 69.5905 121.92 70.2649C122.72 70.9071 123.12 71.8063 123.12 72.9624C123.12 74.1185 122.72 75.0338 121.92 75.7082C121.152 76.3504 120.096 76.6716 118.752 76.6716C117.408 76.6716 116.336 76.3504 115.536 75.7082C114.768 75.0338 114.384 74.1185 114.384 72.9624C114.384 71.8063 114.768 70.9071 115.536 70.2649C116.336 69.5905 117.408 69.2533 118.752 69.2533ZM122.496 102.106C122.496 103.422 122.72 104.338 123.168 104.851C123.648 105.333 124.448 105.574 125.568 105.574V106.586C122.368 106.457 120.24 106.393 119.184 106.393C118.192 106.393 115.968 106.457 112.512 106.586V105.574C113.664 105.574 114.464 105.333 114.912 104.851C115.36 104.338 115.584 103.422 115.584 102.106V86.9319C115.584 85.4547 115.36 84.3789 114.912 83.7045C114.464 83.0301 113.664 82.6929 112.512 82.6929V81.6813C113.536 81.7777 114.528 81.8258 115.488 81.8258C118.336 81.8258 120.672 81.601 122.496 81.1514V102.106Z" fill="#65C8CA"/>
<path d="M144.953 81.8258C146.585 81.8258 147.817 81.7777 148.649 81.6813V82.6447C147.977 82.8374 147.369 83.2549 146.825 83.8972C146.313 84.5073 145.817 85.4707 145.337 86.7874L138.329 106.682C137.977 106.65 137.449 106.634 136.745 106.634C136.073 106.634 135.561 106.65 135.209 106.682L126.665 85.3905C126.217 84.2986 125.753 83.576 125.273 83.2228C124.825 82.8695 124.361 82.6929 123.881 82.6929V81.6813C126.121 81.8419 128.393 81.9222 130.697 81.9222C132.713 81.9222 134.793 81.8419 136.937 81.6813V82.6929C135.849 82.6929 135.065 82.7732 134.585 82.9338C134.137 83.0622 133.913 83.4476 133.913 84.0899C133.913 84.3468 133.993 84.7482 134.153 85.2941L139.625 99.8898L143.081 90.352C143.593 88.8427 143.849 87.5421 143.849 86.4502C143.849 84.1059 142.681 82.8374 140.345 82.6447V81.6813C141.817 81.7777 143.353 81.8258 144.953 81.8258Z" fill="#65C8CA"/>
<path d="M161.249 103.31C163.873 103.31 165.985 102.025 167.585 99.4563L168.449 99.7453C167.809 101.833 166.657 103.615 164.993 105.092C163.361 106.537 161.313 107.26 158.849 107.26C155.457 107.26 152.753 106.184 150.737 104.033C148.753 101.849 147.761 98.6374 147.761 94.3984C147.761 90.063 148.833 86.7553 150.977 84.4752C153.121 82.163 155.969 81.0069 159.521 81.0069C165.537 81.0069 168.545 84.5716 168.545 91.7008H155.057C155.025 92.1825 155.009 92.9372 155.009 93.9648C155.009 96.0843 155.297 97.8506 155.873 99.2636C156.481 100.677 157.249 101.704 158.177 102.347C159.137 102.989 160.161 103.31 161.249 103.31ZM159.233 82.0185C158.081 82.0185 157.121 82.7411 156.353 84.1862C155.617 85.5992 155.153 87.799 154.961 90.7856H162.497C162.561 88.2486 162.305 86.1612 161.729 84.5234C161.185 82.8535 160.353 82.0185 159.233 82.0185Z" fill="#65C8CA"/>
<path d="M185.555 81.0069C186.995 81.0069 188.083 81.4405 188.819 82.3075C189.555 83.1746 189.923 84.2183 189.923 85.4386C189.923 86.6268 189.571 87.6063 188.867 88.377C188.195 89.1157 187.299 89.485 186.179 89.485C185.091 89.485 184.227 89.212 183.587 88.6661C182.947 88.088 182.627 87.3333 182.627 86.402C182.627 84.8606 183.331 83.6081 184.739 82.6447C184.611 82.6126 184.419 82.5966 184.163 82.5966C183.843 82.5966 183.587 82.6287 183.395 82.6929C182.179 82.8856 181.139 83.6242 180.275 84.9088C179.443 86.1933 179.027 87.51 179.027 88.8587V101.624C179.027 103.101 179.379 104.129 180.083 104.707C180.819 105.285 181.971 105.574 183.539 105.574V106.586C183.091 106.586 182.723 106.569 182.435 106.537C179.171 106.441 176.995 106.393 175.907 106.393C175.043 106.393 173.075 106.441 170.003 106.537C169.747 106.569 169.427 106.586 169.043 106.586V105.574C170.195 105.574 170.995 105.333 171.443 104.851C171.891 104.338 172.115 103.422 172.115 102.106V86.9319C172.115 85.4547 171.891 84.3789 171.443 83.7045C170.995 83.0301 170.195 82.6929 169.043 82.6929V81.6813C170.067 81.7777 171.059 81.8258 172.019 81.8258C174.867 81.8258 177.203 81.601 179.027 81.1514V85.6313C179.635 84.2504 180.515 83.1425 181.667 82.3075C182.819 81.4405 184.115 81.0069 185.555 81.0069Z" fill="#65C8CA"/>
<path d="M202.905 103.31C205.529 103.31 207.641 102.025 209.241 99.4563L210.105 99.7453C209.465 101.833 208.313 103.615 206.649 105.092C205.017 106.537 202.969 107.26 200.505 107.26C197.113 107.26 194.409 106.184 192.393 104.033C190.409 101.849 189.417 98.6374 189.417 94.3984C189.417 90.063 190.489 86.7553 192.633 84.4752C194.777 82.163 197.625 81.0069 201.177 81.0069C207.193 81.0069 210.201 84.5716 210.201 91.7008H196.713C196.681 92.1825 196.665 92.9372 196.665 93.9648C196.665 96.0843 196.953 97.8506 197.529 99.2636C198.137 100.677 198.905 101.704 199.833 102.347C200.793 102.989 201.817 103.31 202.905 103.31ZM200.889 82.0185C199.737 82.0185 198.777 82.7411 198.009 84.1862C197.273 85.5992 196.809 87.799 196.617 90.7856H204.153C204.217 88.2486 203.961 86.1612 203.385 84.5234C202.841 82.8535 202.009 82.0185 200.889 82.0185Z" fill="#65C8CA"/>
<path d="M234.596 101.287C234.596 102.764 234.82 103.84 235.268 104.514C235.716 105.189 236.516 105.526 237.668 105.526V106.537C236.676 106.441 235.684 106.393 234.692 106.393C231.844 106.393 229.508 106.618 227.684 107.067V102.925C226.596 105.815 224.516 107.26 221.444 107.26C218.436 107.26 216.036 106.168 214.244 103.984C212.484 101.768 211.62 98.4447 211.652 94.013C211.652 91.187 212.1 88.8106 212.996 86.8838C213.924 84.9248 215.188 83.4636 216.788 82.5002C218.42 81.5047 220.276 81.0069 222.356 81.0069C224.692 81.0069 226.468 81.6171 227.684 82.8374V74.6484C227.684 73.1712 227.444 72.0954 226.964 71.421C226.516 70.7466 225.732 70.4094 224.612 70.4094V69.3978C225.636 69.4941 226.628 69.5423 227.588 69.5423C230.372 69.5423 232.708 69.3175 234.596 68.8679V101.287ZM223.412 105.189C224.468 105.189 225.396 104.803 226.196 104.033C227.028 103.262 227.524 102.218 227.684 100.901V84.0417C226.884 82.9498 225.716 82.4039 224.18 82.4039C222.484 82.4039 221.172 83.3833 220.244 85.3423C219.316 87.3012 218.868 90.2236 218.9 94.1094C218.868 98.0272 219.236 100.853 220.004 102.587C220.804 104.322 221.94 105.189 223.412 105.189Z" fill="#65C8CA"/>
<path d="M37.8082 79.7182C37.8082 81.8966 37.0455 83.604 35.5202 84.8404C34.0242 86.0473 31.8095 86.9599 28.8762 87.5781L28.0842 87.843C29.4042 88.4318 30.4162 89.3738 31.1202 90.669C31.8242 91.9643 32.1762 93.4656 32.1762 95.173C32.1762 97.2336 31.5455 99.0882 30.2842 100.737C29.0229 102.356 27.2335 103.636 24.9162 104.578C22.6282 105.52 19.9882 105.991 16.9962 105.991C13.7695 105.991 10.9242 105.55 8.4602 104.667C6.02553 103.784 4.13353 102.518 2.7842 100.869C1.4642 99.1912 0.804199 97.2336 0.804199 94.9964C0.804199 92.9946 1.3322 91.3167 2.3882 89.9625C3.4442 88.579 4.6322 87.5339 5.9522 86.8274C7.30153 86.1209 8.56287 85.6205 9.7362 85.3261C6.42153 84.0014 4.7642 82.1469 4.7642 79.7624C4.7642 77.9667 5.62953 76.5684 7.3602 75.5675C9.09087 74.5372 11.1442 74.0221 13.5202 74.0221C14.6055 74.0221 15.5002 74.0957 16.2042 74.2428C16.9082 74.39 17.5389 74.6255 18.0962 74.9494C18.8882 75.332 19.5335 75.8178 20.0322 76.4065C20.5309 76.9953 20.7802 77.7018 20.7802 78.526C20.7802 79.3797 20.4429 80.0862 19.7682 80.6455C19.1229 81.1754 18.3309 81.4403 17.3922 81.4403C16.4535 81.4403 15.6762 81.2048 15.0602 80.7338C14.4735 80.2628 14.1802 79.5858 14.1802 78.7026C14.1802 77.9667 14.4442 77.3044 14.9722 76.7156C15.5002 76.0974 16.1749 75.7147 16.9962 75.5675C16.7322 75.332 16.3362 75.1407 15.8082 74.9935C15.2802 74.8463 14.7082 74.7727 14.0922 74.7727C12.4789 74.7727 11.1589 75.2732 10.1322 76.274C9.10553 77.2749 8.5922 78.7026 8.5922 80.5572C8.5922 82.2646 9.1642 83.7659 10.3082 85.0612C11.3935 84.8257 12.2149 84.7079 12.7722 84.7079C13.3002 84.7079 13.6962 84.8257 13.9602 85.0612C14.2535 85.2672 14.4002 85.5469 14.4002 85.9001C14.4002 86.1945 14.2829 86.43 14.0482 86.6067C13.8135 86.7538 13.5202 86.8274 13.1682 86.8274C12.7282 86.8274 12.3029 86.7244 11.8922 86.5183C11.4815 86.3123 10.9682 86.0326 10.3522 85.6794C8.8562 86.4447 7.69753 87.4015 6.8762 88.5495C6.0842 89.6682 5.6882 91.0959 5.6882 92.8327C5.6882 95.6882 6.81753 97.8371 9.0762 99.2796C11.3642 100.693 14.5175 101.399 18.5362 101.399C20.5602 101.399 22.4962 101.105 24.3442 100.516C26.2215 99.8977 27.7322 99.0146 28.8762 97.8665C30.0495 96.689 30.6362 95.3055 30.6362 93.7158C30.6362 91.0076 29.5215 89.1383 27.2922 88.108L24.4762 88.9028C22.8335 89.3738 22.0122 89.6093 22.0122 89.6093C19.5482 90.1686 17.7442 90.7574 16.6002 91.3755C15.4562 91.9937 14.8842 92.8327 14.8842 93.8925C14.8842 94.9522 15.3682 95.8206 16.3362 96.4977C17.3335 97.1453 18.4335 97.4691 19.6362 97.4691C19.9589 97.4691 20.2962 97.425 20.6482 97.3367C21.0295 97.2484 21.2789 97.1453 21.3962 97.0276C20.6922 96.7921 20.1495 96.4241 19.7682 95.9237C19.3869 95.4232 19.1962 94.8197 19.1962 94.1132C19.1962 93.2007 19.5189 92.4942 20.1642 91.9937C20.8389 91.4639 21.6895 91.1989 22.7162 91.1989C23.7722 91.1989 24.5935 91.4786 25.1802 92.0379C25.7962 92.5678 26.1042 93.289 26.1042 94.2016C26.1042 95.5263 25.5175 96.5271 24.3442 97.2042C23.1709 97.8813 21.6749 98.2198 19.8562 98.2198C17.9789 98.2198 16.4095 97.7341 15.1482 96.7626C13.9162 95.7912 13.3002 94.3929 13.3002 92.5678C13.3002 90.3599 14.1362 88.6084 15.8082 87.3132C17.4802 86.0179 19.9295 85.0612 23.1562 84.443L25.0482 83.9573C26.9549 83.5157 28.5095 83.0889 29.7122 82.6767C31.9709 82.1174 33.6429 81.5139 34.7282 80.8663C35.8135 80.1892 36.3562 79.3356 36.3562 78.3052C36.3562 77.1572 35.8429 76.2005 34.8162 75.4351C33.8189 74.6697 32.6749 74.287 31.3842 74.287C30.8269 74.287 30.4015 74.3606 30.1082 74.5078C30.7829 74.7727 31.3109 75.1701 31.6922 75.7C32.0735 76.2004 32.2642 76.7303 32.2642 77.2896C32.2642 78.1728 31.9269 78.8646 31.2522 79.365C30.6069 79.8654 29.7709 80.1157 28.7442 80.1157C27.7175 80.1157 26.8815 79.8654 26.2362 79.365C25.6202 78.8351 25.3122 78.1139 25.3122 77.2013C25.3122 76.0533 25.8109 75.1554 26.8082 74.5078C27.8055 73.8307 29.1402 73.4922 30.8122 73.4922C32.9242 73.4922 34.6109 74.0515 35.8722 75.1701C37.1629 76.2593 37.8082 77.7754 37.8082 79.7182Z" fill="#009BD2"/>
<path d="M46.8288 15.0373C47.0368 15.5511 47.2608 15.9365 47.5008 16.1934C47.7568 16.4343 48.0048 16.5627 48.2448 16.5788V17.0605C47.0928 17.0123 45.6368 16.9882 43.8768 16.9882C42.0528 16.9882 40.7088 17.0123 39.8448 17.0605V16.5788C40.4528 16.5467 40.8848 16.4744 41.1408 16.362C41.3968 16.2335 41.5248 16.0168 41.5248 15.7117C41.5248 15.4227 41.4288 15.0373 41.2368 14.5556L39.8208 10.6056H34.9728L34.5648 11.6894C34.0368 13.0543 33.7728 14.098 33.7728 14.8205C33.7728 15.4789 33.9568 15.9285 34.3248 16.1693C34.6928 16.4102 35.2368 16.5467 35.9568 16.5788V17.0605C34.7568 17.0123 33.7088 16.9882 32.8128 16.9882C32.0608 16.9882 31.4448 17.0123 30.9648 17.0605V16.5788C31.3648 16.5145 31.7408 16.2657 32.0928 15.8321C32.4448 15.3986 32.8048 14.7081 33.1728 13.7608L38.5008 0.00805664C39.0128 0.04017 39.4368 0.0562276 39.7728 0.0562276C40.0928 0.0562276 40.5088 0.04017 41.0208 0.00805664L46.8288 15.0373ZM39.6528 10.1239L37.4688 4.10256L35.1648 10.1239H39.6528Z" fill="#65C8CA"/>
<path d="M54.974 4.22299C55.63 4.22299 56.23 4.29524 56.774 4.43976C57.334 4.56821 57.79 4.73681 58.142 4.94555C58.59 5.20246 58.942 5.54768 59.198 5.98122C59.454 6.41475 59.582 6.90449 59.582 7.45042C59.582 8.12481 59.366 8.6868 58.934 9.1364C58.502 9.56993 57.95 9.7867 57.278 9.7867C56.59 9.7867 56.046 9.59402 55.646 9.20865C55.262 8.80723 55.07 8.27735 55.07 7.61902C55.07 7.04097 55.254 6.53518 55.622 6.10165C56.006 5.65205 56.478 5.355 57.038 5.21049C56.798 5.01781 56.478 4.92146 56.078 4.92146C55.054 4.92146 54.334 5.47543 53.918 6.58335C53.502 7.67522 53.294 8.97583 53.294 10.4852C53.294 12.0266 53.582 13.1265 54.158 13.7849C54.734 14.4432 55.446 14.7724 56.294 14.7724C57.462 14.7724 58.43 14.2345 59.198 13.1586L59.606 13.3032C59.254 14.4271 58.654 15.3906 57.806 16.1934C56.974 16.9962 55.902 17.3977 54.59 17.3977C52.846 17.3977 51.446 16.8758 50.39 15.8321C49.334 14.7884 48.806 13.1185 48.806 10.8224C48.806 8.62258 49.366 6.97675 50.486 5.88488C51.622 4.77695 53.118 4.22299 54.974 4.22299Z" fill="#65C8CA"/>
<path d="M70.1403 4.22299C71.4203 4.22299 72.3243 4.54413 72.8523 5.1864C73.0923 5.47543 73.2683 5.86882 73.3803 6.36658C73.4923 6.84829 73.5483 7.49057 73.5483 8.29341V14.8205C73.5483 15.4789 73.6443 15.9365 73.8363 16.1934C74.0443 16.4343 74.3963 16.5547 74.8923 16.5547V17.0605C73.1643 16.9962 72.0443 16.9641 71.5323 16.9641C70.9883 16.9641 69.8523 16.9962 68.1243 17.0605V16.5547C68.5403 16.5547 68.8283 16.4343 68.9883 16.1934C69.1483 15.9365 69.2283 15.4789 69.2283 14.8205V6.9928C69.2283 6.47898 69.1323 6.10164 68.9403 5.86079C68.7643 5.60388 68.4683 5.47543 68.0523 5.47543C67.5883 5.47543 67.1803 5.64402 66.8283 5.98122C66.4923 6.30236 66.3243 6.71181 66.3243 7.20957V14.8205C66.3243 15.4789 66.4043 15.9365 66.5643 16.1934C66.7243 16.4343 67.0123 16.5547 67.4283 16.5547V17.0605C65.8283 16.9962 64.7723 16.9641 64.2603 16.9641C63.7163 16.9641 62.5163 16.9962 60.6603 17.0605V16.5547C61.1563 16.5547 61.5003 16.4343 61.6923 16.1934C61.9003 15.9365 62.0043 15.4789 62.0043 14.8205V7.18549C62.0043 6.44687 61.9003 5.90896 61.6923 5.57177C61.5003 5.23457 61.1563 5.06598 60.6603 5.06598V4.56018C61.1723 4.60835 61.6683 4.63244 62.1483 4.63244C63.8123 4.63244 65.2043 4.52004 66.3243 4.29524V6.02939C67.0443 4.82512 68.3163 4.22299 70.1403 4.22299Z" fill="#65C8CA"/>
<path d="M83.1483 14.7724C84.3163 14.7724 85.2843 14.2345 86.0523 13.1586L86.4603 13.3032C86.1083 14.4271 85.5083 15.3906 84.6603 16.1934C83.8283 16.9962 82.7563 17.3977 81.4443 17.3977C79.7643 17.3977 78.4203 16.8758 77.4123 15.8321C76.4043 14.7884 75.9003 13.1185 75.9003 10.8224C75.9003 8.62258 76.4603 6.97675 77.5803 5.88488C78.7163 4.77695 80.2123 4.22299 82.0683 4.22299C85.0923 4.22299 86.6043 6.02136 86.6043 9.6181H80.4123C80.3963 9.81079 80.3883 10.0998 80.3883 10.4852C80.3883 12.0266 80.6523 13.1265 81.1803 13.7849C81.7243 14.4432 82.3803 14.7724 83.1483 14.7724ZM81.9003 4.77695C81.0043 4.77695 80.4763 6.23813 80.3163 9.16048H83.1003C83.1163 7.87593 83.0203 6.8242 82.8123 6.0053C82.6203 5.1864 82.3163 4.77695 81.9003 4.77695Z" fill="#65C8CA"/>
<path d="M108.232 0.00805664C108.12 1.79037 108.064 3.38 108.064 4.77695C108.064 5.51557 108.088 6.09362 108.136 6.5111H107.584C107.056 4.40764 106.376 2.89027 105.544 1.95897C104.712 1.02767 103.816 0.562018 102.856 0.562018H102.832V14.3388C102.832 15.0132 102.896 15.503 103.024 15.808C103.168 16.1131 103.416 16.3219 103.768 16.4343C104.136 16.5306 104.712 16.5788 105.496 16.5788V17.0605C103.24 17.0123 101.488 16.9882 100.24 16.9882C99.1039 16.9882 97.4559 17.0123 95.2959 17.0605V16.5788C96.0799 16.5788 96.6479 16.5306 96.9999 16.4343C97.3679 16.3219 97.6159 16.1131 97.7439 15.808C97.8879 15.503 97.9599 15.0132 97.9599 14.3388V0.562018H97.9359C96.9599 0.562018 96.0559 1.02767 95.2239 1.95897C94.4079 2.87421 93.7359 4.39159 93.2079 6.5111H92.6559C92.7039 6.09362 92.7279 5.51557 92.7279 4.77695C92.7279 3.38 92.6719 1.79037 92.5599 0.00805664C94.0799 0.0562267 96.6959 0.0803122 100.408 0.0803122C104.104 0.0803122 106.712 0.0562267 108.232 0.00805664Z" fill="#65C8CA"/>
<path d="M118.053 4.22299C118.837 4.22299 119.397 4.46384 119.733 4.94555C120.085 5.42726 120.261 5.99728 120.261 6.65561C120.261 7.37817 120.053 7.95622 119.637 8.38975C119.237 8.80723 118.709 9.01597 118.053 9.01597C117.365 9.01597 116.837 8.86343 116.469 8.55835C116.101 8.23721 115.917 7.8117 115.917 7.28183C115.917 6.33447 116.325 5.58783 117.141 5.04189C116.853 5.04189 116.597 5.09809 116.373 5.21049C115.973 5.38711 115.637 5.67614 115.365 6.07756C115.093 6.46293 114.957 6.88843 114.957 7.35408V14.5797C114.957 15.3344 115.109 15.8562 115.413 16.1452C115.733 16.4182 116.269 16.5547 117.021 16.5547V17.0605C116.813 17.0605 116.637 17.0524 116.493 17.0364C114.813 16.9882 113.693 16.9641 113.133 16.9641C112.637 16.9641 111.525 16.9882 109.797 17.0364C109.669 17.0524 109.501 17.0605 109.293 17.0605V16.5547C109.789 16.5547 110.133 16.4343 110.325 16.1934C110.533 15.9365 110.637 15.4789 110.637 14.8205V7.18549C110.637 6.44687 110.533 5.90896 110.325 5.57177C110.133 5.23457 109.789 5.06598 109.293 5.06598V4.56018C109.805 4.60835 110.301 4.63244 110.781 4.63244C112.445 4.63244 113.837 4.52004 114.957 4.29524V6.02939C115.565 4.82512 116.597 4.22299 118.053 4.22299Z" fill="#65C8CA"/>
<path d="M128.101 14.7724C129.269 14.7724 130.237 14.2345 131.005 13.1586L131.413 13.3032C131.061 14.4271 130.461 15.3906 129.613 16.1934C128.781 16.9962 127.709 17.3977 126.397 17.3977C124.717 17.3977 123.373 16.8758 122.365 15.8321C121.357 14.7884 120.853 13.1185 120.853 10.8224C120.853 8.62258 121.413 6.97675 122.533 5.88488C123.669 4.77695 125.165 4.22299 127.021 4.22299C130.045 4.22299 131.557 6.02136 131.557 9.6181H125.365C125.349 9.81079 125.341 10.0998 125.341 10.4852C125.341 12.0266 125.605 13.1265 126.133 13.7849C126.677 14.4432 127.333 14.7724 128.101 14.7724ZM126.853 4.77695C125.957 4.77695 125.429 6.23813 125.269 9.16048H128.053C128.069 7.87593 127.973 6.8242 127.765 6.0053C127.573 5.1864 127.269 4.77695 126.853 4.77695Z" fill="#65C8CA"/>
<path d="M135.804 17.2291C134.78 17.2291 134.004 16.9561 133.476 16.4102C132.964 15.8482 132.708 15.1497 132.708 14.3147C132.708 13.5922 132.892 12.9981 133.26 12.5324C133.644 12.0507 134.092 11.6814 134.604 11.4245C135.116 11.1676 135.78 10.9027 136.596 10.6297C137.46 10.3407 138.092 10.0757 138.492 9.83487C138.892 9.59402 139.092 9.25682 139.092 8.82329V6.67969C139.092 6.16587 138.964 5.70825 138.708 5.30683C138.452 4.90541 138.012 4.7047 137.388 4.7047C136.892 4.7047 136.444 4.84118 136.044 5.11415C136.588 5.30683 136.988 5.59585 137.244 5.98122C137.516 6.35053 137.652 6.76801 137.652 7.23366C137.652 7.85987 137.428 8.36567 136.98 8.75103C136.548 9.12034 136.02 9.30499 135.396 9.30499C134.772 9.30499 134.276 9.11231 133.908 8.72695C133.556 8.32552 133.38 7.81973 133.38 7.20957C133.38 6.72786 133.5 6.31038 133.74 5.95713C133.98 5.60388 134.356 5.28274 134.868 4.99372C135.764 4.4799 137.044 4.22299 138.708 4.22299C139.588 4.22299 140.348 4.3113 140.988 4.48793C141.628 4.6485 142.172 4.96161 142.62 5.42726C142.94 5.76445 143.148 6.18996 143.244 6.70378C143.356 7.20154 143.412 7.90002 143.412 8.7992V15.2541C143.412 15.6555 143.436 15.9285 143.484 16.073C143.548 16.2175 143.652 16.2897 143.796 16.2897C143.908 16.2897 144.028 16.2576 144.156 16.1934C144.284 16.1131 144.404 16.0248 144.516 15.9285L144.756 16.3379C144.068 16.932 143.084 17.2291 141.804 17.2291C140.844 17.2291 140.172 17.0685 139.788 16.7474C139.404 16.4102 139.196 15.9606 139.164 15.3986C138.412 16.6189 137.292 17.2291 135.804 17.2291ZM138.204 15.3022C138.54 15.3022 138.836 15.1658 139.092 14.8928V9.81079C138.948 10.0516 138.684 10.3647 138.3 10.7501C137.868 11.1676 137.54 11.577 137.316 11.9785C137.092 12.3638 136.98 12.8937 136.98 13.5681C136.98 14.7242 137.388 15.3022 138.204 15.3022Z" fill="#65C8CA"/>
<path d="M150.978 4.56018H153.33V5.04189H150.978V15.0373C150.978 15.3584 151.034 15.5832 151.146 15.7117C151.258 15.8401 151.442 15.9044 151.698 15.9044C151.89 15.9044 152.106 15.8482 152.346 15.7358C152.586 15.6234 152.802 15.4468 152.994 15.2059L153.354 15.4949C152.618 16.7634 151.482 17.3977 149.946 17.3977C148.842 17.3977 148.018 17.1247 147.474 16.5788C147.138 16.2416 146.914 15.8241 146.802 15.3263C146.706 14.8286 146.658 14.1301 146.658 13.2309V5.04189H144.834V4.56018H146.658V1.71812C147.522 1.71812 148.298 1.63783 148.986 1.47726C149.69 1.30064 150.354 1.02767 150.978 0.658359V4.56018Z" fill="#65C8CA"/>
<path d="M173.696 14.8205C173.696 15.4789 173.792 15.9365 173.984 16.1934C174.192 16.4343 174.544 16.5547 175.04 16.5547V17.0605C173.312 16.9962 172.192 16.9641 171.68 16.9641C171.168 16.9641 170.112 16.9962 168.512 17.0605V16.5547C168.832 16.5547 169.056 16.4343 169.184 16.1934C169.312 15.9525 169.376 15.4949 169.376 14.8205V6.9928C169.376 6.47898 169.28 6.10164 169.088 5.86079C168.912 5.60388 168.616 5.47543 168.2 5.47543C167.784 5.47543 167.4 5.65205 167.048 6.0053C166.712 6.35856 166.504 6.77604 166.424 7.25774C166.456 7.64311 166.472 7.98833 166.472 8.29341V14.8205C166.472 15.4949 166.552 15.9525 166.712 16.1934C166.872 16.4343 167.16 16.5547 167.576 16.5547V17.0605C165.976 16.9962 164.936 16.9641 164.456 16.9641C163.944 16.9641 162.888 16.9962 161.288 17.0605V16.5547C161.608 16.5547 161.832 16.4343 161.96 16.1934C162.088 15.9365 162.152 15.4789 162.152 14.8205V6.9928C162.152 6.47898 162.08 6.10164 161.936 5.86079C161.792 5.60388 161.552 5.47543 161.216 5.47543C160.752 5.47543 160.344 5.64402 159.992 5.98122C159.656 6.30236 159.488 6.71181 159.488 7.20957V14.8205C159.488 15.4949 159.552 15.9525 159.68 16.1934C159.808 16.4343 160.032 16.5547 160.352 16.5547V17.0605C158.88 16.9962 157.904 16.9641 157.424 16.9641C156.88 16.9641 155.68 16.9962 153.824 17.0605V16.5547C154.32 16.5547 154.664 16.4343 154.856 16.1934C155.064 15.9365 155.168 15.4789 155.168 14.8205V7.18549C155.168 6.44687 155.064 5.90896 154.856 5.57177C154.664 5.23457 154.32 5.06598 153.824 5.06598V4.56018C154.336 4.60835 154.832 4.63244 155.312 4.63244C156.976 4.63244 158.368 4.52004 159.488 4.29524V6.02939C160.16 4.82512 161.352 4.22299 163.064 4.22299C164.344 4.22299 165.248 4.54413 165.776 5.1864C166.016 5.47543 166.192 5.85276 166.304 6.31841C166.704 5.54768 167.232 5.00978 167.888 4.7047C168.56 4.38356 169.36 4.22299 170.288 4.22299C171.568 4.22299 172.472 4.54413 173 5.1864C173.24 5.47543 173.416 5.86882 173.528 6.36658C173.64 6.84829 173.696 7.49057 173.696 8.29341V14.8205Z" fill="#65C8CA"/>
<path d="M183.297 14.7724C184.465 14.7724 185.433 14.2345 186.201 13.1586L186.609 13.3032C186.257 14.4271 185.657 15.3906 184.809 16.1934C183.977 16.9962 182.905 17.3977 181.593 17.3977C179.913 17.3977 178.569 16.8758 177.561 15.8321C176.553 14.7884 176.049 13.1185 176.049 10.8224C176.049 8.62258 176.609 6.97675 177.729 5.88488C178.865 4.77695 180.361 4.22299 182.217 4.22299C185.241 4.22299 186.753 6.02136 186.753 9.6181H180.561C180.545 9.81079 180.537 10.0998 180.537 10.4852C180.537 12.0266 180.801 13.1265 181.329 13.7849C181.873 14.4432 182.529 14.7724 183.297 14.7724ZM182.049 4.77695C181.153 4.77695 180.625 6.23813 180.465 9.16048H183.249C183.265 7.87593 183.169 6.8242 182.961 6.0053C182.769 5.1864 182.465 4.77695 182.049 4.77695Z" fill="#65C8CA"/>
<path d="M197.125 4.22299C198.405 4.22299 199.309 4.54413 199.837 5.1864C200.077 5.47543 200.253 5.86882 200.365 6.36658C200.477 6.84829 200.533 7.49057 200.533 8.29341V14.8205C200.533 15.4789 200.629 15.9365 200.821 16.1934C201.029 16.4343 201.381 16.5547 201.877 16.5547V17.0605C200.149 16.9962 199.029 16.9641 198.517 16.9641C197.973 16.9641 196.837 16.9962 195.109 17.0605V16.5547C195.525 16.5547 195.813 16.4343 195.973 16.1934C196.133 15.9365 196.213 15.4789 196.213 14.8205V6.9928C196.213 6.47898 196.117 6.10164 195.925 5.86079C195.749 5.60388 195.453 5.47543 195.037 5.47543C194.573 5.47543 194.165 5.64402 193.813 5.98122C193.477 6.30236 193.309 6.71181 193.309 7.20957V14.8205C193.309 15.4789 193.389 15.9365 193.549 16.1934C193.709 16.4343 193.997 16.5547 194.413 16.5547V17.0605C192.813 16.9962 191.757 16.9641 191.245 16.9641C190.701 16.9641 189.501 16.9962 187.645 17.0605V16.5547C188.141 16.5547 188.485 16.4343 188.677 16.1934C188.885 15.9365 188.989 15.4789 188.989 14.8205V7.18549C188.989 6.44687 188.885 5.90896 188.677 5.57177C188.485 5.23457 188.141 5.06598 187.645 5.06598V4.56018C188.157 4.60835 188.653 4.63244 189.133 4.63244C190.797 4.63244 192.189 4.52004 193.309 4.29524V6.02939C194.029 4.82512 195.301 4.22299 197.125 4.22299Z" fill="#65C8CA"/>
<path d="M208.189 4.56018H210.541V5.04189H208.189V15.0373C208.189 15.3584 208.245 15.5832 208.357 15.7117C208.469 15.8401 208.653 15.9044 208.909 15.9044C209.101 15.9044 209.317 15.8482 209.557 15.7358C209.797 15.6234 210.013 15.4468 210.205 15.2059L210.565 15.4949C209.829 16.7634 208.693 17.3977 207.157 17.3977C206.053 17.3977 205.229 17.1247 204.685 16.5788C204.349 16.2416 204.125 15.8241 204.013 15.3263C203.917 14.8286 203.869 14.1301 203.869 13.2309V5.04189H202.045V4.56018H203.869V1.71812C204.733 1.71812 205.509 1.63783 206.197 1.47726C206.901 1.30064 207.565 1.02767 208.189 0.658359V4.56018Z" fill="#65C8CA"/>
</svg>
